STARTFONT 2.1
COMMENT "$Id: 8x13B.bdf,v 1.28 2002-11-15 18:23:23+00 mgk25 Rel $"
COMMENT "Send bug reports to Markus Kuhn <http://www.cl.cam.ac.uk/~mgk25/>"
FONT -Misc-Fixed-Bold-R-Normal--13-120-75-75-C-80-ISO10646-1
SIZE 39 78 78
FONTBOUNDINGBOX 24 39 0 -6
STARTPROPERTIES 22
FONTNAME_REGISTRY ""
FOUNDRY "Misc"
FAMILY_NAME "Fixed"
WEIGHT_NAME "Bold"
SLANT "R"
SETWIDTH_NAME "Normal"
ADD_STYLE_NAME ""
PIXEL_SIZE 39
POINT_SIZE 360
RESOLUTION_X 75
RESOLUTION_Y 75
SPACING "C"
AVERAGE_WIDTH 240
CHARSET_REGISTRY "ISO10646"
CHARSET_ENCODING "1"
DEFAULT_CHAR 0
FONT_DESCENT 2
FONT_ASCENT 11
COPYRIGHT "Public domain font.  Share and enjoy."
_XMBDFED_INFO "Edited with xmbdfed 4.5."
CAP_HEIGHT 10
X_HEIGHT 7
ENDPROPERTIES
CHARS 1141
STARTCHAR char0
ENCODING 0
SWIDTH 568 0
DWIDTH 24 0
BBX 24 39 0 -6
BITMAP
000000
000000
000000
e38e38
e38e38
e38e38
e38e38
e38e38
e38e38
000000
000000
000000
e00038
e00038
e00038
e00038
e00038
e00038
000000
000000
000000
e00038
e00038
e00038
e00038
e00038
e00038
000000
000000
000000
e38e38
e38e38
e38e38
e38e38
e38e38
e38e38
000000
000000
000000
ENDCHAR
STARTCHAR space
ENCODING 32
SWIDTH 568 0
DWIDTH 24 0
BBX 24 39 0 -6
BITMAP
000000
000000
000000
000000
000000
000000
000000
000000
000000
000000
000000
000000
000000
000000
000000
000000
000000
000000
000000
000000
000000
000000
000000
000000
000000
000000
000000
000000
000000
000000
000000
000000
000000
000000
000000
000000
000000
000000
000000
ENDCHAR
STARTCHAR exclam
ENCODING 33
SWIDTH 568 0
DWIDTH 24 0
BBX 24 39 0 -6
BITMAP
000000
000000
000000
007e00
007e00
007e00
007e00
007e00
007e00
007e00
007e00
007e00
007e00
007e00
007e00
007e00
007e00
007e00
007e00
007e00
007e00
007e00
007e00
007e00
000000
000000
000000
007e00
007e00
007e00
007e00
007e00
007e00
000000
000000
000000
000000
000000
000000
ENDCHAR
STARTCHAR quotedbl
ENCODING 34
SWIDTH 568 0
DWIDTH 24 0
BBX 24 39 0 -6
BITMAP
000000
000000
000000
1f8fc0
1f8fc0
1f8fc0
1f8fc0
1f8fc0
1f8fc0
1f8fc0
1f8fc0
1f8fc0
1f8fc0
1f8fc0
1f8fc0
000000
000000
000000
000000
000000
000000
000000
000000
000000
000000
000000
000000
000000
000000
000000
000000
000000
000000
000000
000000
000000
000000
000000
000000
ENDCHAR
STARTCHAR numbersign
ENCODING 35
SWIDTH 568 0
DWIDTH 24 0
BBX 24 39 0 -6
BITMAP
000000
000000
000000
000000
000000
000000
1f8fc0
1f8fc0
1f8fc0
1f8fc0
1f8fc0
1f8fc0
fffff8
fffff8
fffff8
fffff8
fffff8
fffff8
1f8fc0
1f8fc0
1f8fc0
fffff8
fffff8
fffff8
fffff8
fffff8
fffff8
1f8fc0
1f8fc0
1f8fc0
1f8fc0
1f8fc0
1f8fc0
000000
000000
000000
000000
000000
000000
ENDCHAR
STARTCHAR dollar
ENCODING 36
SWIDTH 568 0
DWIDTH 24 0
BBX 24 39 0 -6
BITMAP
000000
000000
000000
007000
007000
007000
1fffc0
1fffc0
1fffc0
fc71f8
fc71f8
fc71f8
fc7000
fc7000
fc7000
fff000
fff000
fff000
1fffc0
1fffc0
1fffc0
007ff8
007ff8
007ff8
0071f8
0071f8
0071f8
fc71f8
fc71f8
fc71f8
1fffc0
1fffc0
1fffc0
007000
007000
007000
000000
000000
000000
ENDCHAR
STARTCHAR percent
ENCODING 37
SWIDTH 568 0
DWIDTH 24 0
BBX 24 39 0 -6
BITMAP
000000
000000
000000
ff81f8
ff81f8
ff81f8
e381f8
e381f8
e381f8
ff8fc0
ff8fc0
ff8fc0
007e00
007e00
007e00
007e00
007e00
007e00
03f000
03f000
03f000
03f000
03f000
03f000
1f8ff8
1f8ff8
1f8ff8
fc0e38
fc0e38
fc0e38
fc0ff8
fc0ff8
fc0ff8
000000
000000
000000
000000
000000
000000
ENDCHAR
STARTCHAR ampersand
ENCODING 38
SWIDTH 568 0
DWIDTH 24 0
BBX 24 39 0 -6
BITMAP
000000
000000
000000
000000
000000
000000
000000
000000
000000
000000
000000
000000
1ffe00
1ffe00
1ffe00
fc0fc0
fc0fc0
fc0fc0
fc0fc0
fc0fc0
fc0fc0
1ffe00
1ffe00
1ffe00
fc0ff8
fc0ff8
fc0ff8
fc0fc0
fc0fc0
fc0fc0
1ffff8
1ffff8
1ffff8
000000
000000
000000
000000
000000
000000
ENDCHAR
STARTCHAR quotesingle
ENCODING 39
SWIDTH 568 0
DWIDTH 24 0
BBX 24 39 0 -6
BITMAP
000000
000000
000000
007e00
007e00
007e00
007e00
007e00
007e00
007e00
007e00
007e00
007e00
007e00
007e00
000000
000000
000000
000000
000000
000000
000000
000000
000000
000000
000000
000000
000000
000000
000000
000000
000000
000000
000000
000000
000000
000000
000000
000000
ENDCHAR
STARTCHAR parenleft
ENCODING 40
SWIDTH 568 0
DWIDTH 24 0
BBX 24 39 0 -6
BITMAP
000000
000000
000000
000fc0
000fc0
000fc0
007e00
007e00
007e00
03f000
03f000
03f000
03f000
03f000
03f000
1f8000
1f8000
1f8000
1f8000
1f8000
1f8000
1f8000
1f8000
1f8000
03f000
03f000
03f000
03f000
03f000
03f000
007e00
007e00
007e00
000fc0
000fc0
000fc0
000000
000000
000000
ENDCHAR
STARTCHAR parenright
ENCODING 41
SWIDTH 568 0
DWIDTH 24 0
BBX 24 39 0 -6
BITMAP
000000
000000
000000
1f8000
1f8000
1f8000
03f000
03f000
03f000
007e00
007e00
007e00
007e00
007e00
007e00
000fc0
000fc0
000fc0
000fc0
000fc0
000fc0
000fc0
000fc0
000fc0
007e00
007e00
007e00
007e00
007e00
007e00
03f000
03f000
03f000
1f8000
1f8000
1f8000
000000
000000
000000
ENDCHAR
STARTCHAR asterisk
ENCODING 42
SWIDTH 568 0
DWIDTH 24 0
BBX 24 39 0 -6
BITMAP
000000
000000
000000
000000
000000
000000
000000
000000
000000
007000
007000
007000
007000
007000
007000
fffff8
fffff8
fffff8
03fe00
03fe00
03fe00
03fe00
03fe00
03fe00
1f8fc0
1f8fc0
1f8fc0
1c01c0
1c01c0
1c01c0
000000
000000
000000
000000
000000
000000
000000
000000
000000
ENDCHAR
STARTCHAR plus
ENCODING 43
SWIDTH 568 0
DWIDTH 24 0
BBX 24 39 0 -6
BITMAP
000000
000000
000000
000000
000000
000000
000000
000000
000000
007e00
007e00
007e00
007e00
007e00
007e00
1ffff8
1ffff8
1ffff8
1ffff8
1ffff8
1ffff8
007e00
007e00
007e00
007e00
007e00
007e00
000000
000000
000000
000000
000000
000000
000000
000000
000000
000000
000000
000000
ENDCHAR
STARTCHAR comma
ENCODING 44
SWIDTH 568 0
DWIDTH 24 0
BBX 24 39 0 -6
BITMAP
000000
000000
000000
000000
000000
000000
000000
000000
000000
000000
000000
000000
000000
000000
000000
000000
000000
000000
000000
000000
000000
03ffc0
03ffc0
03ffc0
007fc0
007fc0
007fc0
007fc0
007fc0
007fc0
007e00
007e00
007e00
03f000
03f000
03f000
000000
000000
000000
ENDCHAR
STARTCHAR hyphen
ENCODING 45
SWIDTH 568 0
DWIDTH 24 0
BBX 24 39 0 -6
BITMAP
000000
000000
000000
000000
000000
000000
000000
000000
000000
000000
000000
000000
000000
000000
000000
000000
000000
000000
1ffff8
1ffff8
1ffff8
000000
000000
000000
000000
000000
000000
000000
000000
000000
000000
000000
000000
000000
000000
000000
000000
000000
000000
ENDCHAR
STARTCHAR period
ENCODING 46
SWIDTH 568 0
DWIDTH 24 0
BBX 24 39 0 -6
BITMAP
000000
000000
000000
000000
000000
000000
000000
000000
000000
000000
000000
000000
000000
000000
000000
000000
000000
000000
000000
000000
000000
000000
000000
000000
007e00
007e00
007e00
03ffc0
03ffc0
03ffc0
007e00
007e00
007e00
000000
000000
000000
000000
000000
000000
ENDCHAR
STARTCHAR slash
ENCODING 47
SWIDTH 568 0
DWIDTH 24 0
BBX 24 39 0 -6
BITMAP
000000
000000
000000
000038
000038
000038
0001f8
0001f8
0001f8
0001f8
0001f8
0001f8
000fc0
000fc0
000fc0
007e00
007e00
007e00
03f000
03f000
03f000
1f8000
1f8000
1f8000
fc0000
fc0000
fc0000
fc0000
fc0000
fc0000
e00000
e00000
e00000
000000
000000
000000
000000
000000
000000
ENDCHAR
STARTCHAR zero
ENCODING 48
SWIDTH 568 0
DWIDTH 24 0
BBX 24 39 0 -6
BITMAP
000000
000000
000000
03fe00
03fe00
03fe00
1f8fc0
1f8fc0
1f8fc0
fc01f8
fc01f8
fc01f8
fc01f8
fc01f8
fc01f8
fc01f8
fc01f8
fc01f8
fc01f8
fc01f8
fc01f8
fc01f8
fc01f8
fc01f8
fc01f8
fc01f8
fc01f8
1f8fc0
1f8fc0
1f8fc0
03fe00
03fe00
03fe00
000000
000000
000000
000000
000000
000000
ENDCHAR
STARTCHAR one
ENCODING 49
SWIDTH 568 0
DWIDTH 24 0
BBX 24 39 0 -6
BITMAP
000000
000000
000000
007e00
007e00
007e00
03fe00
03fe00
03fe00
1ffe00
1ffe00
1ffe00
007e00
007e00
007e00
007e00
007e00
007e00
007e00
007e00
007e00
007e00
007e00
007e00
007e00
007e00
007e00
007e00
007e00
007e00
1ffff8
1ffff8
1ffff8
000000
000000
000000
000000
000000
000000
ENDCHAR
STARTCHAR two
ENCODING 50
SWIDTH 568 0
DWIDTH 24 0
BBX 24 39 0 -6
BITMAP
000000
000000
000000
1fffc0
1fffc0
1fffc0
fc01f8
fc01f8
fc01f8
fc01f8
fc01f8
fc01f8
0001f8
0001f8
0001f8
000fc0
000fc0
000fc0
007e00
007e00
007e00
03f000
03f000
03f000
1f8000
1f8000
1f8000
fc0000
fc0000
fc0000
fffff8
fffff8
fffff8
000000
000000
000000
000000
000000
000000
ENDCHAR
STARTCHAR three
ENCODING 51
SWIDTH 568 0
DWIDTH 24 0
BBX 24 39 0 -6
BITMAP
000000
000000
000000
fffff8
fffff8
fffff8
0001f8
0001f8
0001f8
000fc0
000fc0
000fc0
007e00
007e00
007e00
03ffc0
03ffc0
03ffc0
0001f8
0001f8
0001f8
0001f8
0001f8
0001f8
0001f8
0001f8
0001f8
fc01f8
fc01f8
fc01f8
1fffc0
1fffc0
1fffc0
000000
000000
000000
000000
000000
000000
ENDCHAR
STARTCHAR four
ENCODING 52
SWIDTH 568 0
DWIDTH 24 0
BBX 24 39 0 -6
BITMAP
000000
000000
000000
000fc0
000fc0
000fc0
007fc0
007fc0
007fc0
03ffc0
03ffc0
03ffc0
1f8fc0
1f8fc0
1f8fc0
fc0fc0
fc0fc0
fc0fc0
fc0fc0
fc0fc0
fc0fc0
fffff8
fffff8
fffff8
000fc0
000fc0
000fc0
000fc0
000fc0
000fc0
000fc0
000fc0
000fc0
000000
000000
000000
000000
000000
000000
ENDCHAR
STARTCHAR five
ENCODING 53
SWIDTH 568 0
DWIDTH 24 0
BBX 24 39 0 -6
BITMAP
000000
000000
000000
fffff8
fffff8
fffff8
fc0000
fc0000
fc0000
fc0000
fc0000
fc0000
ffffc0
ffffc0
ffffc0
ff81f8
ff81f8
ff81f8
0001f8
0001f8
0001f8
0001f8
0001f8
0001f8
0001f8
0001f8
0001f8
fc01f8
fc01f8
fc01f8
1fffc0
1fffc0
1fffc0
000000
000000
000000
000000
000000
000000
ENDCHAR
STARTCHAR six
ENCODING 54
SWIDTH 568 0
DWIDTH 24 0
BBX 24 39 0 -6
BITMAP
000000
000000
000000
03ffc0
03ffc0
03ffc0
1f8000
1f8000
1f8000
fc0000
fc0000
fc0000
fc0000
fc0000
fc0000
ffffc0
ffffc0
ffffc0
ff81f8
ff81f8
ff81f8
fc01f8
fc01f8
fc01f8
fc01f8
fc01f8
fc01f8
ff81f8
ff81f8
ff81f8
1fffc0
1fffc0
1fffc0
000000
000000
000000
000000
000000
000000
ENDCHAR
STARTCHAR seven
ENCODING 55
SWIDTH 568 0
DWIDTH 24 0
BBX 24 39 0 -6
BITMAP
000000
000000
000000
fffff8
fffff8
fffff8
0001f8
0001f8
0001f8
0001f8
0001f8
0001f8
000fc0
000fc0
000fc0
007e00
007e00
007e00
007e00
007e00
007e00
03f000
03f000
03f000
03f000
03f000
03f000
03f000
03f000
03f000
03f000
03f000
03f000
000000
000000
000000
000000
000000
000000
ENDCHAR
STARTCHAR eight
ENCODING 56
SWIDTH 568 0
DWIDTH 24 0
BBX 24 39 0 -6
BITMAP
000000
000000
000000
1fffc0
1fffc0
1fffc0
fc01f8
fc01f8
fc01f8
fc01f8
fc01f8
fc01f8
fc01f8
fc01f8
fc01f8
1fffc0
1fffc0
1fffc0
fc01f8
fc01f8
fc01f8
fc01f8
fc01f8
fc01f8
fc01f8
fc01f8
fc01f8
fc01f8
fc01f8
fc01f8
1fffc0
1fffc0
1fffc0
000000
000000
000000
000000
000000
000000
ENDCHAR
STARTCHAR nine
ENCODING 57
SWIDTH 568 0
DWIDTH 24 0
BBX 24 39 0 -6
BITMAP
000000
000000
000000
1fffc0
1fffc0
1fffc0
fc0ff8
fc0ff8
fc0ff8
fc01f8
fc01f8
fc01f8
fc01f8
fc01f8
fc01f8
fc0ff8
fc0ff8
fc0ff8
1ffff8
1ffff8
1ffff8
0001f8
0001f8
0001f8
0001f8
0001f8
0001f8
000fc0
000fc0
000fc0
1ffe00
1ffe00
1ffe00
000000
000000
000000
000000
000000
000000
ENDCHAR
STARTCHAR colon
ENCODING 58
SWIDTH 568 0
DWIDTH 24 0
BBX 24 39 0 -6
BITMAP
000000
000000
000000
000000
000000
000000
000000
000000
000000
007e00
007e00
007e00
03ffc0
03ffc0
03ffc0
007e00
007e00
007e00
000000
000000
000000
000000
000000
000000
007e00
007e00
007e00
03ffc0
03ffc0
03ffc0
007e00
007e00
007e00
000000
000000
000000
000000
000000
000000
ENDCHAR
STARTCHAR semicolon
ENCODING 59
SWIDTH 568 0
DWIDTH 24 0
BBX 24 39 0 -6
BITMAP
000000
000000
000000
000000
000000
000000
000000
000000
000000
007e00
007e00
007e00
03ffc0
03ffc0
03ffc0
007e00
007e00
007e00
000000
000000
000000
03ffc0
03ffc0
03ffc0
007fc0
007fc0
007fc0
007fc0
007fc0
007fc0
007e00
007e00
007e00
03f000
03f000
03f000
000000
000000
000000
ENDCHAR
STARTCHAR less
ENCODING 60
SWIDTH 568 0
DWIDTH 24 0
BBX 24 39 0 -6
BITMAP
000000
000000
000000
000000
000000
000000
0001f8
0001f8
0001f8
000fc0
000fc0
000fc0
007e00
007e00
007e00
03f000
03f000
03f000
1f8000
1f8000
1f8000
03f000
03f000
03f000
007e00
007e00
007e00
000fc0
000fc0
000fc0
0001f8
0001f8
0001f8
000000
000000
000000
000000
000000
000000
ENDCHAR
STARTCHAR equal
ENCODING 61
SWIDTH 568 0
DWIDTH 24 0
BBX 24 39 0 -6
BITMAP
000000
000000
000000
000000
000000
000000
000000
000000
000000
000000
000000
000000
000000
000000
000000
1ffff8
1ffff8
1ffff8
000000
000000
000000
000000
000000
000000
1ffff8
1ffff8
1ffff8
000000
000000
000000
000000
000000
000000
000000
000000
000000
000000
000000
000000
ENDCHAR
STARTCHAR greater
ENCODING 62
SWIDTH 568 0
DWIDTH 24 0
BBX 24 39 0 -6
BITMAP
000000
000000
000000
000000
000000
000000
1f8000
1f8000
1f8000
03f000
03f000
03f000
007e00
007e00
007e00
000fc0
000fc0
000fc0
0001f8
0001f8
0001f8
000fc0
000fc0
000fc0
007e00
007e00
007e00
03f000
03f000
03f000
1f8000
1f8000
1f8000
000000
000000
000000
000000
000000
000000
ENDCHAR
STARTCHAR question
ENCODING 63
SWIDTH 568 0
DWIDTH 24 0
BBX 24 39 0 -6
BITMAP
000000
000000
000000
1fffc0
1fffc0
1fffc0
fc01f8
fc01f8
fc01f8
fc01f8
fc01f8
fc01f8
0001f8
0001f8
0001f8
000fc0
000fc0
000fc0
007e00
007e00
007e00
007e00
007e00
007e00
000000
000000
000000
007e00
007e00
007e00
007e00
007e00
007e00
000000
000000
000000
000000
000000
000000
ENDCHAR
STARTCHAR at
ENCODING 64
SWIDTH 568 0
DWIDTH 24 0
BBX 24 39 0 -6
BITMAP
000000
000000
000000
000000
000000
000000
1fffc0
1fffc0
1fffc0
fffff8
fffff8
fffff8
fc0ff8
fc0ff8
fc0ff8
fc7ff8
fc7ff8
fc7ff8
fc7038
fc7038
fc7038
fc7038
fc7038
fc7038
fc7ff8
fc7ff8
fc7ff8
ff8000
ff8000
ff8000
1ffff8
1ffff8
1ffff8
000000
000000
000000
000000
000000
000000
ENDCHAR
STARTCHAR A
ENCODING 65
SWIDTH 568 0
DWIDTH 24 0
BBX 24 39 0 -6
BITMAP
000000
000000
000000
03fe00
03fe00
03fe00
1fffc0
1fffc0
1fffc0
fc01f8
fc01f8
fc01f8
fc01f8
fc01f8
fc01f8
fc01f8
fc01f8
fc01f8
fffff8
fffff8
fffff8
fc01f8
fc01f8
fc01f8
fc01f8
fc01f8
fc01f8
fc01f8
fc01f8
fc01f8
fc01f8
fc01f8
fc01f8
000000
000000
000000
000000
000000
000000
ENDCHAR
STARTCHAR B
ENCODING 66
SWIDTH 568 0
DWIDTH 24 0
BBX 24 39 0 -6
BITMAP
000000
000000
000000
ffffc0
ffffc0
ffffc0
1f81f8
1f81f8
1f81f8
1f81f8
1f81f8
1f81f8
1f81f8
1f81f8
1f81f8
1fffc0
1fffc0
1fffc0
1f81f8
1f81f8
1f81f8
1f81f8
1f81f8
1f81f8
1f81f8
1f81f8
1f81f8
1f81f8
1f81f8
1f81f8
ffffc0
ffffc0
ffffc0
000000
000000
000000
000000
000000
000000
ENDCHAR
STARTCHAR C
ENCODING 67
SWIDTH 568 0
DWIDTH 24 0
BBX 24 39 0 -6
BITMAP
000000
000000
000000
1fffc0
1fffc0
1fffc0
ff81f8
ff81f8
ff81f8
fc01f8
fc01f8
fc01f8
fc0000
fc0000
fc0000
fc0000
fc0000
fc0000
fc0000
fc0000
fc0000
fc0000
fc0000
fc0000
fc01f8
fc01f8
fc01f8
ff81f8
ff81f8
ff81f8
1fffc0
1fffc0
1fffc0
000000
000000
000000
000000
000000
000000
ENDCHAR
STARTCHAR D
ENCODING 68
SWIDTH 568 0
DWIDTH 24 0
BBX 24 39 0 -6
BITMAP
000000
000000
000000
ffffc0
ffffc0
ffffc0
1f81f8
1f81f8
1f81f8
1f81f8
1f81f8
1f81f8
1f81f8
1f81f8
1f81f8
1f81f8
1f81f8
1f81f8
1f81f8
1f81f8
1f81f8
1f81f8
1f81f8
1f81f8
1f81f8
1f81f8
1f81f8
1f81f8
1f81f8
1f81f8
ffffc0
ffffc0
ffffc0
000000
000000
000000
000000
000000
000000
ENDCHAR
STARTCHAR E
ENCODING 69
SWIDTH 568 0
DWIDTH 24 0
BBX 24 39 0 -6
BITMAP
000000
000000
000000
fffff8
fffff8
fffff8
fc0000
fc0000
fc0000
fc0000
fc0000
fc0000
fc0000
fc0000
fc0000
fffe00
fffe00
fffe00
fc0000
fc0000
fc0000
fc0000
fc0000
fc0000
fc0000
fc0000
fc0000
fc0000
fc0000
fc0000
fffff8
fffff8
fffff8
000000
000000
000000
000000
000000
000000
ENDCHAR
STARTCHAR F
ENCODING 70
SWIDTH 568 0
DWIDTH 24 0
BBX 24 39 0 -6
BITMAP
000000
000000
000000
fffff8
fffff8
fffff8
fc0000
fc0000
fc0000
fc0000
fc0000
fc0000
fc0000
fc0000
fc0000
fffe00
fffe00
fffe00
fc0000
fc0000
fc0000
fc0000
fc0000
fc0000
fc0000
fc0000
fc0000
fc0000
fc0000
fc0000
fc0000
fc0000
fc0000
000000
000000
000000
000000
000000
000000
ENDCHAR
STARTCHAR G
ENCODING 71
SWIDTH 568 0
DWIDTH 24 0
BBX 24 39 0 -6
BITMAP
000000
000000
000000
1fffc0
1fffc0
1fffc0
fc01f8
fc01f8
fc01f8
fc01f8
fc01f8
fc01f8
fc0000
fc0000
fc0000
fc0000
fc0000
fc0000
fc0000
fc0000
fc0000
fc0ff8
fc0ff8
fc0ff8
fc01f8
fc01f8
fc01f8
fc01f8
fc01f8
fc01f8
1fffc0
1fffc0
1fffc0
000000
000000
000000
000000
000000
000000
ENDCHAR
STARTCHAR H
ENCODING 72
SWIDTH 568 0
DWIDTH 24 0
BBX 24 39 0 -6
BITMAP
000000
000000
000000
fc01f8
fc01f8
fc01f8
fc01f8
fc01f8
fc01f8
fc01f8
fc01f8
fc01f8
fc01f8
fc01f8
fc01f8
fffff8
fffff8
fffff8
fc01f8
fc01f8
fc01f8
fc01f8
fc01f8
fc01f8
fc01f8
fc01f8
fc01f8
fc01f8
fc01f8
fc01f8
fc01f8
fc01f8
fc01f8
000000
000000
000000
000000
000000
000000
ENDCHAR
STARTCHAR I
ENCODING 73
SWIDTH 568 0
DWIDTH 24 0
BBX 24 39 0 -6
BITMAP
000000
000000
000000
03ffc0
03ffc0
03ffc0
007e00
007e00
007e00
007e00
007e00
007e00
007e00
007e00
007e00
007e00
007e00
007e00
007e00
007e00
007e00
007e00
007e00
007e00
007e00
007e00
007e00
007e00
007e00
007e00
03ffc0
03ffc0
03ffc0
000000
000000
000000
000000
000000
000000
ENDCHAR
STARTCHAR J
ENCODING 74
SWIDTH 568 0
DWIDTH 24 0
BBX 24 39 0 -6
BITMAP
000000
000000
000000
000ff8
000ff8
000ff8
0001f8
0001f8
0001f8
0001f8
0001f8
0001f8
0001f8
0001f8
0001f8
0001f8
0001f8
0001f8
0001f8
0001f8
0001f8
0001f8
0001f8
0001f8
fc01f8
fc01f8
fc01f8
fc01f8
fc01f8
fc01f8
1fffc0
1fffc0
1fffc0
000000
000000
000000
000000
000000
000000
ENDCHAR
STARTCHAR K
ENCODING 75
SWIDTH 568 0
DWIDTH 24 0
BBX 24 39 0 -6
BITMAP
000000
000000
000000
fc01f8
fc01f8
fc01f8
fc01f8
fc01f8
fc01f8
fc0fc0
fc0fc0
fc0fc0
fc7e00
fc7e00
fc7e00
fff000
fff000
fff000
fff000
fff000
fff000
fc7e00
fc7e00
fc7e00
fc0fc0
fc0fc0
fc0fc0
fc01f8
fc01f8
fc01f8
fc01f8
fc01f8
fc01f8
000000
000000
000000
000000
000000
000000
ENDCHAR
STARTCHAR L
ENCODING 76
SWIDTH 568 0
DWIDTH 24 0
BBX 24 39 0 -6
BITMAP
000000
000000
000000
fc0000
fc0000
fc0000
fc0000
fc0000
fc0000
fc0000
fc0000
fc0000
fc0000
fc0000
fc0000
fc0000
fc0000
fc0000
fc0000
fc0000
fc0000
fc0000
fc0000
fc0000
fc0000
fc0000
fc0000
fc0038
fc0038
fc0038
fffff8
fffff8
fffff8
000000
000000
000000
000000
000000
000000
ENDCHAR
STARTCHAR M
ENCODING 77
SWIDTH 568 0
DWIDTH 24 0
BBX 24 39 0 -6
BITMAP
000000
000000
000000
fc01f8
fc01f8
fc01f8
fc01f8
fc01f8
fc01f8
ff8ff8
ff8ff8
ff8ff8
fffff8
fffff8
fffff8
fc71f8
fc71f8
fc71f8
fc01f8
fc01f8
fc01f8
fc01f8
fc01f8
fc01f8
fc01f8
fc01f8
fc01f8
fc01f8
fc01f8
fc01f8
fc01f8
fc01f8
fc01f8
000000
000000
000000
000000
000000
000000
ENDCHAR
STARTCHAR N
ENCODING 78
SWIDTH 568 0
DWIDTH 24 0
BBX 24 39 0 -6
BITMAP
000000
000000
000000
fc01f8
fc01f8
fc01f8
fc01f8
fc01f8
fc01f8
ff81f8
ff81f8
ff81f8
ff81f8
ff81f8
ff81f8
fff1f8
fff1f8
fff1f8
fc7ff8
fc7ff8
fc7ff8
fc0ff8
fc0ff8
fc0ff8
fc0ff8
fc0ff8
fc0ff8
fc01f8
fc01f8
fc01f8
fc01f8
fc01f8
fc01f8
000000
000000
000000
000000
000000
000000
ENDCHAR
STARTCHAR O
ENCODING 79
SWIDTH 568 0
DWIDTH 24 0
BBX 24 39 0 -6
BITMAP
000000
000000
000000
1fffc0
1fffc0
1fffc0
fc01f8
fc01f8
fc01f8
fc01f8
fc01f8
fc01f8
fc01f8
fc01f8
fc01f8
fc01f8
fc01f8
fc01f8
fc01f8
fc01f8
fc01f8
fc01f8
fc01f8
fc01f8
fc01f8
fc01f8
fc01f8
fc01f8
fc01f8
fc01f8
1fffc0
1fffc0
1fffc0
000000
000000
000000
000000
000000
000000
ENDCHAR
STARTCHAR P
ENCODING 80
SWIDTH 568 0
DWIDTH 24 0
BBX 24 39 0 -6
BITMAP
000000
000000
000000
ffffc0
ffffc0
ffffc0
fc01f8
fc01f8
fc01f8
fc01f8
fc01f8
fc01f8
fc01f8
fc01f8
fc01f8
fc01f8
fc01f8
fc01f8
ffffc0
ffffc0
ffffc0
fc0000
fc0000
fc0000
fc0000
fc0000
fc0000
fc0000
fc0000
fc0000
fc0000
fc0000
fc0000
000000
000000
000000
000000
000000
000000
ENDCHAR
STARTCHAR Q
ENCODING 81
SWIDTH 568 0
DWIDTH 24 0
BBX 24 39 0 -6
BITMAP
000000
000000
000000
1fffc0
1fffc0
1fffc0
fc01f8
fc01f8
fc01f8
fc01f8
fc01f8
fc01f8
fc01f8
fc01f8
fc01f8
fc01f8
fc01f8
fc01f8
fc01f8
fc01f8
fc01f8
fc01f8
fc01f8
fc01f8
fc01f8
fc01f8
fc01f8
fc7ff8
fc7ff8
fc7ff8
1fffc0
1fffc0
1fffc0
0001f8
0001f8
0001f8
000000
000000
000000
ENDCHAR
STARTCHAR R
ENCODING 82
SWIDTH 568 0
DWIDTH 24 0
BBX 24 39 0 -6
BITMAP
000000
000000
000000
ffffc0
ffffc0
ffffc0
fc01f8
fc01f8
fc01f8
fc01f8
fc01f8
fc01f8
fc01f8
fc01f8
fc01f8
ffffc0
ffffc0
ffffc0
fffe00
fffe00
fffe00
fc0fc0
fc0fc0
fc0fc0
fc0fc0
fc0fc0
fc0fc0
fc01f8
fc01f8
fc01f8
fc01f8
fc01f8
fc01f8
000000
000000
000000
000000
000000
000000
ENDCHAR
STARTCHAR S
ENCODING 83
SWIDTH 568 0
DWIDTH 24 0
BBX 24 39 0 -6
BITMAP
000000
000000
000000
1fffc0
1fffc0
1fffc0
fc01f8
fc01f8
fc01f8
fc01f8
fc01f8
fc01f8
fc0000
fc0000
fc0000
1fffc0
1fffc0
1fffc0
0001f8
0001f8
0001f8
0001f8
0001f8
0001f8
fc01f8
fc01f8
fc01f8
fc01f8
fc01f8
fc01f8
1fffc0
1fffc0
1fffc0
000000
000000
000000
000000
000000
000000
ENDCHAR
STARTCHAR T
ENCODING 84
SWIDTH 568 0
DWIDTH 24 0
BBX 24 39 0 -6
BITMAP
000000
000000
000000
1ffff8
1ffff8
1ffff8
007e00
007e00
007e00
007e00
007e00
007e00
007e00
007e00
007e00
007e00
007e00
007e00
007e00
007e00
007e00
007e00
007e00
007e00
007e00
007e00
007e00
007e00
007e00
007e00
007e00
007e00
007e00
000000
000000
000000
000000
000000
000000
ENDCHAR
STARTCHAR U
ENCODING 85
SWIDTH 568 0
DWIDTH 24 0
BBX 24 39 0 -6
BITMAP
000000
000000
000000
fc01f8
fc01f8
fc01f8
fc01f8
fc01f8
fc01f8
fc01f8
fc01f8
fc01f8
fc01f8
fc01f8
fc01f8
fc01f8
fc01f8
fc01f8
fc01f8
fc01f8
fc01f8
fc01f8
fc01f8
fc01f8
fc01f8
fc01f8
fc01f8
fc01f8
fc01f8
fc01f8
1fffc0
1fffc0
1fffc0
000000
000000
000000
000000
000000
000000
ENDCHAR
STARTCHAR V
ENCODING 86
SWIDTH 568 0
DWIDTH 24 0
BBX 24 39 0 -6
BITMAP
000000
000000
000000
fc01f8
fc01f8
fc01f8
fc01f8
fc01f8
fc01f8
fc01f8
fc01f8
fc01f8
fc01f8
fc01f8
fc01f8
1c01c0
1c01c0
1c01c0
1f8fc0
1f8fc0
1f8fc0
1f8fc0
1f8fc0
1f8fc0
03fe00
03fe00
03fe00
03fe00
03fe00
03fe00
007000
007000
007000
000000
000000
000000
000000
000000
000000
ENDCHAR
STARTCHAR W
ENCODING 87
SWIDTH 568 0
DWIDTH 24 0
BBX 24 39 0 -6
BITMAP
000000
000000
000000
fc01f8
fc01f8
fc01f8
fc01f8
fc01f8
fc01f8
fc01f8
fc01f8
fc01f8
fc01f8
fc01f8
fc01f8
fc01f8
fc01f8
fc01f8
fc01f8
fc01f8
fc01f8
fc71f8
fc71f8
fc71f8
fc71f8
fc71f8
fc71f8
fffff8
fffff8
fffff8
1f8fc0
1f8fc0
1f8fc0
000000
000000
000000
000000
000000
000000
ENDCHAR
STARTCHAR X
ENCODING 88
SWIDTH 568 0
DWIDTH 24 0
BBX 24 39 0 -6
BITMAP
000000
000000
000000
fc01f8
fc01f8
fc01f8
fc01f8
fc01f8
fc01f8
1f8fc0
1f8fc0
1f8fc0
1f8fc0
1f8fc0
1f8fc0
03fe00
03fe00
03fe00
03fe00
03fe00
03fe00
1f8fc0
1f8fc0
1f8fc0
1f8fc0
1f8fc0
1f8fc0
fc01f8
fc01f8
fc01f8
fc01f8
fc01f8
fc01f8
000000
000000
000000
000000
000000
000000
ENDCHAR
STARTCHAR Y
ENCODING 89
SWIDTH 568 0
DWIDTH 24 0
BBX 24 39 0 -6
BITMAP
000000
000000
000000
1f81f8
1f81f8
1f81f8
1f81f8
1f81f8
1f81f8
1f81f8
1f81f8
1f81f8
03ffc0
03ffc0
03ffc0
03ffc0
03ffc0
03ffc0
007e00
007e00
007e00
007e00
007e00
007e00
007e00
007e00
007e00
007e00
007e00
007e00
007e00
007e00
007e00
000000
000000
000000
000000
000000
000000
ENDCHAR
STARTCHAR Z
ENCODING 90
SWIDTH 568 0
DWIDTH 24 0
BBX 24 39 0 -6
BITMAP
000000
000000
000000
fffff8
fffff8
fffff8
0001f8
0001f8
0001f8
0001f8
0001f8
0001f8
000fc0
000fc0
000fc0
007e00
007e00
007e00
03f000
03f000
03f000
1f8000
1f8000
1f8000
fc0000
fc0000
fc0000
fc0000
fc0000
fc0000
fffff8
fffff8
fffff8
000000
000000
000000
000000
000000
000000
ENDCHAR
STARTCHAR bracketleft
ENCODING 91
SWIDTH 568 0
DWIDTH 24 0
BBX 24 39 0 -6
BITMAP
000000
000000
000000
1fffc0
1fffc0
1fffc0
1f8000
1f8000
1f8000
1f8000
1f8000
1f8000
1f8000
1f8000
1f8000
1f8000
1f8000
1f8000
1f8000
1f8000
1f8000
1f8000
1f8000
1f8000
1f8000
1f8000
1f8000
1f8000
1f8000
1f8000
1f8000
1f8000
1f8000
1fffc0
1fffc0
1fffc0
000000
000000
000000
ENDCHAR
STARTCHAR backslash
ENCODING 92
SWIDTH 568 0
DWIDTH 24 0
BBX 24 39 0 -6
BITMAP
000000
000000
000000
e00000
e00000
e00000
fc0000
fc0000
fc0000
fc0000
fc0000
fc0000
1f8000
1f8000
1f8000
03f000
03f000
03f000
007e00
007e00
007e00
000fc0
000fc0
000fc0
0001f8
0001f8
0001f8
0001f8
0001f8
0001f8
000038
000038
000038
000000
000000
000000
000000
000000
000000
ENDCHAR
STARTCHAR bracketright
ENCODING 93
SWIDTH 568 0
DWIDTH 24 0
BBX 24 39 0 -6
BITMAP
000000
000000
000000
1fffc0
1fffc0
1fffc0
000fc0
000fc0
000fc0
000fc0
000fc0
000fc0
000fc0
000fc0
000fc0
000fc0
000fc0
000fc0
000fc0
000fc0
000fc0
000fc0
000fc0
000fc0
000fc0
000fc0
000fc0
000fc0
000fc0
000fc0
000fc0
000fc0
000fc0
1fffc0
1fffc0
1fffc0
000000
000000
000000
ENDCHAR
STARTCHAR asciicircum
ENCODING 94
SWIDTH 568 0
DWIDTH 24 0
BBX 24 39 0 -6
BITMAP
000000
000000
000000
007000
007000
007000
03fe00
03fe00
03fe00
1f8fc0
1f8fc0
1f8fc0
fc01f8
fc01f8
fc01f8
000000
000000
000000
000000
000000
000000
000000
000000
000000
000000
000000
000000
000000
000000
000000
000000
000000
000000
000000
000000
000000
000000
000000
000000
ENDCHAR
STARTCHAR underscore
ENCODING 95
SWIDTH 568 0
DWIDTH 24 0
BBX 24 39 0 -6
BITMAP
000000
000000
000000
000000
000000
000000
000000
000000
000000
000000
000000
000000
000000
000000
000000
000000
000000
000000
000000
000000
000000
000000
000000
000000
000000
000000
000000
000000
000000
000000
000000
000000
000000
fffff8
fffff8
fffff8
000000
000000
000000
ENDCHAR
STARTCHAR grave
ENCODING 96
SWIDTH 568 0
DWIDTH 24 0
BBX 24 39 0 -6
BITMAP
000000
000000
000000
03f000
03f000
03f000
007e00
007e00
007e00
000fc0
000fc0
000fc0
000000
000000
000000
000000
000000
000000
000000
000000
000000
000000
000000
000000
000000
000000
000000
000000
000000
000000
000000
000000
000000
000000
000000
000000
000000
000000
000000
ENDCHAR
STARTCHAR a
ENCODING 97
SWIDTH 568 0
DWIDTH 24 0
BBX 24 39 0 -6
BITMAP
000000
000000
000000
000000
000000
000000
000000
000000
000000
000000
000000
000000
1fffc0
1fffc0
1fffc0
0001f8
0001f8
0001f8
1ffff8
1ffff8
1ffff8
fc01f8
fc01f8
fc01f8
fc01f8
fc01f8
fc01f8
fc0ff8
fc0ff8
fc0ff8
1ff1f8
1ff1f8
1ff1f8
000000
000000
000000
000000
000000
000000
ENDCHAR
STARTCHAR b
ENCODING 98
SWIDTH 568 0
DWIDTH 24 0
BBX 24 39 0 -6
BITMAP
000000
000000
000000
fc0000
fc0000
fc0000
fc0000
fc0000
fc0000
fc0000
fc0000
fc0000
fc7fc0
fc7fc0
fc7fc0
ff81f8
ff81f8
ff81f8
fc01f8
fc01f8
fc01f8
fc01f8
fc01f8
fc01f8
fc01f8
fc01f8
fc01f8
ff81f8
ff81f8
ff81f8
fc7fc0
fc7fc0
fc7fc0
000000
000000
000000
000000
000000
000000
ENDCHAR
STARTCHAR c
ENCODING 99
SWIDTH 568 0
DWIDTH 24 0
BBX 24 39 0 -6
BITMAP
000000
000000
000000
000000
000000
000000
000000
000000
000000
000000
000000
000000
1fffc0
1fffc0
1fffc0
ff81f8
ff81f8
ff81f8
fc0000
fc0000
fc0000
fc0000
fc0000
fc0000
fc0000
fc0000
fc0000
ff81f8
ff81f8
ff81f8
1fffc0
1fffc0
1fffc0
000000
000000
000000
000000
000000
000000
ENDCHAR
STARTCHAR d
ENCODING 100
SWIDTH 568 0
DWIDTH 24 0
BBX 24 39 0 -6
BITMAP
000000
000000
000000
0001f8
0001f8
0001f8
0001f8
0001f8
0001f8
0001f8
0001f8
0001f8
1ff1f8
1ff1f8
1ff1f8
fc0ff8
fc0ff8
fc0ff8
fc01f8
fc01f8
fc01f8
fc01f8
fc01f8
fc01f8
fc01f8
fc01f8
fc01f8
fc0ff8
fc0ff8
fc0ff8
1ff1f8
1ff1f8
1ff1f8
000000
000000
000000
000000
000000
000000
ENDCHAR
STARTCHAR e
ENCODING 101
SWIDTH 568 0
DWIDTH 24 0
BBX 24 39 0 -6
BITMAP
000000
000000
000000
000000
000000
000000
000000
000000
000000
000000
000000
000000
1fffc0
1fffc0
1fffc0
fc01f8
fc01f8
fc01f8
fc01f8
fc01f8
fc01f8
fffff8
fffff8
fffff8
fc0000
fc0000
fc0000
fc01f8
fc01f8
fc01f8
1fffc0
1fffc0
1fffc0
000000
000000
000000
000000
000000
000000
ENDCHAR
STARTCHAR f
ENCODING 102
SWIDTH 568 0
DWIDTH 24 0
BBX 24 39 0 -6
BITMAP
000000
000000
000000
03ffc0
03ffc0
03ffc0
1f81f8
1f81f8
1f81f8
1f8000
1f8000
1f8000
1f8000
1f8000
1f8000
1f8000
1f8000
1f8000
ffffc0
ffffc0
ffffc0
1f8000
1f8000
1f8000
1f8000
1f8000
1f8000
1f8000
1f8000
1f8000
1f8000
1f8000
1f8000
000000
000000
000000
000000
000000
000000
ENDCHAR
STARTCHAR g
ENCODING 103
SWIDTH 568 0
DWIDTH 24 0
BBX 24 39 0 -6
BITMAP
000000
000000
000000
000000
000000
000000
000000
000000
000000
000000
000000
000000
1ffff8
1ffff8
1ffff8
fc0fc0
fc0fc0
fc0fc0
fc0fc0
fc0fc0
fc0fc0
fc0fc0
fc0fc0
fc0fc0
1ffe00
1ffe00
1ffe00
fff000
fff000
fff000
1fffc0
1fffc0
1fffc0
fc01f8
fc01f8
fc01f8
1fffc0
1fffc0
1fffc0
ENDCHAR
STARTCHAR h
ENCODING 104
SWIDTH 568 0
DWIDTH 24 0
BBX 24 39 0 -6
BITMAP
000000
000000
000000
fc0000
fc0000
fc0000
fc0000
fc0000
fc0000
fc0000
fc0000
fc0000
fc7fc0
fc7fc0
fc7fc0
ff81f8
ff81f8
ff81f8
fc01f8
fc01f8
fc01f8
fc01f8
fc01f8
fc01f8
fc01f8
fc01f8
fc01f8
fc01f8
fc01f8
fc01f8
fc01f8
fc01f8
fc01f8
000000
000000
000000
000000
000000
000000
ENDCHAR
STARTCHAR i
ENCODING 105
SWIDTH 568 0
DWIDTH 24 0
BBX 24 39 0 -6
BITMAP
000000
000000
000000
000000
000000
000000
007e00
007e00
007e00
007e00
007e00
007e00
000000
000000
000000
03fe00
03fe00
03fe00
007e00
007e00
007e00
007e00
007e00
007e00
007e00
007e00
007e00
007e00
007e00
007e00
03ffc0
03ffc0
03ffc0
000000
000000
000000
000000
000000
000000
ENDCHAR
STARTCHAR j
ENCODING 106
SWIDTH 568 0
DWIDTH 24 0
BBX 24 39 0 -6
BITMAP
000000
000000
000000
000000
000000
000000
0001f8
0001f8
0001f8
0001f8
0001f8
0001f8
000000
000000
000000
000ff8
000ff8
000ff8
0001f8
0001f8
0001f8
0001f8
0001f8
0001f8
0001f8
0001f8
0001f8
0001f8
0001f8
0001f8
fc01f8
fc01f8
fc01f8
fc01f8
fc01f8
fc01f8
1fffc0
1fffc0
1fffc0
ENDCHAR
STARTCHAR k
ENCODING 107
SWIDTH 568 0
DWIDTH 24 0
BBX 24 39 0 -6
BITMAP
000000
000000
000000
fc0000
fc0000
fc0000
fc0000
fc0000
fc0000
fc0000
fc0000
fc0000
fc0fc0
fc0fc0
fc0fc0
fc7e00
fc7e00
fc7e00
fff000
fff000
fff000
fff000
fff000
fff000
fc7e00
fc7e00
fc7e00
fc0fc0
fc0fc0
fc0fc0
fc01f8
fc01f8
fc01f8
000000
000000
000000
000000
000000
000000
ENDCHAR
STARTCHAR l
ENCODING 108
SWIDTH 568 0
DWIDTH 24 0
BBX 24 39 0 -6
BITMAP
000000
000000
000000
03fe00
03fe00
03fe00
007e00
007e00
007e00
007e00
007e00
007e00
007e00
007e00
007e00
007e00
007e00
007e00
007e00
007e00
007e00
007e00
007e00
007e00
007e00
007e00
007e00
007e00
007e00
007e00
03ffc0
03ffc0
03ffc0
000000
000000
000000
000000
000000
000000
ENDCHAR
STARTCHAR m
ENCODING 109
SWIDTH 568 0
DWIDTH 24 0
BBX 24 39 0 -6
BITMAP
000000
000000
000000
000000
000000
000000
000000
000000
000000
000000
000000
000000
1f8fc0
1f8fc0
1f8fc0
fffff8
fffff8
fffff8
fc71f8
fc71f8
fc71f8
fc71f8
fc71f8
fc71f8
fc01f8
fc01f8
fc01f8
fc01f8
fc01f8
fc01f8
fc01f8
fc01f8
fc01f8
000000
000000
000000
000000
000000
000000
ENDCHAR
STARTCHAR n
ENCODING 110
SWIDTH 568 0
DWIDTH 24 0
BBX 24 39 0 -6
BITMAP
000000
000000
000000
000000
000000
000000
000000
000000
000000
000000
000000
000000
fc7fc0
fc7fc0
fc7fc0
ff81f8
ff81f8
ff81f8
fc01f8
fc01f8
fc01f8
fc01f8
fc01f8
fc01f8
fc01f8
fc01f8
fc01f8
fc01f8
fc01f8
fc01f8
fc01f8
fc01f8
fc01f8
000000
000000
000000
000000
000000
000000
ENDCHAR
STARTCHAR o
ENCODING 111
SWIDTH 568 0
DWIDTH 24 0
BBX 24 39 0 -6
BITMAP
000000
000000
000000
000000
000000
000000
000000
000000
000000
000000
000000
000000
1fffc0
1fffc0
1fffc0
fc01f8
fc01f8
fc01f8
fc01f8
fc01f8
fc01f8
fc01f8
fc01f8
fc01f8
fc01f8
fc01f8
fc01f8
fc01f8
fc01f8
fc01f8
1fffc0
1fffc0
1fffc0
000000
000000
000000
000000
000000
000000
ENDCHAR
STARTCHAR p
ENCODING 112
SWIDTH 568 0
DWIDTH 24 0
BBX 24 39 0 -6
BITMAP
000000
000000
000000
000000
000000
000000
000000
000000
000000
000000
000000
000000
fc7fc0
fc7fc0
fc7fc0
ff81f8
ff81f8
ff81f8
fc01f8
fc01f8
fc01f8
fc01f8
fc01f8
fc01f8
fc01f8
fc01f8
fc01f8
ff81f8
ff81f8
ff81f8
fc7fc0
fc7fc0
fc7fc0
fc0000
fc0000
fc0000
fc0000
fc0000
fc0000
ENDCHAR
STARTCHAR q
ENCODING 113
SWIDTH 568 0
DWIDTH 24 0
BBX 24 39 0 -6
BITMAP
000000
000000
000000
000000
000000
000000
000000
000000
000000
000000
000000
000000
1ff1f8
1ff1f8
1ff1f8
fc0ff8
fc0ff8
fc0ff8
fc01f8
fc01f8
fc01f8
fc01f8
fc01f8
fc01f8
fc01f8
fc01f8
fc01f8
fc0ff8
fc0ff8
fc0ff8
1ff1f8
1ff1f8
1ff1f8
0001f8
0001f8
0001f8
0001f8
0001f8
0001f8
ENDCHAR
STARTCHAR r
ENCODING 114
SWIDTH 568 0
DWIDTH 24 0
BBX 24 39 0 -6
BITMAP
000000
000000
000000
000000
000000
000000
000000
000000
000000
000000
000000
000000
fc7fc0
fc7fc0
fc7fc0
ff81f8
ff81f8
ff81f8
fc0000
fc0000
fc0000
fc0000
fc0000
fc0000
fc0000
fc0000
fc0000
fc0000
fc0000
fc0000
fc0000
fc0000
fc0000
000000
000000
000000
000000
000000
000000
ENDCHAR
STARTCHAR s
ENCODING 115
SWIDTH 568 0
DWIDTH 24 0
BBX 24 39 0 -6
BITMAP
000000
000000
000000
000000
000000
000000
000000
000000
000000
000000
000000
000000
1fffc0
1fffc0
1fffc0
fc01f8
fc01f8
fc01f8
1f8000
1f8000
1f8000
03fe00
03fe00
03fe00
000fc0
000fc0
000fc0
fc01f8
fc01f8
fc01f8
1fffc0
1fffc0
1fffc0
000000
000000
000000
000000
000000
000000
ENDCHAR
STARTCHAR t
ENCODING 116
SWIDTH 568 0
DWIDTH 24 0
BBX 24 39 0 -6
BITMAP
000000
000000
000000
1f8000
1f8000
1f8000
1f8000
1f8000
1f8000
1f8000
1f8000
1f8000
1f8000
1f8000
1f8000
ffffc0
ffffc0
ffffc0
1f8000
1f8000
1f8000
1f8000
1f8000
1f8000
1f8000
1f8000
1f8000
1f81f8
1f81f8
1f81f8
03ffc0
03ffc0
03ffc0
000000
000000
000000
000000
000000
000000
ENDCHAR
STARTCHAR u
ENCODING 117
SWIDTH 568 0
DWIDTH 24 0
BBX 24 39 0 -6
BITMAP
000000
000000
000000
000000
000000
000000
000000
000000
000000
000000
000000
000000
fc01f8
fc01f8
fc01f8
fc01f8
fc01f8
fc01f8
fc01f8
fc01f8
fc01f8
fc01f8
fc01f8
fc01f8
fc01f8
fc01f8
fc01f8
fc0ff8
fc0ff8
fc0ff8
1ff1f8
1ff1f8
1ff1f8
000000
000000
000000
000000
000000
000000
ENDCHAR
STARTCHAR v
ENCODING 118
SWIDTH 568 0
DWIDTH 24 0
BBX 24 39 0 -6
BITMAP
000000
000000
000000
000000
000000
000000
000000
000000
000000
000000
000000
000000
fc01f8
fc01f8
fc01f8
fc01f8
fc01f8
fc01f8
fc01f8
fc01f8
fc01f8
fc01f8
fc01f8
fc01f8
1f8fc0
1f8fc0
1f8fc0
1f8fc0
1f8fc0
1f8fc0
03fe00
03fe00
03fe00
000000
000000
000000
000000
000000
000000
ENDCHAR
STARTCHAR w
ENCODING 119
SWIDTH 568 0
DWIDTH 24 0
BBX 24 39 0 -6
BITMAP
000000
000000
000000
000000
000000
000000
000000
000000
000000
000000
000000
000000
fc01f8
fc01f8
fc01f8
fc01f8
fc01f8
fc01f8
fc01f8
fc01f8
fc01f8
fc71f8
fc71f8
fc71f8
fc71f8
fc71f8
fc71f8
fffff8
fffff8
fffff8
1f8fc0
1f8fc0
1f8fc0
000000
000000
000000
000000
000000
000000
ENDCHAR
STARTCHAR x
ENCODING 120
SWIDTH 568 0
DWIDTH 24 0
BBX 24 39 0 -6
BITMAP
000000
000000
000000
000000
000000
000000
000000
000000
000000
000000
000000
000000
fc01f8
fc01f8
fc01f8
fc01f8
fc01f8
fc01f8
1f8fc0
1f8fc0
1f8fc0
03fe00
03fe00
03fe00
1f8fc0
1f8fc0
1f8fc0
fc01f8
fc01f8
fc01f8
fc01f8
fc01f8
fc01f8
000000
000000
000000
000000
000000
000000
ENDCHAR
STARTCHAR y
ENCODING 121
SWIDTH 568 0
DWIDTH 24 0
BBX 24 39 0 -6
BITMAP
000000
000000
000000
000000
000000
000000
000000
000000
000000
000000
000000
000000
fc01f8
fc01f8
fc01f8
fc01f8
fc01f8
fc01f8
fc01f8
fc01f8
fc01f8
fc01f8
fc01f8
fc01f8
fc0ff8
fc0ff8
fc0ff8
1ff1f8
1ff1f8
1ff1f8
0001f8
0001f8
0001f8
fc01f8
fc01f8
fc01f8
1fffc0
1fffc0
1fffc0
ENDCHAR
STARTCHAR z
ENCODING 122
SWIDTH 568 0
DWIDTH 24 0
BBX 24 39 0 -6
BITMAP
000000
000000
000000
000000
000000
000000
000000
000000
000000
000000
000000
000000
fffff8
fffff8
fffff8
000fc0
000fc0
000fc0
007e00
007e00
007e00
03f000
03f000
03f000
1f8000
1f8000
1f8000
fc0000
fc0000
fc0000
fffff8
fffff8
fffff8
000000
000000
000000
000000
000000
000000
ENDCHAR
STARTCHAR braceleft
ENCODING 123
SWIDTH 568 0
DWIDTH 24 0
BBX 24 39 0 -6
BITMAP
000000
000000
000000
007ff8
007ff8
007ff8
03f000
03f000
03f000
03f000
03f000
03f000
03f000
03f000
03f000
007e00
007e00
007e00
1ff000
1ff000
1ff000
007e00
007e00
007e00
03f000
03f000
03f000
03f000
03f000
03f000
03f000
03f000
03f000
007ff8
007ff8
007ff8
000000
000000
000000
ENDCHAR
STARTCHAR bar
ENCODING 124
SWIDTH 568 0
DWIDTH 24 0
BBX 24 39 0 -6
BITMAP
000000
000000
000000
007e00
007e00
007e00
007e00
007e00
007e00
007e00
007e00
007e00
007e00
007e00
007e00
007e00
007e00
007e00
007e00
007e00
007e00
007e00
007e00
007e00
007e00
007e00
007e00
007e00
007e00
007e00
007e00
007e00
007e00
000000
000000
000000
000000
000000
000000
ENDCHAR
STARTCHAR braceright
ENCODING 125
SWIDTH 568 0
DWIDTH 24 0
BBX 24 39 0 -6
BITMAP
000000
000000
000000
1ffe00
1ffe00
1ffe00
000fc0
000fc0
000fc0
000fc0
000fc0
000fc0
000fc0
000fc0
000fc0
007e00
007e00
007e00
000ff8
000ff8
000ff8
007e00
007e00
007e00
000fc0
000fc0
000fc0
000fc0
000fc0
000fc0
000fc0
000fc0
000fc0
1ffe00
1ffe00
1ffe00
000000
000000
000000
ENDCHAR
STARTCHAR asciitilde
ENCODING 126
SWIDTH 568 0
DWIDTH 24 0
BBX 24 39 0 -6
BITMAP
000000
000000
000000
000000
000000
000000
1ff038
1ff038
1ff038
fffff8
fffff8
fffff8
e07fc0
e07fc0
e07fc0
000000
000000
000000
000000
000000
000000
000000
000000
000000
000000
000000
000000
000000
000000
000000
000000
000000
000000
000000
000000
000000
000000
000000
000000
ENDCHAR
STARTCHAR space
ENCODING 160
SWIDTH 568 0
DWIDTH 24 0
BBX 24 39 0 -6
BITMAP
000000
000000
000000
000000
000000
000000
000000
000000
000000
000000
000000
000000
000000
000000
000000
000000
000000
000000
000000
000000
000000
000000
000000
000000
000000
000000
000000
000000
000000
000000
000000
000000
000000
000000
000000
000000
000000
000000
000000
ENDCHAR
STARTCHAR exclamdown
ENCODING 161
SWIDTH 568 0
DWIDTH 24 0
BBX 24 39 0 -6
BITMAP
000000
000000
000000
007e00
007e00
007e00
007e00
007e00
007e00
000000
000000
000000
007e00
007e00
007e00
007e00
007e00
007e00
007e00
007e00
007e00
007e00
007e00
007e00
007e00
007e00
007e00
007e00
007e00
007e00
007e00
007e00
007e00
000000
000000
000000
000000
000000
000000
ENDCHAR
STARTCHAR cent
ENCODING 162
SWIDTH 568 0
DWIDTH 24 0
BBX 24 39 0 -6
BITMAP
000000
000000
000000
000000
000000
000000
007000
007000
007000
1fffc0
1fffc0
1fffc0
fc71c0
fc71c0
fc71c0
fc7000
fc7000
fc7000
fc7000
fc7000
fc7000
fc71c0
fc71c0
fc71c0
1fffc0
1fffc0
1fffc0
007000
007000
007000
000000
000000
000000
000000
000000
000000
000000
000000
000000
ENDCHAR
STARTCHAR sterling
ENCODING 163
SWIDTH 568 0
DWIDTH 24 0
BBX 24 39 0 -6
BITMAP
000000
000000
000000
03ffc0
03ffc0
03ffc0
1f81f8
1f81f8
1f81f8
1f8000
1f8000
1f8000
1f8000
1f8000
1f8000
ffffc0
ffffc0
ffffc0
1f8000
1f8000
1f8000
1f8000
1f8000
1f8000
1f8000
1f8000
1f8000
fff000
fff000
fff000
e3fff8
e3fff8
e3fff8
ff8000
ff8000
ff8000
000000
000000
000000
ENDCHAR
STARTCHAR currency
ENCODING 164
SWIDTH 568 0
DWIDTH 24 0
BBX 24 39 0 -6
BITMAP
000000
000000
000000
000000
000000
000000
000000
000000
000000
fc01f8
fc01f8
fc01f8
fffff8
fffff8
fffff8
1f8fc0
1f8fc0
1f8fc0
1c01c0
1c01c0
1c01c0
1f8fc0
1f8fc0
1f8fc0
fffff8
fffff8
fffff8
fc01f8
fc01f8
fc01f8
000000
000000
000000
000000
000000
000000
000000
000000
000000
ENDCHAR
STARTCHAR yen
ENCODING 165
SWIDTH 568 0
DWIDTH 24 0
BBX 24 39 0 -6
BITMAP
000000
000000
000000
1f81f8
1f81f8
1f81f8
1f81f8
1f81f8
1f81f8
1f81f8
1f81f8
1f81f8
03ffc0
03ffc0
03ffc0
03ffc0
03ffc0
03ffc0
1ffff8
1ffff8
1ffff8
007e00
007e00
007e00
1ffff8
1ffff8
1ffff8
007e00
007e00
007e00
007e00
007e00
007e00
000000
000000
000000
000000
000000
000000
ENDCHAR
STARTCHAR brokenbar
ENCODING 166
SWIDTH 568 0
DWIDTH 24 0
BBX 24 39 0 -6
BITMAP
000000
000000
000000
007e00
007e00
007e00
007e00
007e00
007e00
007e00
007e00
007e00
007e00
007e00
007e00
000000
000000
000000
000000
000000
000000
007e00
007e00
007e00
007e00
007e00
007e00
007e00
007e00
007e00
007e00
007e00
007e00
000000
000000
000000
000000
000000
000000
ENDCHAR
STARTCHAR section
ENCODING 167
SWIDTH 568 0
DWIDTH 24 0
BBX 24 39 0 -6
BITMAP
000000
000000
000000
03ffc0
03ffc0
03ffc0
1f81f8
1f81f8
1f81f8
1f8000
1f8000
1f8000
03ffc0
03ffc0
03ffc0
1f81f8
1f81f8
1f81f8
1f81f8
1f81f8
1f81f8
03ffc0
03ffc0
03ffc0
0001f8
0001f8
0001f8
1f81f8
1f81f8
1f81f8
03ffc0
03ffc0
03ffc0
000000
000000
000000
000000
000000
000000
ENDCHAR
STARTCHAR dieresis
ENCODING 168
SWIDTH 568 0
DWIDTH 24 0
BBX 24 39 0 -6
BITMAP
000000
000000
000000
1f8fc0
1f8fc0
1f8fc0
1f8fc0
1f8fc0
1f8fc0
000000
000000
000000
000000
000000
000000
000000
000000
000000
000000
000000
000000
000000
000000
000000
000000
000000
000000
000000
000000
000000
000000
000000
000000
000000
000000
000000
000000
000000
000000
ENDCHAR
STARTCHAR copyright
ENCODING 169
SWIDTH 568 0
DWIDTH 24 0
BBX 24 39 0 -6
BITMAP
000000
000000
000000
1fffc0
1fffc0
1fffc0
fc01f8
fc01f8
fc01f8
e3fe38
e3fe38
e3fe38
ff8e38
ff8e38
ff8e38
ff8038
ff8038
ff8038
ff8e38
ff8e38
ff8e38
e3fe38
e3fe38
e3fe38
fc01f8
fc01f8
fc01f8
1fffc0
1fffc0
1fffc0
000000
000000
000000
000000
000000
000000
000000
000000
000000
ENDCHAR
STARTCHAR ordfeminine
ENCODING 170
SWIDTH 568 0
DWIDTH 24 0
BBX 24 39 0 -6
BITMAP
000000
000000
000000
1ffe00
1ffe00
1ffe00
000fc0
000fc0
000fc0
1fffc0
1fffc0
1fffc0
1c0fc0
1c0fc0
1c0fc0
1fffc0
1fffc0
1fffc0
000000
000000
000000
1fffc0
1fffc0
1fffc0
000000
000000
000000
000000
000000
000000
000000
000000
000000
000000
000000
000000
000000
000000
000000
ENDCHAR
STARTCHAR guillemotleft
ENCODING 171
SWIDTH 568 0
DWIDTH 24 0
BBX 24 39 0 -6
BITMAP
000000
000000
000000
000000
000000
000000
000000
000000
000000
03f1f8
03f1f8
03f1f8
1f8fc0
1f8fc0
1f8fc0
fc7e00
fc7e00
fc7e00
e3f000
e3f000
e3f000
fc7e00
fc7e00
fc7e00
1f8fc0
1f8fc0
1f8fc0
03f1f8
03f1f8
03f1f8
000000
000000
000000
000000
000000
000000
000000
000000
000000
ENDCHAR
STARTCHAR logicalnot
ENCODING 172
SWIDTH 568 0
DWIDTH 24 0
BBX 24 39 0 -6
BITMAP
000000
000000
000000
000000
000000
000000
000000
000000
000000
000000
000000
000000
000000
000000
000000
ffffc0
ffffc0
ffffc0
ffffc0
ffffc0
ffffc0
0001c0
0001c0
0001c0
0001c0
0001c0
0001c0
0001c0
0001c0
0001c0
000000
000000
000000
000000
000000
000000
000000
000000
000000
ENDCHAR
STARTCHAR hyphen
ENCODING 173
SWIDTH 568 0
DWIDTH 24 0
BBX 24 39 0 -6
BITMAP
000000
000000
000000
000000
000000
000000
000000
000000
000000
000000
000000
000000
000000
000000
000000
000000
000000
000000
1fffc0
1fffc0
1fffc0
000000
000000
000000
000000
000000
000000
000000
000000
000000
000000
000000
000000
000000
000000
000000
000000
000000
000000
ENDCHAR
STARTCHAR registered
ENCODING 174
SWIDTH 568 0
DWIDTH 24 0
BBX 24 39 0 -6
BITMAP
000000
000000
000000
1fffc0
1fffc0
1fffc0
fc01f8
fc01f8
fc01f8
e3fe38
e3fe38
e3fe38
e38e38
e38e38
e38e38
e3fe38
e3fe38
e3fe38
e3f038
e3f038
e3f038
e38e38
e38e38
e38e38
fc01f8
fc01f8
fc01f8
1fffc0
1fffc0
1fffc0
000000
000000
000000
000000
000000
000000
000000
000000
000000
ENDCHAR
STARTCHAR macron
ENCODING 175
SWIDTH 568 0
DWIDTH 24 0
BBX 24 39 0 -6
BITMAP
1ffff8
1ffff8
1ffff8
000000
000000
000000
000000
000000
000000
000000
000000
000000
000000
000000
000000
000000
000000
000000
000000
000000
000000
000000
000000
000000
000000
000000
000000
000000
000000
000000
000000
000000
000000
000000
000000
000000
000000
000000
000000
ENDCHAR
STARTCHAR degree
ENCODING 176
SWIDTH 568 0
DWIDTH 24 0
BBX 24 39 0 -6
BITMAP
000000
000000
000000
03ffc0
03ffc0
03ffc0
1f81f8
1f81f8
1f81f8
1f81f8
1f81f8
1f81f8
03ffc0
03ffc0
03ffc0
000000
000000
000000
000000
000000
000000
000000
000000
000000
000000
000000
000000
000000
000000
000000
000000
000000
000000
000000
000000
000000
000000
000000
000000
ENDCHAR
STARTCHAR plusminus
ENCODING 177
SWIDTH 568 0
DWIDTH 24 0
BBX 24 39 0 -6
BITMAP
000000
000000
000000
000000
000000
000000
000000
000000
000000
007e00
007e00
007e00
007e00
007e00
007e00
1ffff8
1ffff8
1ffff8
007e00
007e00
007e00
007e00
007e00
007e00
000000
000000
000000
1ffff8
1ffff8
1ffff8
000000
000000
000000
000000
000000
000000
000000
000000
000000
ENDCHAR
STARTCHAR twosuperior
ENCODING 178
SWIDTH 568 0
DWIDTH 24 0
BBX 24 39 0 -6
BITMAP
000000
000000
000000
1ff000
1ff000
1ff000
1c7e00
1c7e00
1c7e00
007e00
007e00
007e00
03f000
03f000
03f000
1f8000
1f8000
1f8000
1ffe00
1ffe00
1ffe00
000000
000000
000000
000000
000000
000000
000000
000000
000000
000000
000000
000000
000000
000000
000000
000000
000000
000000
ENDCHAR
STARTCHAR threesuperior
ENCODING 179
SWIDTH 568 0
DWIDTH 24 0
BBX 24 39 0 -6
BITMAP
000000
000000
000000
1ff000
1ff000
1ff000
1c7e00
1c7e00
1c7e00
03f000
03f000
03f000
007e00
007e00
007e00
1c7e00
1c7e00
1c7e00
1ff000
1ff000
1ff000
000000
000000
000000
000000
000000
000000
000000
000000
000000
000000
000000
000000
000000
000000
000000
000000
000000
000000
ENDCHAR
STARTCHAR acute
ENCODING 180
SWIDTH 568 0
DWIDTH 24 0
BBX 24 39 0 -6
BITMAP
000000
000000
000000
000fc0
000fc0
000fc0
007e00
007e00
007e00
03f000
03f000
03f000
000000
000000
000000
000000
000000
000000
000000
000000
000000
000000
000000
000000
000000
000000
000000
000000
000000
000000
000000
000000
000000
000000
000000
000000
000000
000000
000000
ENDCHAR
STARTCHAR mu
ENCODING 181
SWIDTH 568 0
DWIDTH 24 0
BBX 24 39 0 -6
BITMAP
000000
000000
000000
000000
000000
000000
000000
000000
000000
000000
000000
000000
fc01f8
fc01f8
fc01f8
fc01f8
fc01f8
fc01f8
fc01f8
fc01f8
fc01f8
fc01f8
fc01f8
fc01f8
fc01f8
fc01f8
fc01f8
ff8ff8
ff8ff8
ff8ff8
ffffc0
ffffc0
ffffc0
fc0000
fc0000
fc0000
fc0000
fc0000
fc0000
ENDCHAR
STARTCHAR paragraph
ENCODING 182
SWIDTH 568 0
DWIDTH 24 0
BBX 24 39 0 -6
BITMAP
000000
000000
000000
03fff8
03fff8
03fff8
1ffe38
1ffe38
1ffe38
fc0e38
fc0e38
fc0e38
fc0e38
fc0e38
fc0e38
fc0e38
fc0e38
fc0e38
1ffe38
1ffe38
1ffe38
03fe38
03fe38
03fe38
000e38
000e38
000e38
000e38
000e38
000e38
000e38
000e38
000e38
000ff8
000ff8
000ff8
000000
000000
000000
ENDCHAR
STARTCHAR periodcentered
ENCODING 183
SWIDTH 568 0
DWIDTH 24 0
BBX 24 39 0 -6
BITMAP
000000
000000
000000
000000
000000
000000
000000
000000
000000
000000
000000
000000
000000
000000
000000
007e00
007e00
007e00
007e00
007e00
007e00
000000
000000
000000
000000
000000
000000
000000
000000
000000
000000
000000
000000
000000
000000
000000
000000
000000
000000
ENDCHAR
STARTCHAR cedilla
ENCODING 184
SWIDTH 568 0
DWIDTH 24 0
BBX 24 39 0 -6
BITMAP
000000
000000
000000
000000
000000
000000
000000
000000
000000
000000
000000
000000
000000
000000
000000
000000
000000
000000
000000
000000
000000
000000
000000
000000
000000
000000
000000
000000
000000
000000
007e00
007e00
007e00
1c0e00
1c0e00
1c0e00
03f000
03f000
03f000
ENDCHAR
STARTCHAR onesuperior
ENCODING 185
SWIDTH 568 0
DWIDTH 24 0
BBX 24 39 0 -6
BITMAP
000000
000000
000000
03f000
03f000
03f000
1ff000
1ff000
1ff000
03f000
03f000
03f000
03f000
03f000
03f000
03f000
03f000
03f000
1ffe00
1ffe00
1ffe00
000000
000000
000000
000000
000000
000000
000000
000000
000000
000000
000000
000000
000000
000000
000000
000000
000000
000000
ENDCHAR
STARTCHAR ordmasculine
ENCODING 186
SWIDTH 568 0
DWIDTH 24 0
BBX 24 39 0 -6
BITMAP
000000
000000
000000
03fe00
03fe00
03fe00
1fffc0
1fffc0
1fffc0
1c01c0
1c01c0
1c01c0
1fffc0
1fffc0
1fffc0
03fe00
03fe00
03fe00
000000
000000
000000
1fffc0
1fffc0
1fffc0
000000
000000
000000
000000
000000
000000
000000
000000
000000
000000
000000
000000
000000
000000
000000
ENDCHAR
STARTCHAR guillemotright
ENCODING 187
SWIDTH 568 0
DWIDTH 24 0
BBX 24 39 0 -6
BITMAP
000000
000000
000000
000000
000000
000000
000000
000000
000000
fc7e00
fc7e00
fc7e00
1f8fc0
1f8fc0
1f8fc0
03f1f8
03f1f8
03f1f8
007e38
007e38
007e38
03f1f8
03f1f8
03f1f8
1f8fc0
1f8fc0
1f8fc0
fc7e00
fc7e00
fc7e00
000000
000000
000000
000000
000000
000000
000000
000000
000000
ENDCHAR
STARTCHAR onequarter
ENCODING 188
SWIDTH 568 0
DWIDTH 24 0
BBX 24 39 0 -6
BITMAP
000000
000000
000000
1f8000
1f8000
1f8000
ff8000
ff8000
ff8000
1f8000
1f8000
1f8000
1f8000
1f8000
1f8000
1f8038
1f8038
1f8038
fff1f8
fff1f8
fff1f8
000ff8
000ff8
000ff8
007e38
007e38
007e38
007ff8
007ff8
007ff8
0001f8
0001f8
0001f8
000000
000000
000000
000000
000000
000000
ENDCHAR
STARTCHAR onehalf
ENCODING 189
SWIDTH 568 0
DWIDTH 24 0
BBX 24 39 0 -6
BITMAP
000000
000000
000000
1f8000
1f8000
1f8000
ff8000
ff8000
ff8000
1f8000
1f8000
1f8000
1f8000
1f8000
1f8000
1fffc0
1fffc0
1fffc0
fff1f8
fff1f8
fff1f8
0001f8
0001f8
0001f8
000fc0
000fc0
000fc0
007e00
007e00
007e00
007ff8
007ff8
007ff8
000000
000000
000000
000000
000000
000000
ENDCHAR
STARTCHAR threequarters
ENCODING 190
SWIDTH 568 0
DWIDTH 24 0
BBX 24 39 0 -6
BITMAP
000000
000000
000000
ff8000
ff8000
ff8000
e3f000
e3f000
e3f000
1f8000
1f8000
1f8000
03f000
03f000
03f000
e3f038
e3f038
e3f038
ff81f8
ff81f8
ff81f8
000ff8
000ff8
000ff8
007e38
007e38
007e38
007ff8
007ff8
007ff8
0001f8
0001f8
0001f8
000000
000000
000000
000000
000000
000000
ENDCHAR
STARTCHAR questiondown
ENCODING 191
SWIDTH 568 0
DWIDTH 24 0
BBX 24 39 0 -6
BITMAP
000000
000000
000000
007e00
007e00
007e00
007e00
007e00
007e00
000000
000000
000000
007e00
007e00
007e00
007e00
007e00
007e00
03f000
03f000
03f000
1f8000
1f8000
1f8000
1f81f8
1f81f8
1f81f8
1f81f8
1f81f8
1f81f8
03ffc0
03ffc0
03ffc0
000000
000000
000000
000000
000000
000000
ENDCHAR
STARTCHAR Agrave
ENCODING 192
SWIDTH 568 0
DWIDTH 24 0
BBX 24 39 0 -6
BITMAP
000000
000000
000000
03f000
03f000
03f000
007e00
007e00
007e00
000000
000000
000000
03fe00
03fe00
03fe00
1fffc0
1fffc0
1fffc0
fc01f8
fc01f8
fc01f8
fc01f8
fc01f8
fc01f8
fffff8
fffff8
fffff8
fc01f8
fc01f8
fc01f8
fc01f8
fc01f8
fc01f8
000000
000000
000000
000000
000000
000000
ENDCHAR
STARTCHAR Aacute
ENCODING 193
SWIDTH 568 0
DWIDTH 24 0
BBX 24 39 0 -6
BITMAP
000000
000000
000000
007e00
007e00
007e00
03f000
03f000
03f000
000000
000000
000000
03fe00
03fe00
03fe00
1fffc0
1fffc0
1fffc0
fc01f8
fc01f8
fc01f8
fc01f8
fc01f8
fc01f8
fffff8
fffff8
fffff8
fc01f8
fc01f8
fc01f8
fc01f8
fc01f8
fc01f8
000000
000000
000000
000000
000000
000000
ENDCHAR
STARTCHAR Acircumflex
ENCODING 194
SWIDTH 568 0
DWIDTH 24 0
BBX 24 39 0 -6
BITMAP
000000
000000
000000
03fe00
03fe00
03fe00
1f8fc0
1f8fc0
1f8fc0
000000
000000
000000
03fe00
03fe00
03fe00
1fffc0
1fffc0
1fffc0
fc01f8
fc01f8
fc01f8
fc01f8
fc01f8
fc01f8
fffff8
fffff8
fffff8
fc01f8
fc01f8
fc01f8
fc01f8
fc01f8
fc01f8
000000
000000
000000
000000
000000
000000
ENDCHAR
STARTCHAR Atilde
ENCODING 195
SWIDTH 568 0
DWIDTH 24 0
BBX 24 39 0 -6
BITMAP
000000
000000
000000
03f1c0
03f1c0
03f1c0
1c7e00
1c7e00
1c7e00
000000
000000
000000
03fe00
03fe00
03fe00
1fffc0
1fffc0
1fffc0
fc01f8
fc01f8
fc01f8
fc01f8
fc01f8
fc01f8
fffff8
fffff8
fffff8
fc01f8
fc01f8
fc01f8
fc01f8
fc01f8
fc01f8
000000
000000
000000
000000
000000
000000
ENDCHAR
STARTCHAR Adieresis
ENCODING 196
SWIDTH 568 0
DWIDTH 24 0
BBX 24 39 0 -6
BITMAP
000000
000000
000000
1f8fc0
1f8fc0
1f8fc0
1f8fc0
1f8fc0
1f8fc0
000000
000000
000000
03fe00
03fe00
03fe00
1fffc0
1fffc0
1fffc0
fc01f8
fc01f8
fc01f8
fc01f8
fc01f8
fc01f8
fffff8
fffff8
fffff8
fc01f8
fc01f8
fc01f8
fc01f8
fc01f8
fc01f8
000000
000000
000000
000000
000000
000000
ENDCHAR
STARTCHAR Aring
ENCODING 197
SWIDTH 568 0
DWIDTH 24 0
BBX 24 39 0 -6
BITMAP
007e00
007e00
007e00
0381c0
0381c0
0381c0
007e00
007e00
007e00
000000
000000
000000
03fe00
03fe00
03fe00
1fffc0
1fffc0
1fffc0
fc01f8
fc01f8
fc01f8
fc01f8
fc01f8
fc01f8
fffff8
fffff8
fffff8
fc01f8
fc01f8
fc01f8
fc01f8
fc01f8
fc01f8
000000
000000
000000
000000
000000
000000
ENDCHAR
STARTCHAR AE
ENCODING 198
SWIDTH 568 0
DWIDTH 24 0
BBX 24 39 0 -6
BITMAP
000000
000000
000000
1ffff8
1ffff8
1ffff8
fffe00
fffe00
fffe00
fc7e00
fc7e00
fc7e00
fc7e00
fc7e00
fc7e00
fc7e00
fc7e00
fc7e00
ffffc0
ffffc0
ffffc0
fc7e00
fc7e00
fc7e00
fc7e00
fc7e00
fc7e00
fc7e00
fc7e00
fc7e00
fc7ff8
fc7ff8
fc7ff8
000000
000000
000000
000000
000000
000000
ENDCHAR
STARTCHAR Ccedilla
ENCODING 199
SWIDTH 568 0
DWIDTH 24 0
BBX 24 39 0 -6
BITMAP
000000
000000
000000
1fffc0
1fffc0
1fffc0
ff81f8
ff81f8
ff81f8
fc0000
fc0000
fc0000
fc0000
fc0000
fc0000
fc0000
fc0000
fc0000
fc0000
fc0000
fc0000
fc0000
fc0000
fc0000
ff81f8
ff81f8
ff81f8
1fffc0
1fffc0
1fffc0
007e00
007e00
007e00
1c0e00
1c0e00
1c0e00
03f000
03f000
03f000
ENDCHAR
STARTCHAR Egrave
ENCODING 200
SWIDTH 568 0
DWIDTH 24 0
BBX 24 39 0 -6
BITMAP
000000
000000
000000
03f000
03f000
03f000
007e00
007e00
007e00
000000
000000
000000
fffff8
fffff8
fffff8
fc0000
fc0000
fc0000
fc0000
fc0000
fc0000
fffe00
fffe00
fffe00
fc0000
fc0000
fc0000
fc0000
fc0000
fc0000
fffff8
fffff8
fffff8
000000
000000
000000
000000
000000
000000
ENDCHAR
STARTCHAR Eacute
ENCODING 201
SWIDTH 568 0
DWIDTH 24 0
BBX 24 39 0 -6
BITMAP
000000
000000
000000
007e00
007e00
007e00
03f000
03f000
03f000
000000
000000
000000
fffff8
fffff8
fffff8
fc0000
fc0000
fc0000
fc0000
fc0000
fc0000
fffe00
fffe00
fffe00
fc0000
fc0000
fc0000
fc0000
fc0000
fc0000
fffff8
fffff8
fffff8
000000
000000
000000
000000
000000
000000
ENDCHAR
STARTCHAR Ecircumflex
ENCODING 202
SWIDTH 568 0
DWIDTH 24 0
BBX 24 39 0 -6
BITMAP
000000
000000
000000
03fe00
03fe00
03fe00
1f8fc0
1f8fc0
1f8fc0
000000
000000
000000
fffff8
fffff8
fffff8
fc0000
fc0000
fc0000
fc0000
fc0000
fc0000
fffe00
fffe00
fffe00
fc0000
fc0000
fc0000
fc0000
fc0000
fc0000
fffff8
fffff8
fffff8
000000
000000
000000
000000
000000
000000
ENDCHAR
STARTCHAR Edieresis
ENCODING 203
SWIDTH 568 0
DWIDTH 24 0
BBX 24 39 0 -6
BITMAP
000000
000000
000000
1f8fc0
1f8fc0
1f8fc0
1f8fc0
1f8fc0
1f8fc0
000000
000000
000000
fffff8
fffff8
fffff8
fc0000
fc0000
fc0000
fc0000
fc0000
fc0000
fffe00
fffe00
fffe00
fc0000
fc0000
fc0000
fc0000
fc0000
fc0000
fffff8
fffff8
fffff8
000000
000000
000000
000000
000000
000000
ENDCHAR
STARTCHAR Igrave
ENCODING 204
SWIDTH 568 0
DWIDTH 24 0
BBX 24 39 0 -6
BITMAP
000000
000000
000000
03f000
03f000
03f000
007e00
007e00
007e00
000000
000000
000000
03ffc0
03ffc0
03ffc0
007e00
007e00
007e00
007e00
007e00
007e00
007e00
007e00
007e00
007e00
007e00
007e00
007e00
007e00
007e00
03ffc0
03ffc0
03ffc0
000000
000000
000000
000000
000000
000000
ENDCHAR
STARTCHAR Iacute
ENCODING 205
SWIDTH 568 0
DWIDTH 24 0
BBX 24 39 0 -6
BITMAP
000000
000000
000000
000fc0
000fc0
000fc0
007e00
007e00
007e00
000000
000000
000000
03ffc0
03ffc0
03ffc0
007e00
007e00
007e00
007e00
007e00
007e00
007e00
007e00
007e00
007e00
007e00
007e00
007e00
007e00
007e00
03ffc0
03ffc0
03ffc0
000000
000000
000000
000000
000000
000000
ENDCHAR
STARTCHAR Icircumflex
ENCODING 206
SWIDTH 568 0
DWIDTH 24 0
BBX 24 39 0 -6
BITMAP
000000
000000
000000
007fc0
007fc0
007fc0
03f1f8
03f1f8
03f1f8
000000
000000
000000
03ffc0
03ffc0
03ffc0
007e00
007e00
007e00
007e00
007e00
007e00
007e00
007e00
007e00
007e00
007e00
007e00
007e00
007e00
007e00
03ffc0
03ffc0
03ffc0
000000
000000
000000
000000
000000
000000
ENDCHAR
STARTCHAR Idieresis
ENCODING 207
SWIDTH 568 0
DWIDTH 24 0
BBX 24 39 0 -6
BITMAP
000000
000000
000000
03f1f8
03f1f8
03f1f8
03f1f8
03f1f8
03f1f8
000000
000000
000000
03ffc0
03ffc0
03ffc0
007e00
007e00
007e00
007e00
007e00
007e00
007e00
007e00
007e00
007e00
007e00
007e00
007e00
007e00
007e00
03ffc0
03ffc0
03ffc0
000000
000000
000000
000000
000000
000000
ENDCHAR
STARTCHAR Eth
ENCODING 208
SWIDTH 568 0
DWIDTH 24 0
BBX 24 39 0 -6
BITMAP
000000
000000
000000
000000
000000
000000
000000
000000
000000
ffffc0
ffffc0
ffffc0
1f81f8
1f81f8
1f81f8
1f81f8
1f81f8
1f81f8
fff1f8
fff1f8
fff1f8
1f81f8
1f81f8
1f81f8
1f81f8
1f81f8
1f81f8
1f81f8
1f81f8
1f81f8
ffffc0
ffffc0
ffffc0
000000
000000
000000
000000
000000
000000
ENDCHAR
STARTCHAR Ntilde
ENCODING 209
SWIDTH 568 0
DWIDTH 24 0
BBX 24 39 0 -6
BITMAP
000000
000000
000000
03f1c0
03f1c0
03f1c0
1c7e00
1c7e00
1c7e00
000000
000000
000000
fc01f8
fc01f8
fc01f8
ff81f8
ff81f8
ff81f8
fff1f8
fff1f8
fff1f8
fc71f8
fc71f8
fc71f8
fc7ff8
fc7ff8
fc7ff8
fc0ff8
fc0ff8
fc0ff8
fc01f8
fc01f8
fc01f8
000000
000000
000000
000000
000000
000000
ENDCHAR
STARTCHAR Ograve
ENCODING 210
SWIDTH 568 0
DWIDTH 24 0
BBX 24 39 0 -6
BITMAP
03f000
03f000
03f000
007e00
007e00
007e00
000000
000000
000000
1fffc0
1fffc0
1fffc0
fc01f8
fc01f8
fc01f8
fc01f8
fc01f8
fc01f8
fc01f8
fc01f8
fc01f8
fc01f8
fc01f8
fc01f8
fc01f8
fc01f8
fc01f8
fc01f8
fc01f8
fc01f8
1fffc0
1fffc0
1fffc0
000000
000000
000000
000000
000000
000000
ENDCHAR
STARTCHAR Oacute
ENCODING 211
SWIDTH 568 0
DWIDTH 24 0
BBX 24 39 0 -6
BITMAP
007e00
007e00
007e00
03f000
03f000
03f000
000000
000000
000000
1fffc0
1fffc0
1fffc0
fc01f8
fc01f8
fc01f8
fc01f8
fc01f8
fc01f8
fc01f8
fc01f8
fc01f8
fc01f8
fc01f8
fc01f8
fc01f8
fc01f8
fc01f8
fc01f8
fc01f8
fc01f8
1fffc0
1fffc0
1fffc0
000000
000000
000000
000000
000000
000000
ENDCHAR
STARTCHAR Ocircumflex
ENCODING 212
SWIDTH 568 0
DWIDTH 24 0
BBX 24 39 0 -6
BITMAP
03fe00
03fe00
03fe00
1f8fc0
1f8fc0
1f8fc0
000000
000000
000000
1fffc0
1fffc0
1fffc0
fc01f8
fc01f8
fc01f8
fc01f8
fc01f8
fc01f8
fc01f8
fc01f8
fc01f8
fc01f8
fc01f8
fc01f8
fc01f8
fc01f8
fc01f8
fc01f8
fc01f8
fc01f8
1fffc0
1fffc0
1fffc0
000000
000000
000000
000000
000000
000000
ENDCHAR
STARTCHAR Otilde
ENCODING 213
SWIDTH 568 0
DWIDTH 24 0
BBX 24 39 0 -6
BITMAP
03f1c0
03f1c0
03f1c0
1c7e00
1c7e00
1c7e00
000000
000000
000000
1fffc0
1fffc0
1fffc0
fc01f8
fc01f8
fc01f8
fc01f8
fc01f8
fc01f8
fc01f8
fc01f8
fc01f8
fc01f8
fc01f8
fc01f8
fc01f8
fc01f8
fc01f8
fc01f8
fc01f8
fc01f8
1fffc0
1fffc0
1fffc0
000000
000000
000000
000000
000000
000000
ENDCHAR
STARTCHAR Odieresis
ENCODING 214
SWIDTH 568 0
DWIDTH 24 0
BBX 24 39 0 -6
BITMAP
1f8fc0
1f8fc0
1f8fc0
1f8fc0
1f8fc0
1f8fc0
000000
000000
000000
1fffc0
1fffc0
1fffc0
fc01f8
fc01f8
fc01f8
fc01f8
fc01f8
fc01f8
fc01f8
fc01f8
fc01f8
fc01f8
fc01f8
fc01f8
fc01f8
fc01f8
fc01f8
fc01f8
fc01f8
fc01f8
1fffc0
1fffc0
1fffc0
000000
000000
000000
000000
000000
000000
ENDCHAR
STARTCHAR multiply
ENCODING 215
SWIDTH 568 0
DWIDTH 24 0
BBX 24 39 0 -6
BITMAP
000000
000000
000000
000000
000000
000000
000000
000000
000000
000000
000000
000000
fc01f8
fc01f8
fc01f8
fc01f8
fc01f8
fc01f8
1fffc0
1fffc0
1fffc0
03fe00
03fe00
03fe00
1fffc0
1fffc0
1fffc0
fc01f8
fc01f8
fc01f8
fc01f8
fc01f8
fc01f8
000000
000000
000000
000000
000000
000000
ENDCHAR
STARTCHAR Oslash
ENCODING 216
SWIDTH 568 0
DWIDTH 24 0
BBX 24 39 0 -6
BITMAP
000000
000000
000000
000000
000000
000000
000038
000038
000038
1fffc0
1fffc0
1fffc0
fc0ff8
fc0ff8
fc0ff8
fc71f8
fc71f8
fc71f8
fc71f8
fc71f8
fc71f8
fc71f8
fc71f8
fc71f8
fc71f8
fc71f8
fc71f8
ff81f8
ff81f8
ff81f8
1fffc0
1fffc0
1fffc0
e00000
e00000
e00000
000000
000000
000000
ENDCHAR
STARTCHAR Ugrave
ENCODING 217
SWIDTH 568 0
DWIDTH 24 0
BBX 24 39 0 -6
BITMAP
000000
000000
000000
03f000
03f000
03f000
007e00
007e00
007e00
000000
000000
000000
fc01f8
fc01f8
fc01f8
fc01f8
fc01f8
fc01f8
fc01f8
fc01f8
fc01f8
fc01f8
fc01f8
fc01f8
fc01f8
fc01f8
fc01f8
fc01f8
fc01f8
fc01f8
1fffc0
1fffc0
1fffc0
000000
000000
000000
000000
000000
000000
ENDCHAR
STARTCHAR Uacute
ENCODING 218
SWIDTH 568 0
DWIDTH 24 0
BBX 24 39 0 -6
BITMAP
000000
000000
000000
007e00
007e00
007e00
03f000
03f000
03f000
000000
000000
000000
fc01f8
fc01f8
fc01f8
fc01f8
fc01f8
fc01f8
fc01f8
fc01f8
fc01f8
fc01f8
fc01f8
fc01f8
fc01f8
fc01f8
fc01f8
fc01f8
fc01f8
fc01f8
1fffc0
1fffc0
1fffc0
000000
000000
000000
000000
000000
000000
ENDCHAR
STARTCHAR Ucircumflex
ENCODING 219
SWIDTH 568 0
DWIDTH 24 0
BBX 24 39 0 -6
BITMAP
000000
000000
000000
03fe00
03fe00
03fe00
1f8fc0
1f8fc0
1f8fc0
000000
000000
000000
fc01f8
fc01f8
fc01f8
fc01f8
fc01f8
fc01f8
fc01f8
fc01f8
fc01f8
fc01f8
fc01f8
fc01f8
fc01f8
fc01f8
fc01f8
fc01f8
fc01f8
fc01f8
1fffc0
1fffc0
1fffc0
000000
000000
000000
000000
000000
000000
ENDCHAR
STARTCHAR Udieresis
ENCODING 220
SWIDTH 568 0
DWIDTH 24 0
BBX 24 39 0 -6
BITMAP
000000
000000
000000
1f8fc0
1f8fc0
1f8fc0
1f8fc0
1f8fc0
1f8fc0
000000
000000
000000
fc01f8
fc01f8
fc01f8
fc01f8
fc01f8
fc01f8
fc01f8
fc01f8
fc01f8
fc01f8
fc01f8
fc01f8
fc01f8
fc01f8
fc01f8
fc01f8
fc01f8
fc01f8
1fffc0
1fffc0
1fffc0
000000
000000
000000
000000
000000
000000
ENDCHAR
STARTCHAR Yacute
ENCODING 221
SWIDTH 568 0
DWIDTH 24 0
BBX 24 39 0 -6
BITMAP
000000
000000
000000
000fc0
000fc0
000fc0
007e00
007e00
007e00
000000
000000
000000
1f81f8
1f81f8
1f81f8
0381c0
0381c0
0381c0
03ffc0
03ffc0
03ffc0
007e00
007e00
007e00
007e00
007e00
007e00
007e00
007e00
007e00
007e00
007e00
007e00
000000
000000
000000
000000
000000
000000
ENDCHAR
STARTCHAR Thorn
ENCODING 222
SWIDTH 568 0
DWIDTH 24 0
BBX 24 39 0 -6
BITMAP
000000
000000
000000
000000
000000
000000
fc0000
fc0000
fc0000
ffffc0
ffffc0
ffffc0
fc01f8
fc01f8
fc01f8
fc01f8
fc01f8
fc01f8
fc01f8
fc01f8
fc01f8
ffffc0
ffffc0
ffffc0
fc0000
fc0000
fc0000
fc0000
fc0000
fc0000
fc0000
fc0000
fc0000
000000
000000
000000
000000
000000
000000
ENDCHAR
STARTCHAR germandbls
ENCODING 223
SWIDTH 568 0
DWIDTH 24 0
BBX 24 39 0 -6
BITMAP
000000
000000
000000
03ffc0
03ffc0
03ffc0
1f81f8
1f81f8
1f81f8
1f81f8
1f81f8
1f81f8
1f8fc0
1f8fc0
1f8fc0
ff8fc0
ff8fc0
ff8fc0
1f8fc0
1f8fc0
1f8fc0
1f81f8
1f81f8
1f81f8
1f81f8
1f81f8
1f81f8
1f81f8
1f81f8
1f81f8
1f8fc0
1f8fc0
1f8fc0
000000
000000
000000
000000
000000
000000
ENDCHAR
STARTCHAR agrave
ENCODING 224
SWIDTH 568 0
DWIDTH 24 0
BBX 24 39 0 -6
BITMAP
000000
000000
000000
03f000
03f000
03f000
007e00
007e00
007e00
000000
000000
000000
1fffc0
1fffc0
1fffc0
0001f8
0001f8
0001f8
1ffff8
1ffff8
1ffff8
fc01f8
fc01f8
fc01f8
fc01f8
fc01f8
fc01f8
fc0ff8
fc0ff8
fc0ff8
1ff1f8
1ff1f8
1ff1f8
000000
000000
000000
000000
000000
000000
ENDCHAR
STARTCHAR aacute
ENCODING 225
SWIDTH 568 0
DWIDTH 24 0
BBX 24 39 0 -6
BITMAP
000000
000000
000000
007e00
007e00
007e00
03f000
03f000
03f000
000000
000000
000000
1fffc0
1fffc0
1fffc0
0001f8
0001f8
0001f8
1ffff8
1ffff8
1ffff8
fc01f8
fc01f8
fc01f8
fc01f8
fc01f8
fc01f8
fc0ff8
fc0ff8
fc0ff8
1ff1f8
1ff1f8
1ff1f8
000000
000000
000000
000000
000000
000000
ENDCHAR
STARTCHAR acircumflex
ENCODING 226
SWIDTH 568 0
DWIDTH 24 0
BBX 24 39 0 -6
BITMAP
000000
000000
000000
03fe00
03fe00
03fe00
1f8fc0
1f8fc0
1f8fc0
000000
000000
000000
1fffc0
1fffc0
1fffc0
0001f8
0001f8
0001f8
1ffff8
1ffff8
1ffff8
fc01f8
fc01f8
fc01f8
fc01f8
fc01f8
fc01f8
fc0ff8
fc0ff8
fc0ff8
1ff1f8
1ff1f8
1ff1f8
000000
000000
000000
000000
000000
000000
ENDCHAR
STARTCHAR atilde
ENCODING 227
SWIDTH 568 0
DWIDTH 24 0
BBX 24 39 0 -6
BITMAP
000000
000000
000000
03f1c0
03f1c0
03f1c0
1c7e00
1c7e00
1c7e00
000000
000000
000000
1fffc0
1fffc0
1fffc0
0001f8
0001f8
0001f8
1ffff8
1ffff8
1ffff8
fc01f8
fc01f8
fc01f8
fc01f8
fc01f8
fc01f8
fc0ff8
fc0ff8
fc0ff8
1ff1f8
1ff1f8
1ff1f8
000000
000000
000000
000000
000000
000000
ENDCHAR
STARTCHAR adieresis
ENCODING 228
SWIDTH 568 0
DWIDTH 24 0
BBX 24 39 0 -6
BITMAP
000000
000000
000000
1f8fc0
1f8fc0
1f8fc0
1f8fc0
1f8fc0
1f8fc0
000000
000000
000000
1fffc0
1fffc0
1fffc0
0001f8
0001f8
0001f8
1ffff8
1ffff8
1ffff8
fc01f8
fc01f8
fc01f8
fc01f8
fc01f8
fc01f8
fc0ff8
fc0ff8
fc0ff8
1ff1f8
1ff1f8
1ff1f8
000000
000000
000000
000000
000000
000000
ENDCHAR
STARTCHAR aring
ENCODING 229
SWIDTH 568 0
DWIDTH 24 0
BBX 24 39 0 -6
BITMAP
007e00
007e00
007e00
0381c0
0381c0
0381c0
007e00
007e00
007e00
000000
000000
000000
1fffc0
1fffc0
1fffc0
0001f8
0001f8
0001f8
1ffff8
1ffff8
1ffff8
fc01f8
fc01f8
fc01f8
fc01f8
fc01f8
fc01f8
fc0ff8
fc0ff8
fc0ff8
1ff1f8
1ff1f8
1ff1f8
000000
000000
000000
000000
000000
000000
ENDCHAR
STARTCHAR ae
ENCODING 230
SWIDTH 568 0
DWIDTH 24 0
BBX 24 39 0 -6
BITMAP
000000
000000
000000
000000
000000
000000
000000
000000
000000
000000
000000
000000
1f8fc0
1f8fc0
1f8fc0
fc7e38
fc7e38
fc7e38
007e38
007e38
007e38
1fffc0
1fffc0
1fffc0
fc7e00
fc7e00
fc7e00
fc7e38
fc7e38
fc7e38
1f8fc0
1f8fc0
1f8fc0
000000
000000
000000
000000
000000
000000
ENDCHAR
STARTCHAR ccedilla
ENCODING 231
SWIDTH 568 0
DWIDTH 24 0
BBX 24 39 0 -6
BITMAP
000000
000000
000000
000000
000000
000000
000000
000000
000000
1fffc0
1fffc0
1fffc0
ff81f8
ff81f8
ff81f8
fc0000
fc0000
fc0000
fc0000
fc0000
fc0000
fc0000
fc0000
fc0000
ff81f8
ff81f8
ff81f8
1fffc0
1fffc0
1fffc0
007e00
007e00
007e00
1c0e00
1c0e00
1c0e00
03f000
03f000
03f000
ENDCHAR
STARTCHAR egrave
ENCODING 232
SWIDTH 568 0
DWIDTH 24 0
BBX 24 39 0 -6
BITMAP
000000
000000
000000
03f000
03f000
03f000
007e00
007e00
007e00
000000
000000
000000
1fffc0
1fffc0
1fffc0
fc01f8
fc01f8
fc01f8
fc01f8
fc01f8
fc01f8
fffff8
fffff8
fffff8
fc0000
fc0000
fc0000
fc01f8
fc01f8
fc01f8
1fffc0
1fffc0
1fffc0
000000
000000
000000
000000
000000
000000
ENDCHAR
STARTCHAR eacute
ENCODING 233
SWIDTH 568 0
DWIDTH 24 0
BBX 24 39 0 -6
BITMAP
000000
000000
000000
007e00
007e00
007e00
03f000
03f000
03f000
000000
000000
000000
1fffc0
1fffc0
1fffc0
fc01f8
fc01f8
fc01f8
fc01f8
fc01f8
fc01f8
fffff8
fffff8
fffff8
fc0000
fc0000
fc0000
fc01f8
fc01f8
fc01f8
1fffc0
1fffc0
1fffc0
000000
000000
000000
000000
000000
000000
ENDCHAR
STARTCHAR ecircumflex
ENCODING 234
SWIDTH 568 0
DWIDTH 24 0
BBX 24 39 0 -6
BITMAP
000000
000000
000000
03fe00
03fe00
03fe00
1f8fc0
1f8fc0
1f8fc0
000000
000000
000000
1fffc0
1fffc0
1fffc0
fc01f8
fc01f8
fc01f8
fc01f8
fc01f8
fc01f8
fffff8
fffff8
fffff8
fc0000
fc0000
fc0000
fc01f8
fc01f8
fc01f8
1fffc0
1fffc0
1fffc0
000000
000000
000000
000000
000000
000000
ENDCHAR
STARTCHAR edieresis
ENCODING 235
SWIDTH 568 0
DWIDTH 24 0
BBX 24 39 0 -6
BITMAP
000000
000000
000000
1f8fc0
1f8fc0
1f8fc0
1f8fc0
1f8fc0
1f8fc0
000000
000000
000000
1fffc0
1fffc0
1fffc0
fc01f8
fc01f8
fc01f8
fc01f8
fc01f8
fc01f8
fffff8
fffff8
fffff8
fc0000
fc0000
fc0000
fc01f8
fc01f8
fc01f8
1fffc0
1fffc0
1fffc0
000000
000000
000000
000000
000000
000000
ENDCHAR
STARTCHAR igrave
ENCODING 236
SWIDTH 568 0
DWIDTH 24 0
BBX 24 39 0 -6
BITMAP
000000
000000
000000
03f000
03f000
03f000
007e00
007e00
007e00
000000
000000
000000
03fe00
03fe00
03fe00
007e00
007e00
007e00
007e00
007e00
007e00
007e00
007e00
007e00
007e00
007e00
007e00
007e00
007e00
007e00
03ffc0
03ffc0
03ffc0
000000
000000
000000
000000
000000
000000
ENDCHAR
STARTCHAR iacute
ENCODING 237
SWIDTH 568 0
DWIDTH 24 0
BBX 24 39 0 -6
BITMAP
000000
000000
000000
007e00
007e00
007e00
03f000
03f000
03f000
000000
000000
000000
03fe00
03fe00
03fe00
007e00
007e00
007e00
007e00
007e00
007e00
007e00
007e00
007e00
007e00
007e00
007e00
007e00
007e00
007e00
03ffc0
03ffc0
03ffc0
000000
000000
000000
000000
000000
000000
ENDCHAR
STARTCHAR icircumflex
ENCODING 238
SWIDTH 568 0
DWIDTH 24 0
BBX 24 39 0 -6
BITMAP
000000
000000
000000
03fe00
03fe00
03fe00
1f8fc0
1f8fc0
1f8fc0
000000
000000
000000
03fe00
03fe00
03fe00
007e00
007e00
007e00
007e00
007e00
007e00
007e00
007e00
007e00
007e00
007e00
007e00
007e00
007e00
007e00
03ffc0
03ffc0
03ffc0
000000
000000
000000
000000
000000
000000
ENDCHAR
STARTCHAR idieresis
ENCODING 239
SWIDTH 568 0
DWIDTH 24 0
BBX 24 39 0 -6
BITMAP
000000
000000
000000
1f8fc0
1f8fc0
1f8fc0
1f8fc0
1f8fc0
1f8fc0
000000
000000
000000
03fe00
03fe00
03fe00
007e00
007e00
007e00
007e00
007e00
007e00
007e00
007e00
007e00
007e00
007e00
007e00
007e00
007e00
007e00
03ffc0
03ffc0
03ffc0
000000
000000
000000
000000
000000
000000
ENDCHAR
STARTCHAR eth
ENCODING 240
SWIDTH 568 0
DWIDTH 24 0
BBX 24 39 0 -6
BITMAP
000000
000000
000000
1f8fc0
1f8fc0
1f8fc0
03fe00
03fe00
03fe00
1ffe00
1ffe00
1ffe00
000fc0
000fc0
000fc0
1ffff8
1ffff8
1ffff8
fc01f8
fc01f8
fc01f8
fc01f8
fc01f8
fc01f8
fc01f8
fc01f8
fc01f8
fc01f8
fc01f8
fc01f8
1fffc0
1fffc0
1fffc0
000000
000000
000000
000000
000000
000000
ENDCHAR
STARTCHAR ntilde
ENCODING 241
SWIDTH 568 0
DWIDTH 24 0
BBX 24 39 0 -6
BITMAP
000000
000000
000000
03f1c0
03f1c0
03f1c0
1c7e00
1c7e00
1c7e00
000000
000000
000000
fc7fc0
fc7fc0
fc7fc0
ff81f8
ff81f8
ff81f8
fc01f8
fc01f8
fc01f8
fc01f8
fc01f8
fc01f8
fc01f8
fc01f8
fc01f8
fc01f8
fc01f8
fc01f8
fc01f8
fc01f8
fc01f8
000000
000000
000000
000000
000000
000000
ENDCHAR
STARTCHAR ograve
ENCODING 242
SWIDTH 568 0
DWIDTH 24 0
BBX 24 39 0 -6
BITMAP
000000
000000
000000
03f000
03f000
03f000
007e00
007e00
007e00
000000
000000
000000
1fffc0
1fffc0
1fffc0
fc01f8
fc01f8
fc01f8
fc01f8
fc01f8
fc01f8
fc01f8
fc01f8
fc01f8
fc01f8
fc01f8
fc01f8
fc01f8
fc01f8
fc01f8
1fffc0
1fffc0
1fffc0
000000
000000
000000
000000
000000
000000
ENDCHAR
STARTCHAR oacute
ENCODING 243
SWIDTH 568 0
DWIDTH 24 0
BBX 24 39 0 -6
BITMAP
000000
000000
000000
007e00
007e00
007e00
03f000
03f000
03f000
000000
000000
000000
1fffc0
1fffc0
1fffc0
fc01f8
fc01f8
fc01f8
fc01f8
fc01f8
fc01f8
fc01f8
fc01f8
fc01f8
fc01f8
fc01f8
fc01f8
fc01f8
fc01f8
fc01f8
1fffc0
1fffc0
1fffc0
000000
000000
000000
000000
000000
000000
ENDCHAR
STARTCHAR ocircumflex
ENCODING 244
SWIDTH 568 0
DWIDTH 24 0
BBX 24 39 0 -6
BITMAP
000000
000000
000000
03fe00
03fe00
03fe00
1f8fc0
1f8fc0
1f8fc0
000000
000000
000000
1fffc0
1fffc0
1fffc0
fc01f8
fc01f8
fc01f8
fc01f8
fc01f8
fc01f8
fc01f8
fc01f8
fc01f8
fc01f8
fc01f8
fc01f8
fc01f8
fc01f8
fc01f8
1fffc0
1fffc0
1fffc0
000000
000000
000000
000000
000000
000000
ENDCHAR
STARTCHAR otilde
ENCODING 245
SWIDTH 568 0
DWIDTH 24 0
BBX 24 39 0 -6
BITMAP
000000
000000
000000
03f1c0
03f1c0
03f1c0
1c7e00
1c7e00
1c7e00
000000
000000
000000
1fffc0
1fffc0
1fffc0
fc01f8
fc01f8
fc01f8
fc01f8
fc01f8
fc01f8
fc01f8
fc01f8
fc01f8
fc01f8
fc01f8
fc01f8
fc01f8
fc01f8
fc01f8
1fffc0
1fffc0
1fffc0
000000
000000
000000
000000
000000
000000
ENDCHAR
STARTCHAR odieresis
ENCODING 246
SWIDTH 568 0
DWIDTH 24 0
BBX 24 39 0 -6
BITMAP
000000
000000
000000
1f8fc0
1f8fc0
1f8fc0
1f8fc0
1f8fc0
1f8fc0
000000
000000
000000
1fffc0
1fffc0
1fffc0
fc01f8
fc01f8
fc01f8
fc01f8
fc01f8
fc01f8
fc01f8
fc01f8
fc01f8
fc01f8
fc01f8
fc01f8
fc01f8
fc01f8
fc01f8
1fffc0
1fffc0
1fffc0
000000
000000
000000
000000
000000
000000
ENDCHAR
STARTCHAR divide
ENCODING 247
SWIDTH 568 0
DWIDTH 24 0
BBX 24 39 0 -6
BITMAP
000000
000000
000000
000000
000000
000000
000000
000000
000000
007e00
007e00
007e00
007e00
007e00
007e00
000000
000000
000000
1ffff8
1ffff8
1ffff8
000000
000000
000000
007e00
007e00
007e00
007e00
007e00
007e00
000000
000000
000000
000000
000000
000000
000000
000000
000000
ENDCHAR
STARTCHAR oslash
ENCODING 248
SWIDTH 568 0
DWIDTH 24 0
BBX 24 39 0 -6
BITMAP
000000
000000
000000
000000
000000
000000
000000
000000
000000
000038
000038
000038
1fffc0
1fffc0
1fffc0
fc0ff8
fc0ff8
fc0ff8
fc71f8
fc71f8
fc71f8
fc71f8
fc71f8
fc71f8
fc71f8
fc71f8
fc71f8
ff81f8
ff81f8
ff81f8
1fffc0
1fffc0
1fffc0
e00000
e00000
e00000
000000
000000
000000
ENDCHAR
STARTCHAR ugrave
ENCODING 249
SWIDTH 568 0
DWIDTH 24 0
BBX 24 39 0 -6
BITMAP
000000
000000
000000
03f000
03f000
03f000
007e00
007e00
007e00
000000
000000
000000
fc01f8
fc01f8
fc01f8
fc01f8
fc01f8
fc01f8
fc01f8
fc01f8
fc01f8
fc01f8
fc01f8
fc01f8
fc01f8
fc01f8
fc01f8
fc0ff8
fc0ff8
fc0ff8
1ff1f8
1ff1f8
1ff1f8
000000
000000
000000
000000
000000
000000
ENDCHAR
STARTCHAR uacute
ENCODING 250
SWIDTH 568 0
DWIDTH 24 0
BBX 24 39 0 -6
BITMAP
000000
000000
000000
007e00
007e00
007e00
03f000
03f000
03f000
000000
000000
000000
fc01f8
fc01f8
fc01f8
fc01f8
fc01f8
fc01f8
fc01f8
fc01f8
fc01f8
fc01f8
fc01f8
fc01f8
fc01f8
fc01f8
fc01f8
fc0ff8
fc0ff8
fc0ff8
1ff1f8
1ff1f8
1ff1f8
000000
000000
000000
000000
000000
000000
ENDCHAR
STARTCHAR ucircumflex
ENCODING 251
SWIDTH 568 0
DWIDTH 24 0
BBX 24 39 0 -6
BITMAP
000000
000000
000000
03fe00
03fe00
03fe00
1f8fc0
1f8fc0
1f8fc0
000000
000000
000000
fc01f8
fc01f8
fc01f8
fc01f8
fc01f8
fc01f8
fc01f8
fc01f8
fc01f8
fc01f8
fc01f8
fc01f8
fc01f8
fc01f8
fc01f8
fc0ff8
fc0ff8
fc0ff8
1ff1f8
1ff1f8
1ff1f8
000000
000000
000000
000000
000000
000000
ENDCHAR
STARTCHAR udieresis
ENCODING 252
SWIDTH 568 0
DWIDTH 24 0
BBX 24 39 0 -6
BITMAP
000000
000000
000000
1f8fc0
1f8fc0
1f8fc0
1f8fc0
1f8fc0
1f8fc0
000000
000000
000000
fc01f8
fc01f8
fc01f8
fc01f8
fc01f8
fc01f8
fc01f8
fc01f8
fc01f8
fc01f8
fc01f8
fc01f8
fc01f8
fc01f8
fc01f8
fc0ff8
fc0ff8
fc0ff8
1ff1f8
1ff1f8
1ff1f8
000000
000000
000000
000000
000000
000000
ENDCHAR
STARTCHAR yacute
ENCODING 253
SWIDTH 568 0
DWIDTH 24 0
BBX 24 39 0 -6
BITMAP
000000
000000
000000
007e00
007e00
007e00
03f000
03f000
03f000
000000
000000
000000
fc01f8
fc01f8
fc01f8
fc01f8
fc01f8
fc01f8
fc01f8
fc01f8
fc01f8
fc01f8
fc01f8
fc01f8
fc0ff8
fc0ff8
fc0ff8
1ff1f8
1ff1f8
1ff1f8
0001f8
0001f8
0001f8
fc01f8
fc01f8
fc01f8
1fffc0
1fffc0
1fffc0
ENDCHAR
STARTCHAR thorn
ENCODING 254
SWIDTH 568 0
DWIDTH 24 0
BBX 24 39 0 -6
BITMAP
000000
000000
000000
000000
000000
000000
fc0000
fc0000
fc0000
fc0000
fc0000
fc0000
fc7fc0
fc7fc0
fc7fc0
ff81f8
ff81f8
ff81f8
fc01f8
fc01f8
fc01f8
fc01f8
fc01f8
fc01f8
fc01f8
fc01f8
fc01f8
ff81f8
ff81f8
ff81f8
fc7fc0
fc7fc0
fc7fc0
fc0000
fc0000
fc0000
fc0000
fc0000
fc0000
ENDCHAR
STARTCHAR ydieresis
ENCODING 255
SWIDTH 568 0
DWIDTH 24 0
BBX 24 39 0 -6
BITMAP
000000
000000
000000
1f8fc0
1f8fc0
1f8fc0
1f8fc0
1f8fc0
1f8fc0
000000
000000
000000
fc01f8
fc01f8
fc01f8
fc01f8
fc01f8
fc01f8
fc01f8
fc01f8
fc01f8
fc01f8
fc01f8
fc01f8
fc0ff8
fc0ff8
fc0ff8
1ff1f8
1ff1f8
1ff1f8
0001f8
0001f8
0001f8
fc01f8
fc01f8
fc01f8
1fffc0
1fffc0
1fffc0
ENDCHAR
STARTCHAR Amacron
ENCODING 256
SWIDTH 568 0
DWIDTH 24 0
BBX 24 39 0 -6
BITMAP
000000
000000
000000
1fffc0
1fffc0
1fffc0
000000
000000
000000
03fe00
03fe00
03fe00
1fffc0
1fffc0
1fffc0
fc01f8
fc01f8
fc01f8
fc01f8
fc01f8
fc01f8
fffff8
fffff8
fffff8
fc01f8
fc01f8
fc01f8
fc01f8
fc01f8
fc01f8
fc01f8
fc01f8
fc01f8
000000
000000
000000
000000
000000
000000
ENDCHAR
STARTCHAR amacron
ENCODING 257
SWIDTH 568 0
DWIDTH 24 0
BBX 24 39 0 -6
BITMAP
000000
000000
000000
000000
000000
000000
1ffff8
1ffff8
1ffff8
000000
000000
000000
1fffc0
1fffc0
1fffc0
0001f8
0001f8
0001f8
1ffff8
1ffff8
1ffff8
fc01f8
fc01f8
fc01f8
fc01f8
fc01f8
fc01f8
fc0ff8
fc0ff8
fc0ff8
1ff1f8
1ff1f8
1ff1f8
000000
000000
000000
000000
000000
000000
ENDCHAR
STARTCHAR Abreve
ENCODING 258
SWIDTH 568 0
DWIDTH 24 0
BBX 24 39 0 -6
BITMAP
000000
000000
000000
1c01c0
1c01c0
1c01c0
03fe00
03fe00
03fe00
000000
000000
000000
03fe00
03fe00
03fe00
1fffc0
1fffc0
1fffc0
fc01f8
fc01f8
fc01f8
fc01f8
fc01f8
fc01f8
fffff8
fffff8
fffff8
fc01f8
fc01f8
fc01f8
fc01f8
fc01f8
fc01f8
000000
000000
000000
000000
000000
000000
ENDCHAR
STARTCHAR abreve
ENCODING 259
SWIDTH 568 0
DWIDTH 24 0
BBX 24 39 0 -6
BITMAP
000000
000000
000000
1c01c0
1c01c0
1c01c0
03fe00
03fe00
03fe00
000000
000000
000000
1fffc0
1fffc0
1fffc0
0001f8
0001f8
0001f8
1ffff8
1ffff8
1ffff8
fc01f8
fc01f8
fc01f8
fc01f8
fc01f8
fc01f8
fc0ff8
fc0ff8
fc0ff8
1ff1f8
1ff1f8
1ff1f8
000000
000000
000000
000000
000000
000000
ENDCHAR
STARTCHAR Aogonek
ENCODING 260
SWIDTH 568 0
DWIDTH 24 0
BBX 24 39 0 -6
BITMAP
000000
000000
000000
03fe00
03fe00
03fe00
1fffc0
1fffc0
1fffc0
fc01f8
fc01f8
fc01f8
fc01f8
fc01f8
fc01f8
fc01f8
fc01f8
fc01f8
fffff8
fffff8
fffff8
fc01f8
fc01f8
fc01f8
fc01f8
fc01f8
fc01f8
fc01f8
fc01f8
fc01f8
fc01f8
fc01f8
fc01f8
000fc0
000fc0
000fc0
0001ff
0001ff
0001ff
ENDCHAR
STARTCHAR aogonek
ENCODING 261
SWIDTH 568 0
DWIDTH 24 0
BBX 24 39 0 -6
BITMAP
000000
000000
000000
000000
000000
000000
000000
000000
000000
000000
000000
000000
1fffc0
1fffc0
1fffc0
0001f8
0001f8
0001f8
1ffff8
1ffff8
1ffff8
fc01f8
fc01f8
fc01f8
fc01f8
fc01f8
fc01f8
fc0ff8
fc0ff8
fc0ff8
1ff1f8
1ff1f8
1ff1f8
000fc0
000fc0
000fc0
0001ff
0001ff
0001ff
ENDCHAR
STARTCHAR Cacute
ENCODING 262
SWIDTH 568 0
DWIDTH 24 0
BBX 24 39 0 -6
BITMAP
000fc0
000fc0
000fc0
007e00
007e00
007e00
000000
000000
000000
1fffc0
1fffc0
1fffc0
ff81f8
ff81f8
ff81f8
fc01f8
fc01f8
fc01f8
fc0000
fc0000
fc0000
fc0000
fc0000
fc0000
fc01f8
fc01f8
fc01f8
ff81f8
ff81f8
ff81f8
1fffc0
1fffc0
1fffc0
000000
000000
000000
000000
000000
000000
ENDCHAR
STARTCHAR cacute
ENCODING 263
SWIDTH 568 0
DWIDTH 24 0
BBX 24 39 0 -6
BITMAP
000000
000000
000000
000fc0
000fc0
000fc0
007e00
007e00
007e00
000000
000000
000000
1fffc0
1fffc0
1fffc0
ff81f8
ff81f8
ff81f8
fc0000
fc0000
fc0000
fc0000
fc0000
fc0000
fc0000
fc0000
fc0000
ff81f8
ff81f8
ff81f8
1fffc0
1fffc0
1fffc0
000000
000000
000000
000000
000000
000000
ENDCHAR
STARTCHAR Ccircumflex
ENCODING 264
SWIDTH 568 0
DWIDTH 24 0
BBX 24 39 0 -6
BITMAP
03fe00
03fe00
03fe00
1f8fc0
1f8fc0
1f8fc0
000000
000000
000000
1fffc0
1fffc0
1fffc0
ff81f8
ff81f8
ff81f8
fc01f8
fc01f8
fc01f8
fc0000
fc0000
fc0000
fc0000
fc0000
fc0000
fc01f8
fc01f8
fc01f8
ff81f8
ff81f8
ff81f8
1fffc0
1fffc0
1fffc0
000000
000000
000000
000000
000000
000000
ENDCHAR
STARTCHAR ccircumflex
ENCODING 265
SWIDTH 568 0
DWIDTH 24 0
BBX 24 39 0 -6
BITMAP
000000
000000
000000
03fe00
03fe00
03fe00
1f8fc0
1f8fc0
1f8fc0
000000
000000
000000
1fffc0
1fffc0
1fffc0
ff81f8
ff81f8
ff81f8
fc0000
fc0000
fc0000
fc0000
fc0000
fc0000
fc0000
fc0000
fc0000
ff81f8
ff81f8
ff81f8
1fffc0
1fffc0
1fffc0
000000
000000
000000
000000
000000
000000
ENDCHAR
STARTCHAR Cdotaccent
ENCODING 266
SWIDTH 568 0
DWIDTH 24 0
BBX 24 39 0 -6
BITMAP
007e00
007e00
007e00
007e00
007e00
007e00
000000
000000
000000
1fffc0
1fffc0
1fffc0
ff81f8
ff81f8
ff81f8
fc01f8
fc01f8
fc01f8
fc0000
fc0000
fc0000
fc0000
fc0000
fc0000
fc01f8
fc01f8
fc01f8
ff81f8
ff81f8
ff81f8
1fffc0
1fffc0
1fffc0
000000
000000
000000
000000
000000
000000
ENDCHAR
STARTCHAR cdotaccent
ENCODING 267
SWIDTH 568 0
DWIDTH 24 0
BBX 24 39 0 -6
BITMAP
000000
000000
000000
007e00
007e00
007e00
007e00
007e00
007e00
000000
000000
000000
1fffc0
1fffc0
1fffc0
ff81f8
ff81f8
ff81f8
fc0000
fc0000
fc0000
fc0000
fc0000
fc0000
fc0000
fc0000
fc0000
ff81f8
ff81f8
ff81f8
1fffc0
1fffc0
1fffc0
000000
000000
000000
000000
000000
000000
ENDCHAR
STARTCHAR Ccaron
ENCODING 268
SWIDTH 568 0
DWIDTH 24 0
BBX 24 39 0 -6
BITMAP
1f8fc0
1f8fc0
1f8fc0
03fe00
03fe00
03fe00
000000
000000
000000
1fffc0
1fffc0
1fffc0
ff81f8
ff81f8
ff81f8
fc01f8
fc01f8
fc01f8
fc0000
fc0000
fc0000
fc0000
fc0000
fc0000
fc01f8
fc01f8
fc01f8
ff81f8
ff81f8
ff81f8
1fffc0
1fffc0
1fffc0
000000
000000
000000
000000
000000
000000
ENDCHAR
STARTCHAR ccaron
ENCODING 269
SWIDTH 568 0
DWIDTH 24 0
BBX 24 39 0 -6
BITMAP
000000
000000
000000
1f8fc0
1f8fc0
1f8fc0
03fe00
03fe00
03fe00
000000
000000
000000
1fffc0
1fffc0
1fffc0
ff81f8
ff81f8
ff81f8
fc0000
fc0000
fc0000
fc0000
fc0000
fc0000
fc0000
fc0000
fc0000
ff81f8
ff81f8
ff81f8
1fffc0
1fffc0
1fffc0
000000
000000
000000
000000
000000
000000
ENDCHAR
STARTCHAR Dcaron
ENCODING 270
SWIDTH 568 0
DWIDTH 24 0
BBX 24 39 0 -6
BITMAP
1f8fc0
1f8fc0
1f8fc0
03fe00
03fe00
03fe00
000000
000000
000000
ffffc0
ffffc0
ffffc0
1f81f8
1f81f8
1f81f8
1f81f8
1f81f8
1f81f8
1f81f8
1f81f8
1f81f8
1f81f8
1f81f8
1f81f8
1f81f8
1f81f8
1f81f8
1f81f8
1f81f8
1f81f8
ffffc0
ffffc0
ffffc0
000000
000000
000000
000000
000000
000000
ENDCHAR
STARTCHAR dcaron
ENCODING 271
SWIDTH 568 0
DWIDTH 24 0
BBX 24 39 0 -6
BITMAP
1f8fc0
1f8fc0
1f8fc0
03fe00
03fe00
03fe00
000000
000000
000000
0001f8
0001f8
0001f8
0001f8
0001f8
0001f8
0001f8
0001f8
0001f8
1ff1f8
1ff1f8
1ff1f8
fc0ff8
fc0ff8
fc0ff8
fc01f8
fc01f8
fc01f8
fc0ff8
fc0ff8
fc0ff8
1ff1f8
1ff1f8
1ff1f8
000000
000000
000000
000000
000000
000000
ENDCHAR
STARTCHAR Dcroat
ENCODING 272
SWIDTH 568 0
DWIDTH 24 0
BBX 24 39 0 -6
BITMAP
000000
000000
000000
000000
000000
000000
ffffc0
ffffc0
ffffc0
1f81f8
1f81f8
1f81f8
1f81f8
1f81f8
1f81f8
1f81f8
1f81f8
1f81f8
fff1f8
fff1f8
fff1f8
1f81f8
1f81f8
1f81f8
1f81f8
1f81f8
1f81f8
1f81f8
1f81f8
1f81f8
ffffc0
ffffc0
ffffc0
000000
000000
000000
000000
000000
000000
ENDCHAR
STARTCHAR dcroat
ENCODING 273
SWIDTH 568 0
DWIDTH 24 0
BBX 24 39 0 -6
BITMAP
000000
000000
000000
0001f8
0001f8
0001f8
007fff
007fff
007fff
0001f8
0001f8
0001f8
0001f8
0001f8
0001f8
1ff1f8
1ff1f8
1ff1f8
fc0ff8
fc0ff8
fc0ff8
fc01f8
fc01f8
fc01f8
fc01f8
fc01f8
fc01f8
fc0ff8
fc0ff8
fc0ff8
1ff1f8
1ff1f8
1ff1f8
000000
000000
000000
000000
000000
000000
ENDCHAR
STARTCHAR Emacron
ENCODING 274
SWIDTH 568 0
DWIDTH 24 0
BBX 24 39 0 -6
BITMAP
000000
000000
000000
1fffc0
1fffc0
1fffc0
000000
000000
000000
fffff8
fffff8
fffff8
fc0000
fc0000
fc0000
fc0000
fc0000
fc0000
fffe00
fffe00
fffe00
fc0000
fc0000
fc0000
fc0000
fc0000
fc0000
fc0000
fc0000
fc0000
fffff8
fffff8
fffff8
000000
000000
000000
000000
000000
000000
ENDCHAR
STARTCHAR emacron
ENCODING 275
SWIDTH 568 0
DWIDTH 24 0
BBX 24 39 0 -6
BITMAP
000000
000000
000000
000000
000000
000000
1fffc0
1fffc0
1fffc0
000000
000000
000000
1fffc0
1fffc0
1fffc0
fc01f8
fc01f8
fc01f8
fc01f8
fc01f8
fc01f8
fffff8
fffff8
fffff8
fc0000
fc0000
fc0000
fc01f8
fc01f8
fc01f8
1fffc0
1fffc0
1fffc0
000000
000000
000000
000000
000000
000000
ENDCHAR
STARTCHAR Ebreve
ENCODING 276
SWIDTH 568 0
DWIDTH 24 0
BBX 24 39 0 -6
BITMAP
000000
000000
000000
fc01f8
fc01f8
fc01f8
1fffc0
1fffc0
1fffc0
000000
000000
000000
fffff8
fffff8
fffff8
fc0000
fc0000
fc0000
fc0000
fc0000
fc0000
fffe00
fffe00
fffe00
fc0000
fc0000
fc0000
fc0000
fc0000
fc0000
fffff8
fffff8
fffff8
000000
000000
000000
000000
000000
000000
ENDCHAR
STARTCHAR ebreve
ENCODING 277
SWIDTH 568 0
DWIDTH 24 0
BBX 24 39 0 -6
BITMAP
000000
000000
000000
fc01f8
fc01f8
fc01f8
1fffc0
1fffc0
1fffc0
000000
000000
000000
1fffc0
1fffc0
1fffc0
fc01f8
fc01f8
fc01f8
fc01f8
fc01f8
fc01f8
fffff8
fffff8
fffff8
fc0000
fc0000
fc0000
fc01f8
fc01f8
fc01f8
1fffc0
1fffc0
1fffc0
000000
000000
000000
000000
000000
000000
ENDCHAR
STARTCHAR Edotaccent
ENCODING 278
SWIDTH 568 0
DWIDTH 24 0
BBX 24 39 0 -6
BITMAP
000000
000000
000000
007e00
007e00
007e00
007e00
007e00
007e00
000000
000000
000000
fffff8
fffff8
fffff8
fc0000
fc0000
fc0000
fc0000
fc0000
fc0000
fffe00
fffe00
fffe00
fc0000
fc0000
fc0000
fc0000
fc0000
fc0000
fffff8
fffff8
fffff8
000000
000000
000000
000000
000000
000000
ENDCHAR
STARTCHAR edotaccent
ENCODING 279
SWIDTH 568 0
DWIDTH 24 0
BBX 24 39 0 -6
BITMAP
000000
000000
000000
007e00
007e00
007e00
007e00
007e00
007e00
000000
000000
000000
1fffc0
1fffc0
1fffc0
fc01f8
fc01f8
fc01f8
fc01f8
fc01f8
fc01f8
fffff8
fffff8
fffff8
fc0000
fc0000
fc0000
fc01f8
fc01f8
fc01f8
1fffc0
1fffc0
1fffc0
000000
000000
000000
000000
000000
000000
ENDCHAR
STARTCHAR Eogonek
ENCODING 280
SWIDTH 568 0
DWIDTH 24 0
BBX 24 39 0 -6
BITMAP
000000
000000
000000
fffff8
fffff8
fffff8
fc0000
fc0000
fc0000
fc0000
fc0000
fc0000
fc0000
fc0000
fc0000
fffe00
fffe00
fffe00
fc0000
fc0000
fc0000
fc0000
fc0000
fc0000
fc0000
fc0000
fc0000
fc0000
fc0000
fc0000
fffff8
fffff8
fffff8
03f000
03f000
03f000
03ffc0
03ffc0
03ffc0
ENDCHAR
STARTCHAR eogonek
ENCODING 281
SWIDTH 568 0
DWIDTH 24 0
BBX 24 39 0 -6
BITMAP
000000
000000
000000
000000
000000
000000
000000
000000
000000
000000
000000
000000
1fffc0
1fffc0
1fffc0
fc01f8
fc01f8
fc01f8
fc01f8
fc01f8
fc01f8
fffff8
fffff8
fffff8
fc0000
fc0000
fc0000
fc01f8
fc01f8
fc01f8
1fffc0
1fffc0
1fffc0
03f000
03f000
03f000
03ffc0
03ffc0
03ffc0
ENDCHAR
STARTCHAR Ecaron
ENCODING 282
SWIDTH 568 0
DWIDTH 24 0
BBX 24 39 0 -6
BITMAP
000000
000000
000000
1f8fc0
1f8fc0
1f8fc0
03fe00
03fe00
03fe00
000000
000000
000000
fffff8
fffff8
fffff8
fc0038
fc0038
fc0038
fc0000
fc0000
fc0000
fffe00
fffe00
fffe00
fc0000
fc0000
fc0000
fc0038
fc0038
fc0038
fffff8
fffff8
fffff8
000000
000000
000000
000000
000000
000000
ENDCHAR
STARTCHAR ecaron
ENCODING 283
SWIDTH 568 0
DWIDTH 24 0
BBX 24 39 0 -6
BITMAP
000000
000000
000000
1f8fc0
1f8fc0
1f8fc0
03fe00
03fe00
03fe00
000000
000000
000000
1fffc0
1fffc0
1fffc0
fc01f8
fc01f8
fc01f8
fc01f8
fc01f8
fc01f8
fffff8
fffff8
fffff8
fc0000
fc0000
fc0000
fc01f8
fc01f8
fc01f8
1fffc0
1fffc0
1fffc0
000000
000000
000000
000000
000000
000000
ENDCHAR
STARTCHAR Gcircumflex
ENCODING 284
SWIDTH 568 0
DWIDTH 24 0
BBX 24 39 0 -6
BITMAP
03fe00
03fe00
03fe00
1f8fc0
1f8fc0
1f8fc0
000000
000000
000000
1fffc0
1fffc0
1fffc0
fc01f8
fc01f8
fc01f8
fc0000
fc0000
fc0000
fc0000
fc0000
fc0000
fc0ff8
fc0ff8
fc0ff8
fc01f8
fc01f8
fc01f8
fc01f8
fc01f8
fc01f8
1fffc0
1fffc0
1fffc0
000000
000000
000000
000000
000000
000000
ENDCHAR
STARTCHAR gcircumflex
ENCODING 285
SWIDTH 568 0
DWIDTH 24 0
BBX 24 39 0 -6
BITMAP
000000
000000
000000
03fe00
03fe00
03fe00
1f8fc0
1f8fc0
1f8fc0
000000
000000
000000
1ffff8
1ffff8
1ffff8
fc0fc0
fc0fc0
fc0fc0
fc0fc0
fc0fc0
fc0fc0
fc0fc0
fc0fc0
fc0fc0
1ffe00
1ffe00
1ffe00
fff000
fff000
fff000
1fffc0
1fffc0
1fffc0
fc01f8
fc01f8
fc01f8
1fffc0
1fffc0
1fffc0
ENDCHAR
STARTCHAR Gbreve
ENCODING 286
SWIDTH 568 0
DWIDTH 24 0
BBX 24 39 0 -6
BITMAP
fc01f8
fc01f8
fc01f8
1fffc0
1fffc0
1fffc0
000000
000000
000000
1fffc0
1fffc0
1fffc0
fc01f8
fc01f8
fc01f8
fc01f8
fc01f8
fc01f8
fc0000
fc0000
fc0000
fc0000
fc0000
fc0000
fc0ff8
fc0ff8
fc0ff8
fc01f8
fc01f8
fc01f8
1fffc0
1fffc0
1fffc0
000000
000000
000000
000000
000000
000000
ENDCHAR
STARTCHAR gbreve
ENCODING 287
SWIDTH 568 0
DWIDTH 24 0
BBX 24 39 0 -6
BITMAP
000000
000000
000000
fc01f8
fc01f8
fc01f8
1fffc0
1fffc0
1fffc0
000000
000000
000000
1ffff8
1ffff8
1ffff8
fc0fc0
fc0fc0
fc0fc0
fc0fc0
fc0fc0
fc0fc0
fc0fc0
fc0fc0
fc0fc0
1ffe00
1ffe00
1ffe00
fff000
fff000
fff000
1fffc0
1fffc0
1fffc0
fc01f8
fc01f8
fc01f8
1fffc0
1fffc0
1fffc0
ENDCHAR
STARTCHAR Gdotaccent
ENCODING 288
SWIDTH 568 0
DWIDTH 24 0
BBX 24 39 0 -6
BITMAP
007e00
007e00
007e00
007e00
007e00
007e00
000000
000000
000000
1fffc0
1fffc0
1fffc0
fc01f8
fc01f8
fc01f8
fc0000
fc0000
fc0000
fc0000
fc0000
fc0000
fc0ff8
fc0ff8
fc0ff8
fc01f8
fc01f8
fc01f8
fc01f8
fc01f8
fc01f8
1fffc0
1fffc0
1fffc0
000000
000000
000000
000000
000000
000000
ENDCHAR
STARTCHAR gdotaccent
ENCODING 289
SWIDTH 568 0
DWIDTH 24 0
BBX 24 39 0 -6
BITMAP
000000
000000
000000
007e00
007e00
007e00
007e00
007e00
007e00
000000
000000
000000
1ffff8
1ffff8
1ffff8
fc0fc0
fc0fc0
fc0fc0
fc0fc0
fc0fc0
fc0fc0
fc0fc0
fc0fc0
fc0fc0
1ffe00
1ffe00
1ffe00
fff000
fff000
fff000
1fffc0
1fffc0
1fffc0
fc01f8
fc01f8
fc01f8
1fffc0
1fffc0
1fffc0
ENDCHAR
STARTCHAR Gcommaaccent
ENCODING 290
SWIDTH 568 0
DWIDTH 24 0
BBX 24 39 0 -6
BITMAP
000000
000000
000000
1fffc0
1fffc0
1fffc0
fc01f8
fc01f8
fc01f8
fc01f8
fc01f8
fc01f8
fc0000
fc0000
fc0000
fc0000
fc0000
fc0000
fc0000
fc0000
fc0000
fc0ff8
fc0ff8
fc0ff8
fc01f8
fc01f8
fc01f8
fc01f8
fc01f8
fc01f8
1fffc0
1fffc0
1fffc0
007e00
007e00
007e00
03f000
03f000
03f000
ENDCHAR
STARTCHAR gcommaaccent
ENCODING 291
SWIDTH 568 0
DWIDTH 24 0
BBX 24 39 0 -6
BITMAP
007e00
007e00
007e00
03f000
03f000
03f000
03fe00
03fe00
03fe00
000000
000000
000000
1ffff8
1ffff8
1ffff8
fc0fc0
fc0fc0
fc0fc0
fc0fc0
fc0fc0
fc0fc0
fc0fc0
fc0fc0
fc0fc0
1ffe00
1ffe00
1ffe00
fff000
fff000
fff000
1fffc0
1fffc0
1fffc0
fc01f8
fc01f8
fc01f8
1fffc0
1fffc0
1fffc0
ENDCHAR
STARTCHAR Hcircumflex
ENCODING 292
SWIDTH 568 0
DWIDTH 24 0
BBX 24 39 0 -6
BITMAP
000000
000000
000000
03fe00
03fe00
03fe00
1f8fc0
1f8fc0
1f8fc0
000000
000000
000000
fc01f8
fc01f8
fc01f8
fc01f8
fc01f8
fc01f8
fc01f8
fc01f8
fc01f8
fffff8
fffff8
fffff8
fc01f8
fc01f8
fc01f8
fc01f8
fc01f8
fc01f8
fc01f8
fc01f8
fc01f8
000000
000000
000000
000000
000000
000000
ENDCHAR
STARTCHAR hcircumflex
ENCODING 293
SWIDTH 568 0
DWIDTH 24 0
BBX 24 39 0 -6
BITMAP
000000
000000
000000
fc0fc0
fc0fc0
fc0fc0
fc7e38
fc7e38
fc7e38
fc0000
fc0000
fc0000
fc7e00
fc7e00
fc7e00
ff8fc0
ff8fc0
ff8fc0
fc0fc0
fc0fc0
fc0fc0
fc0fc0
fc0fc0
fc0fc0
fc0fc0
fc0fc0
fc0fc0
fc0fc0
fc0fc0
fc0fc0
fc0fc0
fc0fc0
fc0fc0
000000
000000
000000
000000
000000
000000
ENDCHAR
STARTCHAR Hbar
ENCODING 294
SWIDTH 568 0
DWIDTH 24 0
BBX 24 39 0 -6
BITMAP
000000
000000
000000
1f81f8
1f81f8
1f81f8
1f81f8
1f81f8
1f81f8
ffffff
ffffff
ffffff
1f81f8
1f81f8
1f81f8
1f81f8
1f81f8
1f81f8
1ffff8
1ffff8
1ffff8
1f81f8
1f81f8
1f81f8
1f81f8
1f81f8
1f81f8
1f81f8
1f81f8
1f81f8
1f81f8
1f81f8
1f81f8
000000
000000
000000
000000
000000
000000
ENDCHAR
STARTCHAR hbar
ENCODING 295
SWIDTH 568 0
DWIDTH 24 0
BBX 24 39 0 -6
BITMAP
000000
000000
000000
1f8000
1f8000
1f8000
ffffc0
ffffc0
ffffc0
1f8000
1f8000
1f8000
1f8fc0
1f8fc0
1f8fc0
1ff1f8
1ff1f8
1ff1f8
1f81f8
1f81f8
1f81f8
1f81f8
1f81f8
1f81f8
1f81f8
1f81f8
1f81f8
1f81f8
1f81f8
1f81f8
1f81f8
1f81f8
1f81f8
000000
000000
000000
000000
000000
000000
ENDCHAR
STARTCHAR Itilde
ENCODING 296
SWIDTH 568 0
DWIDTH 24 0
BBX 24 39 0 -6
BITMAP
03f1c0
03f1c0
03f1c0
1c7e00
1c7e00
1c7e00
000000
000000
000000
03ffc0
03ffc0
03ffc0
007e00
007e00
007e00
007e00
007e00
007e00
007e00
007e00
007e00
007e00
007e00
007e00
007e00
007e00
007e00
007e00
007e00
007e00
03ffc0
03ffc0
03ffc0
000000
000000
000000
000000
000000
000000
ENDCHAR
STARTCHAR itilde
ENCODING 297
SWIDTH 568 0
DWIDTH 24 0
BBX 24 39 0 -6
BITMAP
000000
000000
000000
000000
000000
000000
03f1c0
03f1c0
03f1c0
1c7e00
1c7e00
1c7e00
000000
000000
000000
03fe00
03fe00
03fe00
007e00
007e00
007e00
007e00
007e00
007e00
007e00
007e00
007e00
007e00
007e00
007e00
03ffc0
03ffc0
03ffc0
000000
000000
000000
000000
000000
000000
ENDCHAR
STARTCHAR Imacron
ENCODING 298
SWIDTH 568 0
DWIDTH 24 0
BBX 24 39 0 -6
BITMAP
000000
000000
000000
1ffff8
1ffff8
1ffff8
000000
000000
000000
03ffc0
03ffc0
03ffc0
007e00
007e00
007e00
007e00
007e00
007e00
007e00
007e00
007e00
007e00
007e00
007e00
007e00
007e00
007e00
007e00
007e00
007e00
03ffc0
03ffc0
03ffc0
000000
000000
000000
000000
000000
000000
ENDCHAR
STARTCHAR imacron
ENCODING 299
SWIDTH 568 0
DWIDTH 24 0
BBX 24 39 0 -6
BITMAP
000000
000000
000000
000000
000000
000000
000000
000000
000000
1ffff8
1ffff8
1ffff8
000000
000000
000000
03fe00
03fe00
03fe00
007e00
007e00
007e00
007e00
007e00
007e00
007e00
007e00
007e00
007e00
007e00
007e00
03ffc0
03ffc0
03ffc0
000000
000000
000000
000000
000000
000000
ENDCHAR
STARTCHAR Ibreve
ENCODING 300
SWIDTH 568 0
DWIDTH 24 0
BBX 24 39 0 -6
BITMAP
1c0038
1c0038
1c0038
03ffc0
03ffc0
03ffc0
000000
000000
000000
03ffc0
03ffc0
03ffc0
007e00
007e00
007e00
007e00
007e00
007e00
007e00
007e00
007e00
007e00
007e00
007e00
007e00
007e00
007e00
007e00
007e00
007e00
03ffc0
03ffc0
03ffc0
000000
000000
000000
000000
000000
000000
ENDCHAR
STARTCHAR ibreve
ENCODING 301
SWIDTH 568 0
DWIDTH 24 0
BBX 24 39 0 -6
BITMAP
000000
000000
000000
000000
000000
000000
1c01c0
1c01c0
1c01c0
03fe00
03fe00
03fe00
000000
000000
000000
03fe00
03fe00
03fe00
007e00
007e00
007e00
007e00
007e00
007e00
007e00
007e00
007e00
007e00
007e00
007e00
03ffc0
03ffc0
03ffc0
000000
000000
000000
000000
000000
000000
ENDCHAR
STARTCHAR Iogonek
ENCODING 302
SWIDTH 568 0
DWIDTH 24 0
BBX 24 39 0 -6
BITMAP
000000
000000
000000
03ffc0
03ffc0
03ffc0
007e00
007e00
007e00
007e00
007e00
007e00
007e00
007e00
007e00
007e00
007e00
007e00
007e00
007e00
007e00
007e00
007e00
007e00
007e00
007e00
007e00
007e00
007e00
007e00
03ffc0
03ffc0
03ffc0
007e00
007e00
007e00
000fc0
000fc0
000fc0
ENDCHAR
STARTCHAR iogonek
ENCODING 303
SWIDTH 568 0
DWIDTH 24 0
BBX 24 39 0 -6
BITMAP
000000
000000
000000
000000
000000
000000
007e00
007e00
007e00
007e00
007e00
007e00
000000
000000
000000
03fe00
03fe00
03fe00
007e00
007e00
007e00
007e00
007e00
007e00
007e00
007e00
007e00
007e00
007e00
007e00
03ffc0
03ffc0
03ffc0
007e00
007e00
007e00
000fc0
000fc0
000fc0
ENDCHAR
STARTCHAR Idotaccent
ENCODING 304
SWIDTH 568 0
DWIDTH 24 0
BBX 24 39 0 -6
BITMAP
007e00
007e00
007e00
007e00
007e00
007e00
000000
000000
000000
03ffc0
03ffc0
03ffc0
007e00
007e00
007e00
007e00
007e00
007e00
007e00
007e00
007e00
007e00
007e00
007e00
007e00
007e00
007e00
007e00
007e00
007e00
03ffc0
03ffc0
03ffc0
000000
000000
000000
000000
000000
000000
ENDCHAR
STARTCHAR dotlessi
ENCODING 305
SWIDTH 568 0
DWIDTH 24 0
BBX 24 39 0 -6
BITMAP
000000
000000
000000
000000
000000
000000
000000
000000
000000
000000
000000
000000
000000
000000
000000
03fe00
03fe00
03fe00
007e00
007e00
007e00
007e00
007e00
007e00
007e00
007e00
007e00
007e00
007e00
007e00
03ffc0
03ffc0
03ffc0
000000
000000
000000
000000
000000
000000
ENDCHAR
STARTCHAR IJ
ENCODING 306
SWIDTH 568 0
DWIDTH 24 0
BBX 24 39 0 -6
BITMAP
000000
000000
000000
fffff8
fffff8
fffff8
1f81f8
1f81f8
1f81f8
1f81f8
1f81f8
1f81f8
1f81f8
1f81f8
1f81f8
1f81f8
1f81f8
1f81f8
1f81f8
1f81f8
1f81f8
1f81f8
1f81f8
1f81f8
1f81f8
1f81f8
1f81f8
1f81f8
1f81f8
1f81f8
fff1f8
fff1f8
fff1f8
fc01f8
fc01f8
fc01f8
1fffc0
1fffc0
1fffc0
ENDCHAR
STARTCHAR ij
ENCODING 307
SWIDTH 568 0
DWIDTH 24 0
BBX 24 39 0 -6
BITMAP
000000
000000
000000
000000
000000
000000
1f81f8
1f81f8
1f81f8
1f81f8
1f81f8
1f81f8
000000
000000
000000
ff8ff8
ff8ff8
ff8ff8
1f81f8
1f81f8
1f81f8
1f81f8
1f81f8
1f81f8
1f81f8
1f81f8
1f81f8
1f81f8
1f81f8
1f81f8
fff1f8
fff1f8
fff1f8
fc01f8
fc01f8
fc01f8
1fffc0
1fffc0
1fffc0
ENDCHAR
STARTCHAR Jcircumflex
ENCODING 308
SWIDTH 568 0
DWIDTH 24 0
BBX 24 39 0 -6
BITMAP
000000
000000
000000
007fc0
007fc0
007fc0
03f1f8
03f1f8
03f1f8
000000
000000
000000
000ff8
000ff8
000ff8
0001f8
0001f8
0001f8
0001f8
0001f8
0001f8
0001f8
0001f8
0001f8
fc01f8
fc01f8
fc01f8
fc01f8
fc01f8
fc01f8
1fffc0
1fffc0
1fffc0
000000
000000
000000
000000
000000
000000
ENDCHAR
STARTCHAR jcircumflex
ENCODING 309
SWIDTH 568 0
DWIDTH 24 0
BBX 24 39 0 -6
BITMAP
000000
000000
000000
007fc0
007fc0
007fc0
03f1f8
03f1f8
03f1f8
000000
000000
000000
000ff8
000ff8
000ff8
0001f8
0001f8
0001f8
0001f8
0001f8
0001f8
0001f8
0001f8
0001f8
0001f8
0001f8
0001f8
0001f8
0001f8
0001f8
fc01f8
fc01f8
fc01f8
fc01f8
fc01f8
fc01f8
1fffc0
1fffc0
1fffc0
ENDCHAR
STARTCHAR Kcommaaccent
ENCODING 310
SWIDTH 568 0
DWIDTH 24 0
BBX 24 39 0 -6
BITMAP
000000
000000
000000
fc01f8
fc01f8
fc01f8
fc01f8
fc01f8
fc01f8
fc0fc0
fc0fc0
fc0fc0
fc7e00
fc7e00
fc7e00
fff000
fff000
fff000
fff000
fff000
fff000
fc7e00
fc7e00
fc7e00
fc0fc0
fc0fc0
fc0fc0
fc01f8
fc01f8
fc01f8
fc01f8
fc01f8
fc01f8
1f8000
1f8000
1f8000
fc0000
fc0000
fc0000
ENDCHAR
STARTCHAR kcommaaccent
ENCODING 311
SWIDTH 568 0
DWIDTH 24 0
BBX 24 39 0 -6
BITMAP
000000
000000
000000
fc0000
fc0000
fc0000
fc0000
fc0000
fc0000
fc0000
fc0000
fc0000
fc0fc0
fc0fc0
fc0fc0
fc7e00
fc7e00
fc7e00
fff000
fff000
fff000
fff000
fff000
fff000
fc7e00
fc7e00
fc7e00
fc0fc0
fc0fc0
fc0fc0
fc01f8
fc01f8
fc01f8
1f8000
1f8000
1f8000
fc0000
fc0000
fc0000
ENDCHAR
STARTCHAR kgreenlandic
ENCODING 312
SWIDTH 568 0
DWIDTH 24 0
BBX 24 39 0 -6
BITMAP
000000
000000
000000
000000
000000
000000
000000
000000
000000
000000
000000
000000
fc0fc0
fc0fc0
fc0fc0
fc7e00
fc7e00
fc7e00
fff000
fff000
fff000
fff000
fff000
fff000
fc7e00
fc7e00
fc7e00
fc0fc0
fc0fc0
fc0fc0
fc01f8
fc01f8
fc01f8
000000
000000
000000
000000
000000
000000
ENDCHAR
STARTCHAR Lacute
ENCODING 313
SWIDTH 568 0
DWIDTH 24 0
BBX 24 39 0 -6
BITMAP
000000
000000
000000
000fc0
000fc0
000fc0
007e00
007e00
007e00
fc0000
fc0000
fc0000
fc0000
fc0000
fc0000
fc0000
fc0000
fc0000
fc0000
fc0000
fc0000
fc0000
fc0000
fc0000
fc0000
fc0000
fc0000
fc0038
fc0038
fc0038
fffff8
fffff8
fffff8
000000
000000
000000
000000
000000
000000
ENDCHAR
STARTCHAR lacute
ENCODING 314
SWIDTH 568 0
DWIDTH 24 0
BBX 24 39 0 -6
BITMAP
000fc0
000fc0
000fc0
007e00
007e00
007e00
000000
000000
000000
03fe00
03fe00
03fe00
007e00
007e00
007e00
007e00
007e00
007e00
007e00
007e00
007e00
007e00
007e00
007e00
007e00
007e00
007e00
007e00
007e00
007e00
03ffc0
03ffc0
03ffc0
000000
000000
000000
000000
000000
000000
ENDCHAR
STARTCHAR Lcommaaccent
ENCODING 315
SWIDTH 568 0
DWIDTH 24 0
BBX 24 39 0 -6
BITMAP
000000
000000
000000
fc0000
fc0000
fc0000
fc0000
fc0000
fc0000
fc0000
fc0000
fc0000
fc0000
fc0000
fc0000
fc0000
fc0000
fc0000
fc0000
fc0000
fc0000
fc0000
fc0000
fc0000
fc0000
fc0000
fc0000
fc0038
fc0038
fc0038
fffff8
fffff8
fffff8
007e00
007e00
007e00
03f000
03f000
03f000
ENDCHAR
STARTCHAR lcommaaccent
ENCODING 316
SWIDTH 568 0
DWIDTH 24 0
BBX 24 39 0 -6
BITMAP
000000
000000
000000
03fe00
03fe00
03fe00
007e00
007e00
007e00
007e00
007e00
007e00
007e00
007e00
007e00
007e00
007e00
007e00
007e00
007e00
007e00
007e00
007e00
007e00
007e00
007e00
007e00
007e00
007e00
007e00
03ffc0
03ffc0
03ffc0
007e00
007e00
007e00
03f000
03f000
03f000
ENDCHAR
STARTCHAR Lcaron
ENCODING 317
SWIDTH 568 0
DWIDTH 24 0
BBX 24 39 0 -6
BITMAP
1f8fc0
1f8fc0
1f8fc0
03fe00
03fe00
03fe00
000000
000000
000000
fc0000
fc0000
fc0000
fc0000
fc0000
fc0000
fc0000
fc0000
fc0000
fc0000
fc0000
fc0000
fc0000
fc0000
fc0000
fc0000
fc0000
fc0000
fc0038
fc0038
fc0038
fffff8
fffff8
fffff8
000000
000000
000000
000000
000000
000000
ENDCHAR
STARTCHAR lcaron
ENCODING 318
SWIDTH 568 0
DWIDTH 24 0
BBX 24 39 0 -6
BITMAP
1f8fc0
1f8fc0
1f8fc0
03fe00
03fe00
03fe00
000000
000000
000000
03fe00
03fe00
03fe00
007e00
007e00
007e00
007e00
007e00
007e00
007e00
007e00
007e00
007e00
007e00
007e00
007e00
007e00
007e00
007e00
007e00
007e00
03ffc0
03ffc0
03ffc0
000000
000000
000000
000000
000000
000000
ENDCHAR
STARTCHAR Ldot
ENCODING 319
SWIDTH 568 0
DWIDTH 24 0
BBX 24 39 0 -6
BITMAP
000000
000000
000000
fc0000
fc0000
fc0000
fc0000
fc0000
fc0000
fc0000
fc0000
fc0000
fc0fc0
fc0fc0
fc0fc0
fc0fc0
fc0fc0
fc0fc0
fc0000
fc0000
fc0000
fc0000
fc0000
fc0000
fc0000
fc0000
fc0000
fc0038
fc0038
fc0038
fffff8
fffff8
fffff8
000000
000000
000000
000000
000000
000000
ENDCHAR
STARTCHAR ldot
ENCODING 320
SWIDTH 568 0
DWIDTH 24 0
BBX 24 39 0 -6
BITMAP
000000
000000
000000
1ff000
1ff000
1ff000
03f000
03f000
03f000
03f000
03f000
03f000
03f1f8
03f1f8
03f1f8
03f1f8
03f1f8
03f1f8
03f000
03f000
03f000
03f000
03f000
03f000
03f000
03f000
03f000
03f000
03f000
03f000
1ffe00
1ffe00
1ffe00
000000
000000
000000
000000
000000
000000
ENDCHAR
STARTCHAR Lslash
ENCODING 321
SWIDTH 568 0
DWIDTH 24 0
BBX 24 39 0 -6
BITMAP
000000
000000
000000
1f8000
1f8000
1f8000
1f8000
1f8000
1f8000
1f8e00
1f8e00
1f8e00
1ffe00
1ffe00
1ffe00
1ff000
1ff000
1ff000
ff8000
ff8000
ff8000
ff8000
ff8000
ff8000
1f8000
1f8000
1f8000
1f8038
1f8038
1f8038
1ffff8
1ffff8
1ffff8
000000
000000
000000
000000
000000
000000
ENDCHAR
STARTCHAR lslash
ENCODING 322
SWIDTH 568 0
DWIDTH 24 0
BBX 24 39 0 -6
BITMAP
000000
000000
000000
03fe00
03fe00
03fe00
007e00
007e00
007e00
007e38
007e38
007e38
007ff8
007ff8
007ff8
007fc0
007fc0
007fc0
03fe00
03fe00
03fe00
1ffe00
1ffe00
1ffe00
1c7e00
1c7e00
1c7e00
007e00
007e00
007e00
03ffc0
03ffc0
03ffc0
000000
000000
000000
000000
000000
000000
ENDCHAR
STARTCHAR Nacute
ENCODING 323
SWIDTH 568 0
DWIDTH 24 0
BBX 24 39 0 -6
BITMAP
000fc0
000fc0
000fc0
007e00
007e00
007e00
000000
000000
000000
fc01f8
fc01f8
fc01f8
ff81f8
ff81f8
ff81f8
ff81f8
ff81f8
ff81f8
fff1f8
fff1f8
fff1f8
fc7ff8
fc7ff8
fc7ff8
fc0ff8
fc0ff8
fc0ff8
fc0ff8
fc0ff8
fc0ff8
fc01f8
fc01f8
fc01f8
000000
000000
000000
000000
000000
000000
ENDCHAR
STARTCHAR nacute
ENCODING 324
SWIDTH 568 0
DWIDTH 24 0
BBX 24 39 0 -6
BITMAP
000000
000000
000000
000fc0
000fc0
000fc0
007e00
007e00
007e00
000000
000000
000000
fc7fc0
fc7fc0
fc7fc0
ff81f8
ff81f8
ff81f8
fc01f8
fc01f8
fc01f8
fc01f8
fc01f8
fc01f8
fc01f8
fc01f8
fc01f8
fc01f8
fc01f8
fc01f8
fc01f8
fc01f8
fc01f8
000000
000000
000000
000000
000000
000000
ENDCHAR
STARTCHAR Ncommaaccent
ENCODING 325
SWIDTH 568 0
DWIDTH 24 0
BBX 24 39 0 -6
BITMAP
000000
000000
000000
fc01f8
fc01f8
fc01f8
fc01f8
fc01f8
fc01f8
ff81f8
ff81f8
ff81f8
ff81f8
ff81f8
ff81f8
fff1f8
fff1f8
fff1f8
fc7ff8
fc7ff8
fc7ff8
fc0ff8
fc0ff8
fc0ff8
fc0ff8
fc0ff8
fc0ff8
fc01f8
fc01f8
fc01f8
fc01f8
fc01f8
fc01f8
1f8000
1f8000
1f8000
fc0000
fc0000
fc0000
ENDCHAR
STARTCHAR ncommaaccent
ENCODING 326
SWIDTH 568 0
DWIDTH 24 0
BBX 24 39 0 -6
BITMAP
000000
000000
000000
000000
000000
000000
000000
000000
000000
000000
000000
000000
fc7fc0
fc7fc0
fc7fc0
ff81f8
ff81f8
ff81f8
fc01f8
fc01f8
fc01f8
fc01f8
fc01f8
fc01f8
fc01f8
fc01f8
fc01f8
fc01f8
fc01f8
fc01f8
fc01f8
fc01f8
fc01f8
1f8000
1f8000
1f8000
fc0000
fc0000
fc0000
ENDCHAR
STARTCHAR Ncaron
ENCODING 327
SWIDTH 568 0
DWIDTH 24 0
BBX 24 39 0 -6
BITMAP
1f8fc0
1f8fc0
1f8fc0
03fe00
03fe00
03fe00
000000
000000
000000
fc01f8
fc01f8
fc01f8
ff81f8
ff81f8
ff81f8
ff81f8
ff81f8
ff81f8
fff1f8
fff1f8
fff1f8
fc7ff8
fc7ff8
fc7ff8
fc0ff8
fc0ff8
fc0ff8
fc0ff8
fc0ff8
fc0ff8
fc01f8
fc01f8
fc01f8
000000
000000
000000
000000
000000
000000
ENDCHAR
STARTCHAR ncaron
ENCODING 328
SWIDTH 568 0
DWIDTH 24 0
BBX 24 39 0 -6
BITMAP
000000
000000
000000
1f8fc0
1f8fc0
1f8fc0
03fe00
03fe00
03fe00
000000
000000
000000
fc7fc0
fc7fc0
fc7fc0
ff81f8
ff81f8
ff81f8
fc01f8
fc01f8
fc01f8
fc01f8
fc01f8
fc01f8
fc01f8
fc01f8
fc01f8
fc01f8
fc01f8
fc01f8
fc01f8
fc01f8
fc01f8
000000
000000
000000
000000
000000
000000
ENDCHAR
STARTCHAR napostrophe
ENCODING 329
SWIDTH 568 0
DWIDTH 24 0
BBX 24 39 0 -6
BITMAP
1f8000
1f8000
1f8000
038000
038000
038000
1c0000
1c0000
1c0000
000000
000000
000000
fc7fc0
fc7fc0
fc7fc0
ff81f8
ff81f8
ff81f8
fc01f8
fc01f8
fc01f8
fc01f8
fc01f8
fc01f8
fc01f8
fc01f8
fc01f8
fc01f8
fc01f8
fc01f8
fc01f8
fc01f8
fc01f8
000000
000000
000000
000000
000000
000000
ENDCHAR
STARTCHAR Eng
ENCODING 330
SWIDTH 568 0
DWIDTH 24 0
BBX 24 39 0 -6
BITMAP
000000
000000
000000
fc01f8
fc01f8
fc01f8
fc01f8
fc01f8
fc01f8
ff81f8
ff81f8
ff81f8
ff81f8
ff81f8
ff81f8
fff1f8
fff1f8
fff1f8
fc7ff8
fc7ff8
fc7ff8
fc0ff8
fc0ff8
fc0ff8
fc0ff8
fc0ff8
fc0ff8
fc01f8
fc01f8
fc01f8
fc01f8
fc01f8
fc01f8
0001f8
0001f8
0001f8
007fc0
007fc0
007fc0
ENDCHAR
STARTCHAR eng
ENCODING 331
SWIDTH 568 0
DWIDTH 24 0
BBX 24 39 0 -6
BITMAP
000000
000000
000000
000000
000000
000000
000000
000000
000000
000000
000000
000000
fc7fc0
fc7fc0
fc7fc0
ff81f8
ff81f8
ff81f8
fc01f8
fc01f8
fc01f8
fc01f8
fc01f8
fc01f8
fc01f8
fc01f8
fc01f8
fc01f8
fc01f8
fc01f8
fc01f8
fc01f8
fc01f8
0001f8
0001f8
0001f8
007fc0
007fc0
007fc0
ENDCHAR
STARTCHAR Omacron
ENCODING 332
SWIDTH 568 0
DWIDTH 24 0
BBX 24 39 0 -6
BITMAP
000000
000000
000000
1fffc0
1fffc0
1fffc0
000000
000000
000000
1fffc0
1fffc0
1fffc0
fc01f8
fc01f8
fc01f8
fc01f8
fc01f8
fc01f8
fc01f8
fc01f8
fc01f8
fc01f8
fc01f8
fc01f8
fc01f8
fc01f8
fc01f8
fc01f8
fc01f8
fc01f8
1fffc0
1fffc0
1fffc0
000000
000000
000000
000000
000000
000000
ENDCHAR
STARTCHAR omacron
ENCODING 333
SWIDTH 568 0
DWIDTH 24 0
BBX 24 39 0 -6
BITMAP
000000
000000
000000
000000
000000
000000
1fffc0
1fffc0
1fffc0
000000
000000
000000
1fffc0
1fffc0
1fffc0
fc01f8
fc01f8
fc01f8
fc01f8
fc01f8
fc01f8
fc01f8
fc01f8
fc01f8
fc01f8
fc01f8
fc01f8
fc01f8
fc01f8
fc01f8
1fffc0
1fffc0
1fffc0
000000
000000
000000
000000
000000
000000
ENDCHAR
STARTCHAR Obreve
ENCODING 334
SWIDTH 568 0
DWIDTH 24 0
BBX 24 39 0 -6
BITMAP
1c01c0
1c01c0
1c01c0
03fe00
03fe00
03fe00
000000
000000
000000
1fffc0
1fffc0
1fffc0
fc01f8
fc01f8
fc01f8
fc01f8
fc01f8
fc01f8
fc01f8
fc01f8
fc01f8
fc01f8
fc01f8
fc01f8
fc01f8
fc01f8
fc01f8
fc01f8
fc01f8
fc01f8
1fffc0
1fffc0
1fffc0
000000
000000
000000
000000
000000
000000
ENDCHAR
STARTCHAR obreve
ENCODING 335
SWIDTH 568 0
DWIDTH 24 0
BBX 24 39 0 -6
BITMAP
000000
000000
000000
1c01c0
1c01c0
1c01c0
03fe00
03fe00
03fe00
000000
000000
000000
1fffc0
1fffc0
1fffc0
fc01f8
fc01f8
fc01f8
fc01f8
fc01f8
fc01f8
fc01f8
fc01f8
fc01f8
fc01f8
fc01f8
fc01f8
fc01f8
fc01f8
fc01f8
1fffc0
1fffc0
1fffc0
000000
000000
000000
000000
000000
000000
ENDCHAR
STARTCHAR Ohungarumlaut
ENCODING 336
SWIDTH 568 0
DWIDTH 24 0
BBX 24 39 0 -6
BITMAP
1f81f8
1f81f8
1f81f8
fc0fc0
fc0fc0
fc0fc0
000000
000000
000000
1fffc0
1fffc0
1fffc0
fc01f8
fc01f8
fc01f8
fc01f8
fc01f8
fc01f8
fc01f8
fc01f8
fc01f8
fc01f8
fc01f8
fc01f8
fc01f8
fc01f8
fc01f8
fc01f8
fc01f8
fc01f8
1fffc0
1fffc0
1fffc0
000000
000000
000000
000000
000000
000000
ENDCHAR
STARTCHAR ohungarumlaut
ENCODING 337
SWIDTH 568 0
DWIDTH 24 0
BBX 24 39 0 -6
BITMAP
000000
000000
000000
1f81f8
1f81f8
1f81f8
fc0fc0
fc0fc0
fc0fc0
000000
000000
000000
1fffc0
1fffc0
1fffc0
fc01f8
fc01f8
fc01f8
fc01f8
fc01f8
fc01f8
fc01f8
fc01f8
fc01f8
fc01f8
fc01f8
fc01f8
fc01f8
fc01f8
fc01f8
1fffc0
1fffc0
1fffc0
000000
000000
000000
000000
000000
000000
ENDCHAR
STARTCHAR OE
ENCODING 338
SWIDTH 568 0
DWIDTH 24 0
BBX 24 39 0 -6
BITMAP
000000
000000
000000
1ffff8
1ffff8
1ffff8
fc7e00
fc7e00
fc7e00
fc7e00
fc7e00
fc7e00
fc7e00
fc7e00
fc7e00
fc7fc0
fc7fc0
fc7fc0
fc7e00
fc7e00
fc7e00
fc7e00
fc7e00
fc7e00
fc7e00
fc7e00
fc7e00
fc7e00
fc7e00
fc7e00
1ffff8
1ffff8
1ffff8
000000
000000
000000
000000
000000
000000
ENDCHAR
STARTCHAR oe
ENCODING 339
SWIDTH 568 0
DWIDTH 24 0
BBX 24 39 0 -6
BITMAP
000000
000000
000000
000000
000000
000000
000000
000000
000000
000000
000000
000000
1f8ff8
1f8ff8
1f8ff8
fc7e3f
fc7e3f
fc7e3f
fc7e3f
fc7e3f
fc7e3f
fc7ff8
fc7ff8
fc7ff8
fc7e00
fc7e00
fc7e00
fc7e3f
fc7e3f
fc7e3f
1f8ff8
1f8ff8
1f8ff8
000000
000000
000000
000000
000000
000000
ENDCHAR
STARTCHAR Racute
ENCODING 340
SWIDTH 568 0
DWIDTH 24 0
BBX 24 39 0 -6
BITMAP
007e00
007e00
007e00
03f000
03f000
03f000
000000
000000
000000
ffffc0
ffffc0
ffffc0
fc01f8
fc01f8
fc01f8
fc01f8
fc01f8
fc01f8
ffffc0
ffffc0
ffffc0
fffe00
fffe00
fffe00
fc0fc0
fc0fc0
fc0fc0
fc0fc0
fc0fc0
fc0fc0
fc01f8
fc01f8
fc01f8
000000
000000
000000
000000
000000
000000
ENDCHAR
STARTCHAR racute
ENCODING 341
SWIDTH 568 0
DWIDTH 24 0
BBX 24 39 0 -6
BITMAP
000000
000000
000000
007e00
007e00
007e00
03f000
03f000
03f000
000000
000000
000000
fc7fc0
fc7fc0
fc7fc0
ff81f8
ff81f8
ff81f8
fc0000
fc0000
fc0000
fc0000
fc0000
fc0000
fc0000
fc0000
fc0000
fc0000
fc0000
fc0000
fc0000
fc0000
fc0000
000000
000000
000000
000000
000000
000000
ENDCHAR
STARTCHAR Rcommaaccent
ENCODING 342
SWIDTH 568 0
DWIDTH 24 0
BBX 24 39 0 -6
BITMAP
000000
000000
000000
ffffc0
ffffc0
ffffc0
fc01f8
fc01f8
fc01f8
fc01f8
fc01f8
fc01f8
fc01f8
fc01f8
fc01f8
ffffc0
ffffc0
ffffc0
fffe00
fffe00
fffe00
fc0fc0
fc0fc0
fc0fc0
fc0fc0
fc0fc0
fc0fc0
fc01f8
fc01f8
fc01f8
fc01f8
fc01f8
fc01f8
1f8000
1f8000
1f8000
fc0000
fc0000
fc0000
ENDCHAR
STARTCHAR rcommaaccent
ENCODING 343
SWIDTH 568 0
DWIDTH 24 0
BBX 24 39 0 -6
BITMAP
000000
000000
000000
000000
000000
000000
000000
000000
000000
000000
000000
000000
fc7fc0
fc7fc0
fc7fc0
ff81f8
ff81f8
ff81f8
fc0000
fc0000
fc0000
fc0000
fc0000
fc0000
fc0000
fc0000
fc0000
fc0000
fc0000
fc0000
fc0000
fc0000
fc0000
1f8000
1f8000
1f8000
fc0000
fc0000
fc0000
ENDCHAR
STARTCHAR Rcaron
ENCODING 344
SWIDTH 568 0
DWIDTH 24 0
BBX 24 39 0 -6
BITMAP
1f8fc0
1f8fc0
1f8fc0
03fe00
03fe00
03fe00
000000
000000
000000
ffffc0
ffffc0
ffffc0
fc01f8
fc01f8
fc01f8
fc01f8
fc01f8
fc01f8
ffffc0
ffffc0
ffffc0
fffe00
fffe00
fffe00
fc0fc0
fc0fc0
fc0fc0
fc0fc0
fc0fc0
fc0fc0
fc01f8
fc01f8
fc01f8
000000
000000
000000
000000
000000
000000
ENDCHAR
STARTCHAR rcaron
ENCODING 345
SWIDTH 568 0
DWIDTH 24 0
BBX 24 39 0 -6
BITMAP
000000
000000
000000
1f8fc0
1f8fc0
1f8fc0
03fe00
03fe00
03fe00
000000
000000
000000
fc7fc0
fc7fc0
fc7fc0
ff81f8
ff81f8
ff81f8
fc0000
fc0000
fc0000
fc0000
fc0000
fc0000
fc0000
fc0000
fc0000
fc0000
fc0000
fc0000
fc0000
fc0000
fc0000
000000
000000
000000
000000
000000
000000
ENDCHAR
STARTCHAR Sacute
ENCODING 346
SWIDTH 568 0
DWIDTH 24 0
BBX 24 39 0 -6
BITMAP
007e00
007e00
007e00
03f000
03f000
03f000
000000
000000
000000
1fffc0
1fffc0
1fffc0
fc01f8
fc01f8
fc01f8
fc0000
fc0000
fc0000
1fffc0
1fffc0
1fffc0
0001f8
0001f8
0001f8
0001f8
0001f8
0001f8
fc01f8
fc01f8
fc01f8
1fffc0
1fffc0
1fffc0
000000
000000
000000
000000
000000
000000
ENDCHAR
STARTCHAR sacute
ENCODING 347
SWIDTH 568 0
DWIDTH 24 0
BBX 24 39 0 -6
BITMAP
000000
000000
000000
000000
000000
000000
007e00
007e00
007e00
03f000
03f000
03f000
000000
000000
000000
1fffc0
1fffc0
1fffc0
fc01f8
fc01f8
fc01f8
1ff000
1ff000
1ff000
007fc0
007fc0
007fc0
fc01f8
fc01f8
fc01f8
1fffc0
1fffc0
1fffc0
000000
000000
000000
000000
000000
000000
ENDCHAR
STARTCHAR Scircumflex
ENCODING 348
SWIDTH 568 0
DWIDTH 24 0
BBX 24 39 0 -6
BITMAP
03fe00
03fe00
03fe00
1f8fc0
1f8fc0
1f8fc0
000000
000000
000000
1fffc0
1fffc0
1fffc0
fc01f8
fc01f8
fc01f8
fc0000
fc0000
fc0000
1fffc0
1fffc0
1fffc0
0001f8
0001f8
0001f8
0001f8
0001f8
0001f8
fc01f8
fc01f8
fc01f8
1fffc0
1fffc0
1fffc0
000000
000000
000000
000000
000000
000000
ENDCHAR
STARTCHAR scircumflex
ENCODING 349
SWIDTH 568 0
DWIDTH 24 0
BBX 24 39 0 -6
BITMAP
000000
000000
000000
000000
000000
000000
03fe00
03fe00
03fe00
1f8fc0
1f8fc0
1f8fc0
000000
000000
000000
1fffc0
1fffc0
1fffc0
fc01f8
fc01f8
fc01f8
1ff000
1ff000
1ff000
007fc0
007fc0
007fc0
fc01f8
fc01f8
fc01f8
1fffc0
1fffc0
1fffc0
000000
000000
000000
000000
000000
000000
ENDCHAR
STARTCHAR Scedilla
ENCODING 350
SWIDTH 568 0
DWIDTH 24 0
BBX 24 39 0 -6
BITMAP
000000
000000
000000
1fffc0
1fffc0
1fffc0
fc01f8
fc01f8
fc01f8
fc01f8
fc01f8
fc01f8
fc0000
fc0000
fc0000
1fffc0
1fffc0
1fffc0
0001f8
0001f8
0001f8
0001f8
0001f8
0001f8
fc01f8
fc01f8
fc01f8
fc01f8
fc01f8
fc01f8
1fffc0
1fffc0
1fffc0
007e00
007e00
007e00
03f000
03f000
03f000
ENDCHAR
STARTCHAR scedilla
ENCODING 351
SWIDTH 568 0
DWIDTH 24 0
BBX 24 39 0 -6
BITMAP
000000
000000
000000
000000
000000
000000
000000
000000
000000
000000
000000
000000
1fffc0
1fffc0
1fffc0
fc01f8
fc01f8
fc01f8
1f8000
1f8000
1f8000
03fe00
03fe00
03fe00
000fc0
000fc0
000fc0
fc01f8
fc01f8
fc01f8
1fffc0
1fffc0
1fffc0
007e00
007e00
007e00
03f000
03f000
03f000
ENDCHAR
STARTCHAR Scaron
ENCODING 352
SWIDTH 568 0
DWIDTH 24 0
BBX 24 39 0 -6
BITMAP
1f8fc0
1f8fc0
1f8fc0
03fe00
03fe00
03fe00
000000
000000
000000
1fffc0
1fffc0
1fffc0
fc01f8
fc01f8
fc01f8
fc0000
fc0000
fc0000
1fffc0
1fffc0
1fffc0
0001f8
0001f8
0001f8
0001f8
0001f8
0001f8
fc01f8
fc01f8
fc01f8
1fffc0
1fffc0
1fffc0
000000
000000
000000
000000
000000
000000
ENDCHAR
STARTCHAR scaron
ENCODING 353
SWIDTH 568 0
DWIDTH 24 0
BBX 24 39 0 -6
BITMAP
000000
000000
000000
000000
000000
000000
1f8fc0
1f8fc0
1f8fc0
03fe00
03fe00
03fe00
000000
000000
000000
1fffc0
1fffc0
1fffc0
fc01f8
fc01f8
fc01f8
1ff000
1ff000
1ff000
007fc0
007fc0
007fc0
fc01f8
fc01f8
fc01f8
1fffc0
1fffc0
1fffc0
000000
000000
000000
000000
000000
000000
ENDCHAR
STARTCHAR Tcommaaccent
ENCODING 354
SWIDTH 568 0
DWIDTH 24 0
BBX 24 39 0 -6
BITMAP
000000
000000
000000
1ffff8
1ffff8
1ffff8
007e00
007e00
007e00
007e00
007e00
007e00
007e00
007e00
007e00
007e00
007e00
007e00
007e00
007e00
007e00
007e00
007e00
007e00
007e00
007e00
007e00
007e00
007e00
007e00
007e00
007e00
007e00
000fc0
000fc0
000fc0
007e00
007e00
007e00
ENDCHAR
STARTCHAR tcommaaccent
ENCODING 355
SWIDTH 568 0
DWIDTH 24 0
BBX 24 39 0 -6
BITMAP
000000
000000
000000
1f8000
1f8000
1f8000
1f8000
1f8000
1f8000
1f8000
1f8000
1f8000
1f8000
1f8000
1f8000
ffffc0
ffffc0
ffffc0
1f8000
1f8000
1f8000
1f8000
1f8000
1f8000
1f8000
1f8000
1f8000
1f81f8
1f81f8
1f81f8
03ffc0
03ffc0
03ffc0
007e00
007e00
007e00
03f000
03f000
03f000
ENDCHAR
STARTCHAR Tcaron
ENCODING 356
SWIDTH 568 0
DWIDTH 24 0
BBX 24 39 0 -6
BITMAP
1f8fc0
1f8fc0
1f8fc0
03fe00
03fe00
03fe00
000000
000000
000000
1ffff8
1ffff8
1ffff8
007e00
007e00
007e00
007e00
007e00
007e00
007e00
007e00
007e00
007e00
007e00
007e00
007e00
007e00
007e00
007e00
007e00
007e00
007e00
007e00
007e00
000000
000000
000000
000000
000000
000000
ENDCHAR
STARTCHAR tcaron
ENCODING 357
SWIDTH 568 0
DWIDTH 24 0
BBX 24 39 0 -6
BITMAP
1f8fc0
1f8fc0
1f8fc0
03fe00
03fe00
03fe00
000000
000000
000000
1f8000
1f8000
1f8000
1f8000
1f8000
1f8000
ffffc0
ffffc0
ffffc0
1f8000
1f8000
1f8000
1f8000
1f8000
1f8000
1f8000
1f8000
1f8000
1f81f8
1f81f8
1f81f8
03ffc0
03ffc0
03ffc0
000000
000000
000000
000000
000000
000000
ENDCHAR
STARTCHAR Tbar
ENCODING 358
SWIDTH 568 0
DWIDTH 24 0
BBX 24 39 0 -6
BITMAP
000000
000000
000000
1ffff8
1ffff8
1ffff8
007e00
007e00
007e00
007e00
007e00
007e00
1ffff8
1ffff8
1ffff8
007e00
007e00
007e00
007e00
007e00
007e00
007e00
007e00
007e00
007e00
007e00
007e00
007e00
007e00
007e00
007e00
007e00
007e00
000000
000000
000000
000000
000000
000000
ENDCHAR
STARTCHAR tbar
ENCODING 359
SWIDTH 568 0
DWIDTH 24 0
BBX 24 39 0 -6
BITMAP
000000
000000
000000
1f8000
1f8000
1f8000
1f8000
1f8000
1f8000
ffffc0
ffffc0
ffffc0
1f8000
1f8000
1f8000
ffffc0
ffffc0
ffffc0
1f8000
1f8000
1f8000
1f8000
1f8000
1f8000
1f8000
1f8000
1f8000
1f81f8
1f81f8
1f81f8
03ffc0
03ffc0
03ffc0
000000
000000
000000
000000
000000
000000
ENDCHAR
STARTCHAR Utilde
ENCODING 360
SWIDTH 568 0
DWIDTH 24 0
BBX 24 39 0 -6
BITMAP
03f1c0
03f1c0
03f1c0
1c7e00
1c7e00
1c7e00
000000
000000
000000
fc01f8
fc01f8
fc01f8
fc01f8
fc01f8
fc01f8
fc01f8
fc01f8
fc01f8
fc01f8
fc01f8
fc01f8
fc01f8
fc01f8
fc01f8
fc01f8
fc01f8
fc01f8
fc01f8
fc01f8
fc01f8
1fffc0
1fffc0
1fffc0
000000
000000
000000
000000
000000
000000
ENDCHAR
STARTCHAR utilde
ENCODING 361
SWIDTH 568 0
DWIDTH 24 0
BBX 24 39 0 -6
BITMAP
000000
000000
000000
03f1c0
03f1c0
03f1c0
1c7e00
1c7e00
1c7e00
000000
000000
000000
fc01f8
fc01f8
fc01f8
fc01f8
fc01f8
fc01f8
fc01f8
fc01f8
fc01f8
fc01f8
fc01f8
fc01f8
fc01f8
fc01f8
fc01f8
fc0ff8
fc0ff8
fc0ff8
1ff1f8
1ff1f8
1ff1f8
000000
000000
000000
000000
000000
000000
ENDCHAR
STARTCHAR Umacron
ENCODING 362
SWIDTH 568 0
DWIDTH 24 0
BBX 24 39 0 -6
BITMAP
000000
000000
000000
1fffc0
1fffc0
1fffc0
000000
000000
000000
fc01f8
fc01f8
fc01f8
fc01f8
fc01f8
fc01f8
fc01f8
fc01f8
fc01f8
fc01f8
fc01f8
fc01f8
fc01f8
fc01f8
fc01f8
fc01f8
fc01f8
fc01f8
fc01f8
fc01f8
fc01f8
1fffc0
1fffc0
1fffc0
000000
000000
000000
000000
000000
000000
ENDCHAR
STARTCHAR umacron
ENCODING 363
SWIDTH 568 0
DWIDTH 24 0
BBX 24 39 0 -6
BITMAP
000000
000000
000000
1fffc0
1fffc0
1fffc0
000000
000000
000000
000000
000000
000000
fc01f8
fc01f8
fc01f8
fc01f8
fc01f8
fc01f8
fc01f8
fc01f8
fc01f8
fc01f8
fc01f8
fc01f8
fc01f8
fc01f8
fc01f8
fc0ff8
fc0ff8
fc0ff8
1ff1f8
1ff1f8
1ff1f8
000000
000000
000000
000000
000000
000000
ENDCHAR
STARTCHAR Ubreve
ENCODING 364
SWIDTH 568 0
DWIDTH 24 0
BBX 24 39 0 -6
BITMAP
1c01c0
1c01c0
1c01c0
03fe00
03fe00
03fe00
000000
000000
000000
fc01f8
fc01f8
fc01f8
fc01f8
fc01f8
fc01f8
fc01f8
fc01f8
fc01f8
fc01f8
fc01f8
fc01f8
fc01f8
fc01f8
fc01f8
fc01f8
fc01f8
fc01f8
fc01f8
fc01f8
fc01f8
1fffc0
1fffc0
1fffc0
000000
000000
000000
000000
000000
000000
ENDCHAR
STARTCHAR ubreve
ENCODING 365
SWIDTH 568 0
DWIDTH 24 0
BBX 24 39 0 -6
BITMAP
000000
000000
000000
1c01c0
1c01c0
1c01c0
03fe00
03fe00
03fe00
000000
000000
000000
fc01f8
fc01f8
fc01f8
fc01f8
fc01f8
fc01f8
fc01f8
fc01f8
fc01f8
fc01f8
fc01f8
fc01f8
fc01f8
fc01f8
fc01f8
fc0ff8
fc0ff8
fc0ff8
1ff1f8
1ff1f8
1ff1f8
000000
000000
000000
000000
000000
000000
ENDCHAR
STARTCHAR Uring
ENCODING 366
SWIDTH 568 0
DWIDTH 24 0
BBX 24 39 0 -6
BITMAP
007e00
007e00
007e00
0381c0
0381c0
0381c0
007e00
007e00
007e00
fc01f8
fc01f8
fc01f8
fc01f8
fc01f8
fc01f8
fc01f8
fc01f8
fc01f8
fc01f8
fc01f8
fc01f8
fc01f8
fc01f8
fc01f8
fc01f8
fc01f8
fc01f8
fc01f8
fc01f8
fc01f8
1fffc0
1fffc0
1fffc0
000000
000000
000000
000000
000000
000000
ENDCHAR
STARTCHAR uring
ENCODING 367
SWIDTH 568 0
DWIDTH 24 0
BBX 24 39 0 -6
BITMAP
000000
000000
000000
007e00
007e00
007e00
0381c0
0381c0
0381c0
007e00
007e00
007e00
fc01f8
fc01f8
fc01f8
fc01f8
fc01f8
fc01f8
fc01f8
fc01f8
fc01f8
fc01f8
fc01f8
fc01f8
fc01f8
fc01f8
fc01f8
fc0ff8
fc0ff8
fc0ff8
1ff1f8
1ff1f8
1ff1f8
000000
000000
000000
000000
000000
000000
ENDCHAR
STARTCHAR Uhungarumlaut
ENCODING 368
SWIDTH 568 0
DWIDTH 24 0
BBX 24 39 0 -6
BITMAP
1f81f8
1f81f8
1f81f8
fc0fc0
fc0fc0
fc0fc0
000000
000000
000000
fc01f8
fc01f8
fc01f8
fc01f8
fc01f8
fc01f8
fc01f8
fc01f8
fc01f8
fc01f8
fc01f8
fc01f8
fc01f8
fc01f8
fc01f8
fc01f8
fc01f8
fc01f8
fc01f8
fc01f8
fc01f8
1fffc0
1fffc0
1fffc0
000000
000000
000000
000000
000000
000000
ENDCHAR
STARTCHAR uhungarumlaut
ENCODING 369
SWIDTH 568 0
DWIDTH 24 0
BBX 24 39 0 -6
BITMAP
000000
000000
000000
1f81f8
1f81f8
1f81f8
fc0fc0
fc0fc0
fc0fc0
000000
000000
000000
fc01f8
fc01f8
fc01f8
fc01f8
fc01f8
fc01f8
fc01f8
fc01f8
fc01f8
fc01f8
fc01f8
fc01f8
fc01f8
fc01f8
fc01f8
fc0ff8
fc0ff8
fc0ff8
1ff1f8
1ff1f8
1ff1f8
000000
000000
000000
000000
000000
000000
ENDCHAR
STARTCHAR Uogonek
ENCODING 370
SWIDTH 568 0
DWIDTH 24 0
BBX 24 39 0 -6
BITMAP
000000
000000
000000
fc01f8
fc01f8
fc01f8
fc01f8
fc01f8
fc01f8
fc01f8
fc01f8
fc01f8
fc01f8
fc01f8
fc01f8
fc01f8
fc01f8
fc01f8
fc01f8
fc01f8
fc01f8
fc01f8
fc01f8
fc01f8
fc01f8
fc01f8
fc01f8
fc01f8
fc01f8
fc01f8
1fffc0
1fffc0
1fffc0
03f000
03f000
03f000
03ffc0
03ffc0
03ffc0
ENDCHAR
STARTCHAR uogonek
ENCODING 371
SWIDTH 568 0
DWIDTH 24 0
BBX 24 39 0 -6
BITMAP
000000
000000
000000
000000
000000
000000
000000
000000
000000
000000
000000
000000
fc01f8
fc01f8
fc01f8
fc01f8
fc01f8
fc01f8
fc01f8
fc01f8
fc01f8
fc01f8
fc01f8
fc01f8
fc01f8
fc01f8
fc01f8
fc0ff8
fc0ff8
fc0ff8
1ff1f8
1ff1f8
1ff1f8
03f000
03f000
03f000
03ffc0
03ffc0
03ffc0
ENDCHAR
STARTCHAR Wcircumflex
ENCODING 372
SWIDTH 568 0
DWIDTH 24 0
BBX 24 39 0 -6
BITMAP
03fe00
03fe00
03fe00
1f8fc0
1f8fc0
1f8fc0
000000
000000
000000
fc01f8
fc01f8
fc01f8
fc01f8
fc01f8
fc01f8
fc01f8
fc01f8
fc01f8
fc01f8
fc01f8
fc01f8
fc71f8
fc71f8
fc71f8
fc71f8
fc71f8
fc71f8
fffff8
fffff8
fffff8
1f8fc0
1f8fc0
1f8fc0
000000
000000
000000
000000
000000
000000
ENDCHAR
STARTCHAR wcircumflex
ENCODING 373
SWIDTH 568 0
DWIDTH 24 0
BBX 24 39 0 -6
BITMAP
000000
000000
000000
03fe00
03fe00
03fe00
1f8fc0
1f8fc0
1f8fc0
000000
000000
000000
fc01f8
fc01f8
fc01f8
fc01f8
fc01f8
fc01f8
fc01f8
fc01f8
fc01f8
fc71f8
fc71f8
fc71f8
fc71f8
fc71f8
fc71f8
fffff8
fffff8
fffff8
1f8fc0
1f8fc0
1f8fc0
000000
000000
000000
000000
000000
000000
ENDCHAR
STARTCHAR Ycircumflex
ENCODING 374
SWIDTH 568 0
DWIDTH 24 0
BBX 24 39 0 -6
BITMAP
03fe00
03fe00
03fe00
1f8fc0
1f8fc0
1f8fc0
000000
000000
000000
1f81f8
1f81f8
1f81f8
1f81f8
1f81f8
1f81f8
1f81f8
1f81f8
1f81f8
03ffc0
03ffc0
03ffc0
03ffc0
03ffc0
03ffc0
007e00
007e00
007e00
007e00
007e00
007e00
007e00
007e00
007e00
000000
000000
000000
000000
000000
000000
ENDCHAR
STARTCHAR ycircumflex
ENCODING 375
SWIDTH 568 0
DWIDTH 24 0
BBX 24 39 0 -6
BITMAP
000000
000000
000000
03fe00
03fe00
03fe00
1f8fc0
1f8fc0
1f8fc0
000000
000000
000000
fc01f8
fc01f8
fc01f8
fc01f8
fc01f8
fc01f8
fc01f8
fc01f8
fc01f8
fc01f8
fc01f8
fc01f8
fc0ff8
fc0ff8
fc0ff8
1ff1f8
1ff1f8
1ff1f8
0001f8
0001f8
0001f8
fc01f8
fc01f8
fc01f8
1fffc0
1fffc0
1fffc0
ENDCHAR
STARTCHAR Ydieresis
ENCODING 376
SWIDTH 568 0
DWIDTH 24 0
BBX 24 39 0 -6
BITMAP
1f81f8
1f81f8
1f81f8
1f81f8
1f81f8
1f81f8
000000
000000
000000
1f81f8
1f81f8
1f81f8
1f81f8
1f81f8
1f81f8
1f81f8
1f81f8
1f81f8
03ffc0
03ffc0
03ffc0
03ffc0
03ffc0
03ffc0
007e00
007e00
007e00
007e00
007e00
007e00
007e00
007e00
007e00
000000
000000
000000
000000
000000
000000
ENDCHAR
STARTCHAR Zacute
ENCODING 377
SWIDTH 568 0
DWIDTH 24 0
BBX 24 39 0 -6
BITMAP
000000
000000
000000
007e00
007e00
007e00
03f000
03f000
03f000
000000
000000
000000
fffff8
fffff8
fffff8
000fc0
000fc0
000fc0
007e00
007e00
007e00
03f000
03f000
03f000
1f8000
1f8000
1f8000
fc0000
fc0000
fc0000
fffff8
fffff8
fffff8
000000
000000
000000
000000
000000
000000
ENDCHAR
STARTCHAR zacute
ENCODING 378
SWIDTH 568 0
DWIDTH 24 0
BBX 24 39 0 -6
BITMAP
000000
000000
000000
000000
000000
000000
007e00
007e00
007e00
03f000
03f000
03f000
000000
000000
000000
fffff8
fffff8
fffff8
000fc0
000fc0
000fc0
007e00
007e00
007e00
03f000
03f000
03f000
1f8000
1f8000
1f8000
fffff8
fffff8
fffff8
000000
000000
000000
000000
000000
000000
ENDCHAR
STARTCHAR Zdotaccent
ENCODING 379
SWIDTH 568 0
DWIDTH 24 0
BBX 24 39 0 -6
BITMAP
000000
000000
000000
007e00
007e00
007e00
007e00
007e00
007e00
000000
000000
000000
fffff8
fffff8
fffff8
000fc0
000fc0
000fc0
007e00
007e00
007e00
03f000
03f000
03f000
1f8000
1f8000
1f8000
fc0000
fc0000
fc0000
fffff8
fffff8
fffff8
000000
000000
000000
000000
000000
000000
ENDCHAR
STARTCHAR zdotaccent
ENCODING 380
SWIDTH 568 0
DWIDTH 24 0
BBX 24 39 0 -6
BITMAP
000000
000000
000000
000000
000000
000000
007e00
007e00
007e00
007e00
007e00
007e00
000000
000000
000000
fffff8
fffff8
fffff8
000fc0
000fc0
000fc0
007e00
007e00
007e00
03f000
03f000
03f000
1f8000
1f8000
1f8000
fffff8
fffff8
fffff8
000000
000000
000000
000000
000000
000000
ENDCHAR
STARTCHAR Zcaron
ENCODING 381
SWIDTH 568 0
DWIDTH 24 0
BBX 24 39 0 -6
BITMAP
000000
000000
000000
1f8fc0
1f8fc0
1f8fc0
03fe00
03fe00
03fe00
000000
000000
000000
fffff8
fffff8
fffff8
000fc0
000fc0
000fc0
007e00
007e00
007e00
03f000
03f000
03f000
1f8000
1f8000
1f8000
fc0000
fc0000
fc0000
fffff8
fffff8
fffff8
000000
000000
000000
000000
000000
000000
ENDCHAR
STARTCHAR zcaron
ENCODING 382
SWIDTH 568 0
DWIDTH 24 0
BBX 24 39 0 -6
BITMAP
000000
000000
000000
000000
000000
000000
1f8fc0
1f8fc0
1f8fc0
03fe00
03fe00
03fe00
000000
000000
000000
fffff8
fffff8
fffff8
000fc0
000fc0
000fc0
007e00
007e00
007e00
03f000
03f000
03f000
1f8000
1f8000
1f8000
fffff8
fffff8
fffff8
000000
000000
000000
000000
000000
000000
ENDCHAR
STARTCHAR longs
ENCODING 383
SWIDTH 568 0
DWIDTH 24 0
BBX 24 39 0 -6
BITMAP
000000
000000
000000
03ffc0
03ffc0
03ffc0
1f81f8
1f81f8
1f81f8
1f8000
1f8000
1f8000
1f8000
1f8000
1f8000
ff8000
ff8000
ff8000
1f8000
1f8000
1f8000
1f8000
1f8000
1f8000
1f8000
1f8000
1f8000
1f8000
1f8000
1f8000
1f8000
1f8000
1f8000
000000
000000
000000
000000
000000
000000
ENDCHAR
STARTCHAR uni0180
ENCODING 384
SWIDTH 568 0
DWIDTH 24 0
BBX 24 39 0 -6
BITMAP
000000
000000
000000
1f8000
1f8000
1f8000
fff000
fff000
fff000
1f8000
1f8000
1f8000
1f8fc0
1f8fc0
1f8fc0
1ff1f8
1ff1f8
1ff1f8
1f81f8
1f81f8
1f81f8
1f81f8
1f81f8
1f81f8
1f81f8
1f81f8
1f81f8
1f8fc0
1f8fc0
1f8fc0
03fe00
03fe00
03fe00
000000
000000
000000
000000
000000
000000
ENDCHAR
STARTCHAR uni0181
ENCODING 385
SWIDTH 568 0
DWIDTH 24 0
BBX 24 39 0 -6
BITMAP
000000
000000
000000
ffffc0
ffffc0
ffffc0
e3f1f8
e3f1f8
e3f1f8
e3f1f8
e3f1f8
e3f1f8
03f1f8
03f1f8
03f1f8
03ffc0
03ffc0
03ffc0
03f1f8
03f1f8
03f1f8
03f1f8
03f1f8
03f1f8
03f1f8
03f1f8
03f1f8
03f1f8
03f1f8
03f1f8
1fffc0
1fffc0
1fffc0
000000
000000
000000
000000
000000
000000
ENDCHAR
STARTCHAR uni0182
ENCODING 386
SWIDTH 568 0
DWIDTH 24 0
BBX 24 39 0 -6
BITMAP
000000
000000
000000
ffffc0
ffffc0
ffffc0
fc0000
fc0000
fc0000
fc0000
fc0000
fc0000
fc0000
fc0000
fc0000
ffffc0
ffffc0
ffffc0
fc01f8
fc01f8
fc01f8
fc01f8
fc01f8
fc01f8
fc01f8
fc01f8
fc01f8
fc01f8
fc01f8
fc01f8
ffffc0
ffffc0
ffffc0
000000
000000
000000
000000
000000
000000
ENDCHAR
STARTCHAR uni0183
ENCODING 387
SWIDTH 568 0
DWIDTH 24 0
BBX 24 39 0 -6
BITMAP
000000
000000
000000
1fffc0
1fffc0
1fffc0
1f8000
1f8000
1f8000
1f8000
1f8000
1f8000
1f8fc0
1f8fc0
1f8fc0
1ff1f8
1ff1f8
1ff1f8
1f81f8
1f81f8
1f81f8
1f81f8
1f81f8
1f81f8
1f81f8
1f81f8
1f81f8
1f8fc0
1f8fc0
1f8fc0
03fe00
03fe00
03fe00
000000
000000
000000
000000
000000
000000
ENDCHAR
STARTCHAR uni0184
ENCODING 388
SWIDTH 568 0
DWIDTH 24 0
BBX 24 39 0 -6
BITMAP
000000
000000
000000
1f8000
1f8000
1f8000
ff8000
ff8000
ff8000
ff8000
ff8000
ff8000
1f8000
1f8000
1f8000
1fffc0
1fffc0
1fffc0
1f81f8
1f81f8
1f81f8
1f81f8
1f81f8
1f81f8
1f81f8
1f81f8
1f81f8
1f81f8
1f81f8
1f81f8
1fffc0
1fffc0
1fffc0
000000
000000
000000
000000
000000
000000
ENDCHAR
STARTCHAR uni0185
ENCODING 389
SWIDTH 568 0
DWIDTH 24 0
BBX 24 39 0 -6
BITMAP
000000
000000
000000
1f8000
1f8000
1f8000
ff8000
ff8000
ff8000
ff8000
ff8000
ff8000
1f8fc0
1f8fc0
1f8fc0
1ff1f8
1ff1f8
1ff1f8
1f81f8
1f81f8
1f81f8
1f81f8
1f81f8
1f81f8
1f81f8
1f81f8
1f81f8
1f8fc0
1f8fc0
1f8fc0
03fe00
03fe00
03fe00
000000
000000
000000
000000
000000
000000
ENDCHAR
STARTCHAR uni0186
ENCODING 390
SWIDTH 568 0
DWIDTH 24 0
BBX 24 39 0 -6
BITMAP
000000
000000
000000
1fffc0
1fffc0
1fffc0
fc0ff8
fc0ff8
fc0ff8
fc01f8
fc01f8
fc01f8
0001f8
0001f8
0001f8
0001f8
0001f8
0001f8
0001f8
0001f8
0001f8
0001f8
0001f8
0001f8
fc01f8
fc01f8
fc01f8
fc0ff8
fc0ff8
fc0ff8
1fffc0
1fffc0
1fffc0
000000
000000
000000
000000
000000
000000
ENDCHAR
STARTCHAR uni0187
ENCODING 391
SWIDTH 568 0
DWIDTH 24 0
BBX 24 39 0 -6
BITMAP
000007
000007
000007
1fffc7
1fffc7
1fffc7
ff81f8
ff81f8
ff81f8
fc01f8
fc01f8
fc01f8
fc0000
fc0000
fc0000
fc0000
fc0000
fc0000
fc0000
fc0000
fc0000
fc0000
fc0000
fc0000
fc01f8
fc01f8
fc01f8
ff81f8
ff81f8
ff81f8
1fffc0
1fffc0
1fffc0
000000
000000
000000
000000
000000
000000
ENDCHAR
STARTCHAR uni0188
ENCODING 392
SWIDTH 568 0
DWIDTH 24 0
BBX 24 39 0 -6
BITMAP
000000
000000
000000
000000
000000
000000
000000
000000
000000
000007
000007
000007
1fffc7
1fffc7
1fffc7
ff81f8
ff81f8
ff81f8
fc0000
fc0000
fc0000
fc0000
fc0000
fc0000
fc0000
fc0000
fc0000
ff81f8
ff81f8
ff81f8
1fffc0
1fffc0
1fffc0
000000
000000
000000
000000
000000
000000
ENDCHAR
STARTCHAR uni0189
ENCODING 393
SWIDTH 568 0
DWIDTH 24 0
BBX 24 39 0 -6
BITMAP
000000
000000
000000
ffffc0
ffffc0
ffffc0
1f81f8
1f81f8
1f81f8
1f81f8
1f81f8
1f81f8
1f81f8
1f81f8
1f81f8
fff1f8
fff1f8
fff1f8
1f81f8
1f81f8
1f81f8
1f81f8
1f81f8
1f81f8
1f81f8
1f81f8
1f81f8
1f81f8
1f81f8
1f81f8
ffffc0
ffffc0
ffffc0
000000
000000
000000
000000
000000
000000
ENDCHAR
STARTCHAR uni018A
ENCODING 394
SWIDTH 568 0
DWIDTH 24 0
BBX 24 39 0 -6
BITMAP
000000
000000
000000
ffffc0
ffffc0
ffffc0
e3f1f8
e3f1f8
e3f1f8
e3f1f8
e3f1f8
e3f1f8
03f1f8
03f1f8
03f1f8
03f1f8
03f1f8
03f1f8
03f1f8
03f1f8
03f1f8
03f1f8
03f1f8
03f1f8
03f1f8
03f1f8
03f1f8
03f1f8
03f1f8
03f1f8
1fffc0
1fffc0
1fffc0
000000
000000
000000
000000
000000
000000
ENDCHAR
STARTCHAR uni018B
ENCODING 395
SWIDTH 568 0
DWIDTH 24 0
BBX 24 39 0 -6
BITMAP
000000
000000
000000
1ffff8
1ffff8
1ffff8
0001f8
0001f8
0001f8
0001f8
0001f8
0001f8
0001f8
0001f8
0001f8
1ffff8
1ffff8
1ffff8
fc01f8
fc01f8
fc01f8
fc01f8
fc01f8
fc01f8
fc01f8
fc01f8
fc01f8
fc01f8
fc01f8
fc01f8
1ffff8
1ffff8
1ffff8
000000
000000
000000
000000
000000
000000
ENDCHAR
STARTCHAR uni018C
ENCODING 396
SWIDTH 568 0
DWIDTH 24 0
BBX 24 39 0 -6
BITMAP
000000
000000
000000
03fff8
03fff8
03fff8
0001f8
0001f8
0001f8
0001f8
0001f8
0001f8
03f1f8
03f1f8
03f1f8
1f8ff8
1f8ff8
1f8ff8
1f81f8
1f81f8
1f81f8
1f81f8
1f81f8
1f81f8
1f81f8
1f81f8
1f81f8
03f1f8
03f1f8
03f1f8
007fc0
007fc0
007fc0
000000
000000
000000
000000
000000
000000
ENDCHAR
STARTCHAR uni018D
ENCODING 397
SWIDTH 568 0
DWIDTH 24 0
BBX 24 39 0 -6
BITMAP
000000
000000
000000
000000
000000
000000
000000
000000
000000
000000
000000
000000
1fffc0
1fffc0
1fffc0
fc01f8
fc01f8
fc01f8
fc01f8
fc01f8
fc01f8
fc01f8
fc01f8
fc01f8
fc01f8
fc01f8
fc01f8
fc01f8
fc01f8
fc01f8
1fffc0
1fffc0
1fffc0
007e00
007e00
007e00
1ff000
1ff000
1ff000
ENDCHAR
STARTCHAR uni018E
ENCODING 398
SWIDTH 568 0
DWIDTH 24 0
BBX 24 39 0 -6
BITMAP
000000
000000
000000
fffff8
fffff8
fffff8
0001f8
0001f8
0001f8
0001f8
0001f8
0001f8
0001f8
0001f8
0001f8
03fff8
03fff8
03fff8
0001f8
0001f8
0001f8
0001f8
0001f8
0001f8
0001f8
0001f8
0001f8
0001f8
0001f8
0001f8
fffff8
fffff8
fffff8
000000
000000
000000
000000
000000
000000
ENDCHAR
STARTCHAR uni018F
ENCODING 399
SWIDTH 568 0
DWIDTH 24 0
BBX 24 39 0 -6
BITMAP
000000
000000
000000
000000
000000
000000
1fffc0
1fffc0
1fffc0
fc01f8
fc01f8
fc01f8
0001f8
0001f8
0001f8
0001f8
0001f8
0001f8
fffff8
fffff8
fffff8
fc01f8
fc01f8
fc01f8
fc01f8
fc01f8
fc01f8
fc01f8
fc01f8
fc01f8
1fffc0
1fffc0
1fffc0
000000
000000
000000
000000
000000
000000
ENDCHAR
STARTCHAR uni0190
ENCODING 400
SWIDTH 568 0
DWIDTH 24 0
BBX 24 39 0 -6
BITMAP
000000
000000
000000
1fffc0
1fffc0
1fffc0
fc01f8
fc01f8
fc01f8
fc0000
fc0000
fc0000
1f8000
1f8000
1f8000
03f000
03f000
03f000
1f8000
1f8000
1f8000
fc0000
fc0000
fc0000
fc0000
fc0000
fc0000
fc01f8
fc01f8
fc01f8
1fffc0
1fffc0
1fffc0
000000
000000
000000
000000
000000
000000
ENDCHAR
STARTCHAR uni0191
ENCODING 401
SWIDTH 568 0
DWIDTH 24 0
BBX 24 39 0 -6
BITMAP
000000
000000
000000
03ffff
03ffff
03ffff
03f000
03f000
03f000
03f000
03f000
03f000
03f000
03f000
03f000
03ffc0
03ffc0
03ffc0
03f000
03f000
03f000
03f000
03f000
03f000
03f000
03f000
03f000
03f000
03f000
03f000
03f000
03f000
03f000
e3f000
e3f000
e3f000
1f8000
1f8000
1f8000
ENDCHAR
STARTCHAR florin
ENCODING 402
SWIDTH 568 0
DWIDTH 24 0
BBX 24 39 0 -6
BITMAP
000000
000000
000000
000000
000000
000000
000ff8
000ff8
000ff8
007e3f
007e3f
007e3f
007e00
007e00
007e00
007e00
007e00
007e00
1ffff8
1ffff8
1ffff8
007e00
007e00
007e00
007e00
007e00
007e00
007e00
007e00
007e00
007e00
007e00
007e00
fc7e00
fc7e00
fc7e00
1ff000
1ff000
1ff000
ENDCHAR
STARTCHAR uni0193
ENCODING 403
SWIDTH 568 0
DWIDTH 24 0
BBX 24 39 0 -6
BITMAP
000007
000007
000007
1fffc7
1fffc7
1fffc7
fc01f8
fc01f8
fc01f8
fc01f8
fc01f8
fc01f8
fc0000
fc0000
fc0000
fc0000
fc0000
fc0000
fc0000
fc0000
fc0000
fc0ff8
fc0ff8
fc0ff8
fc01f8
fc01f8
fc01f8
fc01f8
fc01f8
fc01f8
1fffc0
1fffc0
1fffc0
000000
000000
000000
000000
000000
000000
ENDCHAR
STARTCHAR uni0194
ENCODING 404
SWIDTH 568 0
DWIDTH 24 0
BBX 24 39 0 -6
BITMAP
000000
000000
000000
fc01f8
fc01f8
fc01f8
fc01f8
fc01f8
fc01f8
fc01f8
fc01f8
fc01f8
fc01f8
fc01f8
fc01f8
1f8fc0
1f8fc0
1f8fc0
1f8fc0
1f8fc0
1f8fc0
03fe00
03fe00
03fe00
1f8fc0
1f8fc0
1f8fc0
1f8fc0
1f8fc0
1f8fc0
03fe00
03fe00
03fe00
000000
000000
000000
000000
000000
000000
ENDCHAR
STARTCHAR uni0195
ENCODING 405
SWIDTH 568 0
DWIDTH 24 0
BBX 24 39 0 -6
BITMAP
000000
000000
000000
fc0000
fc0000
fc0000
fc0000
fc0000
fc0000
fc0000
fc0000
fc0000
fff038
fff038
fff038
fc7e38
fc7e38
fc7e38
fc7e38
fc7e38
fc7e38
fc7e38
fc7e38
fc7e38
fc7e38
fc7e38
fc7e38
fc7e38
fc7e38
fc7e38
fc0fc0
fc0fc0
fc0fc0
000000
000000
000000
000000
000000
000000
ENDCHAR
STARTCHAR uni0196
ENCODING 406
SWIDTH 568 0
DWIDTH 24 0
BBX 24 39 0 -6
BITMAP
000000
000000
000000
03fe00
03fe00
03fe00
007e00
007e00
007e00
007e00
007e00
007e00
007e00
007e00
007e00
007e00
007e00
007e00
007e00
007e00
007e00
007e00
007e00
007e00
007e00
007e00
007e00
007e38
007e38
007e38
000fc0
000fc0
000fc0
000000
000000
000000
000000
000000
000000
ENDCHAR
STARTCHAR uni0197
ENCODING 407
SWIDTH 568 0
DWIDTH 24 0
BBX 24 39 0 -6
BITMAP
000000
000000
000000
03ffc0
03ffc0
03ffc0
007e00
007e00
007e00
007e00
007e00
007e00
007e00
007e00
007e00
1ffff8
1ffff8
1ffff8
007e00
007e00
007e00
007e00
007e00
007e00
007e00
007e00
007e00
007e00
007e00
007e00
03ffc0
03ffc0
03ffc0
000000
000000
000000
000000
000000
000000
ENDCHAR
STARTCHAR uni0198
ENCODING 408
SWIDTH 568 0
DWIDTH 24 0
BBX 24 39 0 -6
BITMAP
000000
000000
000000
fc0fc0
fc0fc0
fc0fc0
fc0e38
fc0e38
fc0e38
fc7e38
fc7e38
fc7e38
fff000
fff000
fff000
ff8000
ff8000
ff8000
fff000
fff000
fff000
fc7e00
fc7e00
fc7e00
fc0fc0
fc0fc0
fc0fc0
fc01f8
fc01f8
fc01f8
fc01f8
fc01f8
fc01f8
000000
000000
000000
000000
000000
000000
ENDCHAR
STARTCHAR uni0199
ENCODING 409
SWIDTH 568 0
DWIDTH 24 0
BBX 24 39 0 -6
BITMAP
000000
000000
000000
1ff000
1ff000
1ff000
fc0e00
fc0e00
fc0e00
fc0000
fc0000
fc0000
fc0fc0
fc0fc0
fc0fc0
fc7e00
fc7e00
fc7e00
fff000
fff000
fff000
fff000
fff000
fff000
fc7e00
fc7e00
fc7e00
fc0fc0
fc0fc0
fc0fc0
fc01f8
fc01f8
fc01f8
000000
000000
000000
000000
000000
000000
ENDCHAR
STARTCHAR uni019A
ENCODING 410
SWIDTH 568 0
DWIDTH 24 0
BBX 24 39 0 -6
BITMAP
000000
000000
000000
03fe00
03fe00
03fe00
007e00
007e00
007e00
007e00
007e00
007e00
007e00
007e00
007e00
1ffff8
1ffff8
1ffff8
007e00
007e00
007e00
007e00
007e00
007e00
007e00
007e00
007e00
007e00
007e00
007e00
1ffff8
1ffff8
1ffff8
000000
000000
000000
000000
000000
000000
ENDCHAR
STARTCHAR uni019B
ENCODING 411
SWIDTH 568 0
DWIDTH 24 0
BBX 24 39 0 -6
BITMAP
000000
000000
000000
fc7e00
fc7e00
fc7e00
1ff000
1ff000
1ff000
fff000
fff000
fff000
e07e00
e07e00
e07e00
03fe00
03fe00
03fe00
1f8fc0
1f8fc0
1f8fc0
1f8fc0
1f8fc0
1f8fc0
fc01f8
fc01f8
fc01f8
fc01f8
fc01f8
fc01f8
fc01f8
fc01f8
fc01f8
000000
000000
000000
000000
000000
000000
ENDCHAR
STARTCHAR uni019C
ENCODING 412
SWIDTH 568 0
DWIDTH 24 0
BBX 24 39 0 -6
BITMAP
000000
000000
000000
fc01f8
fc01f8
fc01f8
fc01f8
fc01f8
fc01f8
fc01f8
fc01f8
fc01f8
fc71f8
fc71f8
fc71f8
fc71f8
fc71f8
fc71f8
fc71f8
fc71f8
fc71f8
fc71f8
fc71f8
fc71f8
fc71f8
fc71f8
fc71f8
fffff8
fffff8
fffff8
1f8e3f
1f8e3f
1f8e3f
000000
000000
000000
000000
000000
000000
ENDCHAR
STARTCHAR uni019D
ENCODING 413
SWIDTH 568 0
DWIDTH 24 0
BBX 24 39 0 -6
BITMAP
000000
000000
000000
1f81f8
1f81f8
1f81f8
1f81f8
1f81f8
1f81f8
1f81f8
1f81f8
1f81f8
1ff1f8
1ff1f8
1ff1f8
1ff1f8
1ff1f8
1ff1f8
1ffff8
1ffff8
1ffff8
1f8ff8
1f8ff8
1f8ff8
1f81f8
1f81f8
1f81f8
1f81f8
1f81f8
1f81f8
1f81f8
1f81f8
1f81f8
1f8000
1f8000
1f8000
fc0000
fc0000
fc0000
ENDCHAR
STARTCHAR uni019E
ENCODING 414
SWIDTH 568 0
DWIDTH 24 0
BBX 24 39 0 -6
BITMAP
000000
000000
000000
000000
000000
000000
000000
000000
000000
000000
000000
000000
fc7fc0
fc7fc0
fc7fc0
ff81f8
ff81f8
ff81f8
fc01f8
fc01f8
fc01f8
fc01f8
fc01f8
fc01f8
fc01f8
fc01f8
fc01f8
fc01f8
fc01f8
fc01f8
fc01f8
fc01f8
fc01f8
0001f8
0001f8
0001f8
0001f8
0001f8
0001f8
ENDCHAR
STARTCHAR uni019F
ENCODING 415
SWIDTH 568 0
DWIDTH 24 0
BBX 24 39 0 -6
BITMAP
000000
000000
000000
1fffc0
1fffc0
1fffc0
fc01f8
fc01f8
fc01f8
fc01f8
fc01f8
fc01f8
fc01f8
fc01f8
fc01f8
fffff8
fffff8
fffff8
fc01f8
fc01f8
fc01f8
fc01f8
fc01f8
fc01f8
fc01f8
fc01f8
fc01f8
fc01f8
fc01f8
fc01f8
1fffc0
1fffc0
1fffc0
000000
000000
000000
000000
000000
000000
ENDCHAR
STARTCHAR Ohorn
ENCODING 416
SWIDTH 568 0
DWIDTH 24 0
BBX 24 39 0 -6
BITMAP
000000
000000
000000
1ffe07
1ffe07
1ffe07
fc0fc7
fc0fc7
fc0fc7
fc0ff8
fc0ff8
fc0ff8
fc0fc0
fc0fc0
fc0fc0
fc0fc0
fc0fc0
fc0fc0
fc0fc0
fc0fc0
fc0fc0
fc0fc0
fc0fc0
fc0fc0
fc0fc0
fc0fc0
fc0fc0
fc0fc0
fc0fc0
fc0fc0
1ffe00
1ffe00
1ffe00
000000
000000
000000
000000
000000
000000
ENDCHAR
STARTCHAR ohorn
ENCODING 417
SWIDTH 568 0
DWIDTH 24 0
BBX 24 39 0 -6
BITMAP
000000
000000
000000
000000
000000
000000
000000
000000
000000
000000
000000
000000
1ffe07
1ffe07
1ffe07
fc0fc7
fc0fc7
fc0fc7
fc0ff8
fc0ff8
fc0ff8
fc0fc0
fc0fc0
fc0fc0
fc0fc0
fc0fc0
fc0fc0
fc0fc0
fc0fc0
fc0fc0
1ffe00
1ffe00
1ffe00
000000
000000
000000
000000
000000
000000
ENDCHAR
STARTCHAR uni01A2
ENCODING 418
SWIDTH 568 0
DWIDTH 24 0
BBX 24 39 0 -6
BITMAP
000000
000000
000000
1ff1c0
1ff1c0
1ff1c0
fc7e38
fc7e38
fc7e38
fc7e38
fc7e38
fc7e38
fc7e38
fc7e38
fc7e38
fc7e38
fc7e38
fc7e38
fc7e38
fc7e38
fc7e38
fc7e38
fc7e38
fc7e38
fc7e38
fc7e38
fc7e38
fc7e38
fc7e38
fc7e38
1ff038
1ff038
1ff038
000038
000038
000038
000038
000038
000038
ENDCHAR
STARTCHAR uni01A3
ENCODING 419
SWIDTH 568 0
DWIDTH 24 0
BBX 24 39 0 -6
BITMAP
000000
000000
000000
000000
000000
000000
000000
000000
000000
000000
000000
000000
1ff1c0
1ff1c0
1ff1c0
fc7e38
fc7e38
fc7e38
fc7e38
fc7e38
fc7e38
fc7e38
fc7e38
fc7e38
fc7e38
fc7e38
fc7e38
fc7e38
fc7e38
fc7e38
1ff038
1ff038
1ff038
000038
000038
000038
000038
000038
000038
ENDCHAR
STARTCHAR uni01A4
ENCODING 420
SWIDTH 568 0
DWIDTH 24 0
BBX 24 39 0 -6
BITMAP
000000
000000
000000
ffffc0
ffffc0
ffffc0
e3f1f8
e3f1f8
e3f1f8
e3f1f8
e3f1f8
e3f1f8
03f1f8
03f1f8
03f1f8
03f1f8
03f1f8
03f1f8
03ffc0
03ffc0
03ffc0
03f000
03f000
03f000
03f000
03f000
03f000
03f000
03f000
03f000
03f000
03f000
03f000
000000
000000
000000
000000
000000
000000
ENDCHAR
STARTCHAR uni01A5
ENCODING 421
SWIDTH 568 0
DWIDTH 24 0
BBX 24 39 0 -6
BITMAP
000000
000000
000000
000000
000000
000000
000000
000000
000000
000000
000000
000000
fc7e07
fc7e07
fc7e07
ff8fc7
ff8fc7
ff8fc7
fc0ff8
fc0ff8
fc0ff8
fc0fc0
fc0fc0
fc0fc0
fc0fc0
fc0fc0
fc0fc0
ff8fc0
ff8fc0
ff8fc0
fc7e00
fc7e00
fc7e00
fc0000
fc0000
fc0000
fc0000
fc0000
fc0000
ENDCHAR
STARTCHAR uni01A6
ENCODING 422
SWIDTH 568 0
DWIDTH 24 0
BBX 24 39 0 -6
BITMAP
000000
000000
000000
fc0000
fc0000
fc0000
fc0000
fc0000
fc0000
ffffc0
ffffc0
ffffc0
fc01f8
fc01f8
fc01f8
fc01f8
fc01f8
fc01f8
fc01f8
fc01f8
fc01f8
ffffc0
ffffc0
ffffc0
fffe00
fffe00
fffe00
fc0fc0
fc0fc0
fc0fc0
fc0fc0
fc0fc0
fc0fc0
0001f8
0001f8
0001f8
0001f8
0001f8
0001f8
ENDCHAR
STARTCHAR uni01A7
ENCODING 423
SWIDTH 568 0
DWIDTH 24 0
BBX 24 39 0 -6
BITMAP
000000
000000
000000
1fffc0
1fffc0
1fffc0
fc01f8
fc01f8
fc01f8
fc01f8
fc01f8
fc01f8
0001f8
0001f8
0001f8
1fffc0
1fffc0
1fffc0
fc0000
fc0000
fc0000
fc0000
fc0000
fc0000
fc01f8
fc01f8
fc01f8
fc01f8
fc01f8
fc01f8
1fffc0
1fffc0
1fffc0
000000
000000
000000
000000
000000
000000
ENDCHAR
STARTCHAR uni01A8
ENCODING 424
SWIDTH 568 0
DWIDTH 24 0
BBX 24 39 0 -6
BITMAP
000000
000000
000000
000000
000000
000000
000000
000000
000000
000000
000000
000000
1fffc0
1fffc0
1fffc0
fc01f8
fc01f8
fc01f8
000fc0
000fc0
000fc0
03fe00
03fe00
03fe00
1f8000
1f8000
1f8000
fc01f8
fc01f8
fc01f8
1fffc0
1fffc0
1fffc0
000000
000000
000000
000000
000000
000000
ENDCHAR
STARTCHAR uni01A9
ENCODING 425
SWIDTH 568 0
DWIDTH 24 0
BBX 24 39 0 -6
BITMAP
000000
000000
000000
fffff8
fffff8
fffff8
fc0038
fc0038
fc0038
fc0000
fc0000
fc0000
1f8000
1f8000
1f8000
03f000
03f000
03f000
03f000
03f000
03f000
1f8000
1f8000
1f8000
fc0000
fc0000
fc0000
fc0038
fc0038
fc0038
fffff8
fffff8
fffff8
000000
000000
000000
000000
000000
000000
ENDCHAR
STARTCHAR uni01AA
ENCODING 426
SWIDTH 568 0
DWIDTH 24 0
BBX 24 39 0 -6
BITMAP
000000
000000
000000
1ff000
1ff000
1ff000
e07e00
e07e00
e07e00
e07e00
e07e00
e07e00
1ffe00
1ffe00
1ffe00
007e00
007e00
007e00
007e00
007e00
007e00
007e00
007e00
007e00
007e00
007e00
007e00
007e38
007e38
007e38
007e38
007e38
007e38
000fc0
000fc0
000fc0
000000
000000
000000
ENDCHAR
STARTCHAR uni01AB
ENCODING 427
SWIDTH 568 0
DWIDTH 24 0
BBX 24 39 0 -6
BITMAP
000000
000000
000000
1f8000
1f8000
1f8000
1f8000
1f8000
1f8000
1f8000
1f8000
1f8000
1f8000
1f8000
1f8000
ffffc0
ffffc0
ffffc0
1f8000
1f8000
1f8000
1f8000
1f8000
1f8000
1f8000
1f8000
1f8000
1f8fc0
1f8fc0
1f8fc0
03f1f8
03f1f8
03f1f8
0001f8
0001f8
0001f8
000fc0
000fc0
000fc0
ENDCHAR
STARTCHAR uni01AC
ENCODING 428
SWIDTH 568 0
DWIDTH 24 0
BBX 24 39 0 -6
BITMAP
000000
000000
000000
fffff8
fffff8
fffff8
e07e00
e07e00
e07e00
e07e00
e07e00
e07e00
007e00
007e00
007e00
007e00
007e00
007e00
007e00
007e00
007e00
007e00
007e00
007e00
007e00
007e00
007e00
007e00
007e00
007e00
007e00
007e00
007e00
000000
000000
000000
000000
000000
000000
ENDCHAR
STARTCHAR uni01AD
ENCODING 429
SWIDTH 568 0
DWIDTH 24 0
BBX 24 39 0 -6
BITMAP
000000
000000
000000
03fe00
03fe00
03fe00
1f81c0
1f81c0
1f81c0
1f8000
1f8000
1f8000
1f8000
1f8000
1f8000
ffffc0
ffffc0
ffffc0
1f8000
1f8000
1f8000
1f8000
1f8000
1f8000
1f8000
1f8000
1f8000
1f81f8
1f81f8
1f81f8
03ffc0
03ffc0
03ffc0
000000
000000
000000
000000
000000
000000
ENDCHAR
STARTCHAR uni01AE
ENCODING 430
SWIDTH 568 0
DWIDTH 24 0
BBX 24 39 0 -6
BITMAP
000000
000000
000000
ffffc0
ffffc0
ffffc0
03f000
03f000
03f000
03f000
03f000
03f000
03f000
03f000
03f000
03f000
03f000
03f000
03f000
03f000
03f000
03f000
03f000
03f000
03f000
03f000
03f000
03f038
03f038
03f038
03f038
03f038
03f038
007fc0
007fc0
007fc0
000000
000000
000000
ENDCHAR
STARTCHAR Uhorn
ENCODING 431
SWIDTH 568 0
DWIDTH 24 0
BBX 24 39 0 -6
BITMAP
000000
000000
000000
fc0fc7
fc0fc7
fc0fc7
fc0fc7
fc0fc7
fc0fc7
fc0ff8
fc0ff8
fc0ff8
fc0fc0
fc0fc0
fc0fc0
fc0fc0
fc0fc0
fc0fc0
fc0fc0
fc0fc0
fc0fc0
fc0fc0
fc0fc0
fc0fc0
fc0fc0
fc0fc0
fc0fc0
fc0fc0
fc0fc0
fc0fc0
1ffe00
1ffe00
1ffe00
000000
000000
000000
000000
000000
000000
ENDCHAR
STARTCHAR uhorn
ENCODING 432
SWIDTH 568 0
DWIDTH 24 0
BBX 24 39 0 -6
BITMAP
000000
000000
000000
000000
000000
000000
000000
000000
000000
000000
000000
000000
fc0fc7
fc0fc7
fc0fc7
fc0fc7
fc0fc7
fc0fc7
fc0ff8
fc0ff8
fc0ff8
fc0fc0
fc0fc0
fc0fc0
fc0fc0
fc0fc0
fc0fc0
fc7fc0
fc7fc0
fc7fc0
1f8fc0
1f8fc0
1f8fc0
000000
000000
000000
000000
000000
000000
ENDCHAR
STARTCHAR uni01B1
ENCODING 433
SWIDTH 568 0
DWIDTH 24 0
BBX 24 39 0 -6
BITMAP
000000
000000
000000
fc01f8
fc01f8
fc01f8
1f8fc0
1f8fc0
1f8fc0
1f8fc0
1f8fc0
1f8fc0
1f8fc0
1f8fc0
1f8fc0
fc01f8
fc01f8
fc01f8
fc01f8
fc01f8
fc01f8
fc01f8
fc01f8
fc01f8
fc01f8
fc01f8
fc01f8
fc01f8
fc01f8
fc01f8
1fffc0
1fffc0
1fffc0
000000
000000
000000
000000
000000
000000
ENDCHAR
STARTCHAR uni01B2
ENCODING 434
SWIDTH 568 0
DWIDTH 24 0
BBX 24 39 0 -6
BITMAP
000000
000000
000000
fc7e00
fc7e00
fc7e00
fc0fc0
fc0fc0
fc0fc0
fc0fc0
fc0fc0
fc0fc0
fc01f8
fc01f8
fc01f8
fc01f8
fc01f8
fc01f8
fc01f8
fc01f8
fc01f8
fc01f8
fc01f8
fc01f8
fc01f8
fc01f8
fc01f8
fc01f8
fc01f8
fc01f8
1fffc0
1fffc0
1fffc0
000000
000000
000000
000000
000000
000000
ENDCHAR
STARTCHAR uni01B3
ENCODING 435
SWIDTH 568 0
DWIDTH 24 0
BBX 24 39 0 -6
BITMAP
000000
000000
000000
000000
000000
000000
ff81f8
ff81f8
ff81f8
e3f1f8
e3f1f8
e3f1f8
e3f1f8
e3f1f8
e3f1f8
03ffc0
03ffc0
03ffc0
007fc0
007fc0
007fc0
007e00
007e00
007e00
007e00
007e00
007e00
007e00
007e00
007e00
007e00
007e00
007e00
000000
000000
000000
000000
000000
000000
ENDCHAR
STARTCHAR uni01B4
ENCODING 436
SWIDTH 568 0
DWIDTH 24 0
BBX 24 39 0 -6
BITMAP
000000
000000
000000
000000
000000
000000
000000
000000
000000
000038
000038
000038
fc0fc7
fc0fc7
fc0fc7
fc0fc7
fc0fc7
fc0fc7
fc0fc0
fc0fc0
fc0fc0
fc0fc0
fc0fc0
fc0fc0
fc7fc0
fc7fc0
fc7fc0
1f8fc0
1f8fc0
1f8fc0
000fc0
000fc0
000fc0
fc0fc0
fc0fc0
fc0fc0
1ffe00
1ffe00
1ffe00
ENDCHAR
STARTCHAR uni01B5
ENCODING 437
SWIDTH 568 0
DWIDTH 24 0
BBX 24 39 0 -6
BITMAP
000000
000000
000000
fffff8
fffff8
fffff8
0001f8
0001f8
0001f8
0001f8
0001f8
0001f8
000fc0
000fc0
000fc0
fffff8
fffff8
fffff8
03f000
03f000
03f000
1f8000
1f8000
1f8000
fc0000
fc0000
fc0000
fc0000
fc0000
fc0000
fffff8
fffff8
fffff8
000000
000000
000000
000000
000000
000000
ENDCHAR
STARTCHAR uni01B6
ENCODING 438
SWIDTH 568 0
DWIDTH 24 0
BBX 24 39 0 -6
BITMAP
000000
000000
000000
000000
000000
000000
000000
000000
000000
000000
000000
000000
fffff8
fffff8
fffff8
000fc0
000fc0
000fc0
007e00
007e00
007e00
ffffc0
ffffc0
ffffc0
1f8000
1f8000
1f8000
fc0000
fc0000
fc0000
fffff8
fffff8
fffff8
000000
000000
000000
000000
000000
000000
ENDCHAR
STARTCHAR uni01B7
ENCODING 439
SWIDTH 568 0
DWIDTH 24 0
BBX 24 39 0 -6
BITMAP
000000
000000
000000
fffff8
fffff8
fffff8
0001f8
0001f8
0001f8
000fc0
000fc0
000fc0
007e00
007e00
007e00
03ffc0
03ffc0
03ffc0
0001f8
0001f8
0001f8
0001f8
0001f8
0001f8
e001f8
e001f8
e001f8
fc0fc0
fc0fc0
fc0fc0
1ffe00
1ffe00
1ffe00
000000
000000
000000
000000
000000
000000
ENDCHAR
STARTCHAR uni01B8
ENCODING 440
SWIDTH 568 0
DWIDTH 24 0
BBX 24 39 0 -6
BITMAP
000000
000000
000000
fffff8
fffff8
fffff8
fc0000
fc0000
fc0000
1f8000
1f8000
1f8000
03f000
03f000
03f000
1ffe00
1ffe00
1ffe00
fc0000
fc0000
fc0000
fc0000
fc0000
fc0000
fc0038
fc0038
fc0038
1f81f8
1f81f8
1f81f8
03ffc0
03ffc0
03ffc0
000000
000000
000000
000000
000000
000000
ENDCHAR
STARTCHAR uni01B9
ENCODING 441
SWIDTH 568 0
DWIDTH 24 0
BBX 24 39 0 -6
BITMAP
000000
000000
000000
000000
000000
000000
000000
000000
000000
000000
000000
000000
fffff8
fffff8
fffff8
1f8000
1f8000
1f8000
03f000
03f000
03f000
1ffe00
1ffe00
1ffe00
fc0000
fc0000
fc0000
fc0000
fc0000
fc0000
fc0038
fc0038
fc0038
1f81f8
1f81f8
1f81f8
03ffc0
03ffc0
03ffc0
ENDCHAR
STARTCHAR uni01BA
ENCODING 442
SWIDTH 568 0
DWIDTH 24 0
BBX 24 39 0 -6
BITMAP
000000
000000
000000
000000
000000
000000
000000
000000
000000
1ffff8
1ffff8
1ffff8
000fc0
000fc0
000fc0
007e00
007e00
007e00
03ffc0
03ffc0
03ffc0
0001f8
0001f8
0001f8
0001f8
0001f8
0001f8
000fc0
000fc0
000fc0
03fe00
03fe00
03fe00
1f8038
1f8038
1f8038
03ffc0
03ffc0
03ffc0
ENDCHAR
STARTCHAR uni01BB
ENCODING 443
SWIDTH 568 0
DWIDTH 24 0
BBX 24 39 0 -6
BITMAP
000000
000000
000000
1fffc0
1fffc0
1fffc0
fc01f8
fc01f8
fc01f8
fc01f8
fc01f8
fc01f8
0001f8
0001f8
0001f8
000fc0
000fc0
000fc0
fffff8
fffff8
fffff8
03f000
03f000
03f000
1f8000
1f8000
1f8000
fc0000
fc0000
fc0000
fffff8
fffff8
fffff8
000000
000000
000000
000000
000000
000000
ENDCHAR
STARTCHAR uni01BC
ENCODING 444
SWIDTH 568 0
DWIDTH 24 0
BBX 24 39 0 -6
BITMAP
000000
000000
000000
fffff8
fffff8
fffff8
fc0038
fc0038
fc0038
fc0000
fc0000
fc0000
fc7fc0
fc7fc0
fc7fc0
ff81f8
ff81f8
ff81f8
0001f8
0001f8
0001f8
0001f8
0001f8
0001f8
0001f8
0001f8
0001f8
fc01f8
fc01f8
fc01f8
1fffc0
1fffc0
1fffc0
000000
000000
000000
000000
000000
000000
ENDCHAR
STARTCHAR uni01BD
ENCODING 445
SWIDTH 568 0
DWIDTH 24 0
BBX 24 39 0 -6
BITMAP
000000
000000
000000
000000
000000
000000
1ffff8
1ffff8
1ffff8
1f8038
1f8038
1f8038
1f8000
1f8000
1f8000
1f8fc0
1f8fc0
1f8fc0
1ff1f8
1ff1f8
1ff1f8
0001f8
0001f8
0001f8
0001f8
0001f8
0001f8
1f81f8
1f81f8
1f81f8
03ffc0
03ffc0
03ffc0
000000
000000
000000
000000
000000
000000
ENDCHAR
STARTCHAR uni01BE
ENCODING 446
SWIDTH 568 0
DWIDTH 24 0
BBX 24 39 0 -6
BITMAP
000000
000000
000000
007e00
007e00
007e00
007e00
007e00
007e00
1ffff8
1ffff8
1ffff8
007e00
007e00
007e00
007fc0
007fc0
007fc0
0001f8
0001f8
0001f8
0001f8
0001f8
0001f8
0001f8
0001f8
0001f8
1f81f8
1f81f8
1f81f8
03ffc0
03ffc0
03ffc0
000000
000000
000000
000000
000000
000000
ENDCHAR
STARTCHAR uni01BF
ENCODING 447
SWIDTH 568 0
DWIDTH 24 0
BBX 24 39 0 -6
BITMAP
000000
000000
000000
000000
000000
000000
000000
000000
000000
007fc0
007fc0
007fc0
ff81f8
ff81f8
ff81f8
fc01f8
fc01f8
fc01f8
fc01f8
fc01f8
fc01f8
fc01f8
fc01f8
fc01f8
fc0fc0
fc0fc0
fc0fc0
fc7e00
fc7e00
fc7e00
fff000
fff000
fff000
fc0000
fc0000
fc0000
fc0000
fc0000
fc0000
ENDCHAR
STARTCHAR uni01C0
ENCODING 448
SWIDTH 568 0
DWIDTH 24 0
BBX 24 39 0 -6
BITMAP
000000
000000
000000
007e00
007e00
007e00
007e00
007e00
007e00
007e00
007e00
007e00
007e00
007e00
007e00
007e00
007e00
007e00
007e00
007e00
007e00
007e00
007e00
007e00
007e00
007e00
007e00
007e00
007e00
007e00
007e00
007e00
007e00
007e00
007e00
007e00
007e00
007e00
007e00
ENDCHAR
STARTCHAR uni01C1
ENCODING 449
SWIDTH 568 0
DWIDTH 24 0
BBX 24 39 0 -6
BITMAP
000000
000000
000000
1f8fc0
1f8fc0
1f8fc0
1f8fc0
1f8fc0
1f8fc0
1f8fc0
1f8fc0
1f8fc0
1f8fc0
1f8fc0
1f8fc0
1f8fc0
1f8fc0
1f8fc0
1f8fc0
1f8fc0
1f8fc0
1f8fc0
1f8fc0
1f8fc0
1f8fc0
1f8fc0
1f8fc0
1f8fc0
1f8fc0
1f8fc0
1f8fc0
1f8fc0
1f8fc0
1f8fc0
1f8fc0
1f8fc0
1f8fc0
1f8fc0
1f8fc0
ENDCHAR
STARTCHAR uni01C2
ENCODING 450
SWIDTH 568 0
DWIDTH 24 0
BBX 24 39 0 -6
BITMAP
000000
000000
000000
007e00
007e00
007e00
007e00
007e00
007e00
007e00
007e00
007e00
007e00
007e00
007e00
1ffff8
1ffff8
1ffff8
007e00
007e00
007e00
1ffff8
1ffff8
1ffff8
007e00
007e00
007e00
007e00
007e00
007e00
007e00
007e00
007e00
007e00
007e00
007e00
007e00
007e00
007e00
ENDCHAR
STARTCHAR uni01C3
ENCODING 451
SWIDTH 568 0
DWIDTH 24 0
BBX 24 39 0 -6
BITMAP
000000
000000
000000
007e00
007e00
007e00
03ffc0
03ffc0
03ffc0
03ffc0
03ffc0
03ffc0
03ffc0
03ffc0
03ffc0
007e00
007e00
007e00
007e00
007e00
007e00
000000
000000
000000
000000
000000
000000
007e00
007e00
007e00
007e00
007e00
007e00
000000
000000
000000
000000
000000
000000
ENDCHAR
STARTCHAR uni01C4
ENCODING 452
SWIDTH 568 0
DWIDTH 24 0
BBX 24 39 0 -6
BITMAP
0001c7
0001c7
0001c7
fff038
fff038
fff038
fc7fff
fc7fff
fc7fff
fc7e07
fc7e07
fc7e07
fc7e07
fc7e07
fc7e07
fc7e38
fc7e38
fc7e38
fc7e38
fc7e38
fc7e38
fc7e38
fc7e38
fc7e38
fc7fc0
fc7fc0
fc7fc0
fc7fc0
fc7fc0
fc7fc0
fff1ff
fff1ff
fff1ff
000000
000000
000000
000000
000000
000000
ENDCHAR
STARTCHAR uni01C5
ENCODING 453
SWIDTH 568 0
DWIDTH 24 0
BBX 24 39 0 -6
BITMAP
0001c7
0001c7
0001c7
fff038
fff038
fff038
fc7e00
fc7e00
fc7e00
fc7e00
fc7e00
fc7e00
fc7fff
fc7fff
fc7fff
fc7e07
fc7e07
fc7e07
fc7e07
fc7e07
fc7e07
fc7e38
fc7e38
fc7e38
fc7fc0
fc7fc0
fc7fc0
fc7fc0
fc7fc0
fc7fc0
fff1ff
fff1ff
fff1ff
000000
000000
000000
000000
000000
000000
ENDCHAR
STARTCHAR uni01C6
ENCODING 454
SWIDTH 568 0
DWIDTH 24 0
BBX 24 39 0 -6
BITMAP
0001c7
0001c7
0001c7
007e38
007e38
007e38
007e00
007e00
007e00
007e00
007e00
007e00
1fffff
1fffff
1fffff
fc7e07
fc7e07
fc7e07
fc7e07
fc7e07
fc7e07
fc7e38
fc7e38
fc7e38
fc7fc0
fc7fc0
fc7fc0
fc7fc0
fc7fc0
fc7fc0
1fffff
1fffff
1fffff
000000
000000
000000
000000
000000
000000
ENDCHAR
STARTCHAR uni01C7
ENCODING 455
SWIDTH 568 0
DWIDTH 24 0
BBX 24 39 0 -6
BITMAP
000000
000000
000000
fc01ff
fc01ff
fc01ff
fc003f
fc003f
fc003f
fc003f
fc003f
fc003f
fc003f
fc003f
fc003f
fc003f
fc003f
fc003f
fc003f
fc003f
fc003f
fc003f
fc003f
fc003f
fc003f
fc003f
fc003f
fff03f
fff03f
fff03f
00003f
00003f
00003f
1f803f
1f803f
1f803f
03fff8
03fff8
03fff8
ENDCHAR
STARTCHAR uni01C8
ENCODING 456
SWIDTH 568 0
DWIDTH 24 0
BBX 24 39 0 -6
BITMAP
000000
000000
000000
fc0000
fc0000
fc0000
fc003f
fc003f
fc003f
fc003f
fc003f
fc003f
fc0000
fc0000
fc0000
fc01ff
fc01ff
fc01ff
fc003f
fc003f
fc003f
fc003f
fc003f
fc003f
fc003f
fc003f
fc003f
fff03f
fff03f
fff03f
00003f
00003f
00003f
1f803f
1f803f
1f803f
03fff8
03fff8
03fff8
ENDCHAR
STARTCHAR uni01C9
ENCODING 457
SWIDTH 568 0
DWIDTH 24 0
BBX 24 39 0 -6
BITMAP
000000
000000
000000
ff8000
ff8000
ff8000
1f803f
1f803f
1f803f
1f803f
1f803f
1f803f
1f8000
1f8000
1f8000
1f81ff
1f81ff
1f81ff
1f803f
1f803f
1f803f
1f803f
1f803f
1f803f
1f803f
1f803f
1f803f
fff03f
fff03f
fff03f
00003f
00003f
00003f
1f803f
1f803f
1f803f
03fff8
03fff8
03fff8
ENDCHAR
STARTCHAR uni01CA
ENCODING 458
SWIDTH 568 0
DWIDTH 24 0
BBX 24 39 0 -6
BITMAP
000000
000000
000000
fff03f
fff03f
fff03f
fffe3f
fffe3f
fffe3f
fc7e3f
fc7e3f
fc7e3f
fc7e3f
fc7e3f
fc7e3f
fc7e3f
fc7e3f
fc7e3f
fc7e3f
fc7e3f
fc7e3f
fc7e3f
fc7e3f
fc7e3f
fc7e3f
fc7e3f
fc7e3f
fc7e3f
fc7e3f
fc7e3f
00003f
00003f
00003f
1f803f
1f803f
1f803f
03fff8
03fff8
03fff8
ENDCHAR
STARTCHAR uni01CB
ENCODING 459
SWIDTH 568 0
DWIDTH 24 0
BBX 24 39 0 -6
BITMAP
000000
000000
000000
fff000
fff000
fff000
fffe3f
fffe3f
fffe3f
fc7e3f
fc7e3f
fc7e3f
fc7e00
fc7e00
fc7e00
fc7fff
fc7fff
fc7fff
fc7e3f
fc7e3f
fc7e3f
fc7e3f
fc7e3f
fc7e3f
fc7e3f
fc7e3f
fc7e3f
fc7e3f
fc7e3f
fc7e3f
00003f
00003f
00003f
1f803f
1f803f
1f803f
03fff8
03fff8
03fff8
ENDCHAR
STARTCHAR uni01CC
ENCODING 460
SWIDTH 568 0
DWIDTH 24 0
BBX 24 39 0 -6
BITMAP
000000
000000
000000
000000
000000
000000
000000
000000
000000
e3f03f
e3f03f
e3f03f
fc7e3f
fc7e3f
fc7e3f
fc7e00
fc7e00
fc7e00
fc7e3f
fc7e3f
fc7e3f
fc7e3f
fc7e3f
fc7e3f
fc7e3f
fc7e3f
fc7e3f
fc7e3f
fc7e3f
fc7e3f
00003f
00003f
00003f
1f803f
1f803f
1f803f
03fff8
03fff8
03fff8
ENDCHAR
STARTCHAR uni01CD
ENCODING 461
SWIDTH 568 0
DWIDTH 24 0
BBX 24 39 0 -6
BITMAP
000000
000000
000000
0381c0
0381c0
0381c0
007e00
007e00
007e00
000000
000000
000000
03fe00
03fe00
03fe00
1fffc0
1fffc0
1fffc0
fc01f8
fc01f8
fc01f8
fc01f8
fc01f8
fc01f8
fffff8
fffff8
fffff8
fc01f8
fc01f8
fc01f8
fc01f8
fc01f8
fc01f8
000000
000000
000000
000000
000000
000000
ENDCHAR
STARTCHAR uni01CE
ENCODING 462
SWIDTH 568 0
DWIDTH 24 0
BBX 24 39 0 -6
BITMAP
000000
000000
000000
0381c0
0381c0
0381c0
007e00
007e00
007e00
000000
000000
000000
1fffc0
1fffc0
1fffc0
0001f8
0001f8
0001f8
1ffff8
1ffff8
1ffff8
fc01f8
fc01f8
fc01f8
fc01f8
fc01f8
fc01f8
fc0ff8
fc0ff8
fc0ff8
1ff1f8
1ff1f8
1ff1f8
000000
000000
000000
000000
000000
000000
ENDCHAR
STARTCHAR uni01CF
ENCODING 463
SWIDTH 568 0
DWIDTH 24 0
BBX 24 39 0 -6
BITMAP
0381c0
0381c0
0381c0
007e00
007e00
007e00
000000
000000
000000
03ffc0
03ffc0
03ffc0
007e00
007e00
007e00
007e00
007e00
007e00
007e00
007e00
007e00
007e00
007e00
007e00
007e00
007e00
007e00
007e00
007e00
007e00
03ffc0
03ffc0
03ffc0
000000
000000
000000
000000
000000
000000
ENDCHAR
STARTCHAR uni01D0
ENCODING 464
SWIDTH 568 0
DWIDTH 24 0
BBX 24 39 0 -6
BITMAP
000000
000000
000000
000000
000000
000000
0381c0
0381c0
0381c0
007e00
007e00
007e00
000000
000000
000000
03fe00
03fe00
03fe00
007e00
007e00
007e00
007e00
007e00
007e00
007e00
007e00
007e00
007e00
007e00
007e00
03ffc0
03ffc0
03ffc0
000000
000000
000000
000000
000000
000000
ENDCHAR
STARTCHAR uni01D1
ENCODING 465
SWIDTH 568 0
DWIDTH 24 0
BBX 24 39 0 -6
BITMAP
0381c0
0381c0
0381c0
007e00
007e00
007e00
000000
000000
000000
1fffc0
1fffc0
1fffc0
fc01f8
fc01f8
fc01f8
fc01f8
fc01f8
fc01f8
fc01f8
fc01f8
fc01f8
fc01f8
fc01f8
fc01f8
fc01f8
fc01f8
fc01f8
fc01f8
fc01f8
fc01f8
1fffc0
1fffc0
1fffc0
000000
000000
000000
000000
000000
000000
ENDCHAR
STARTCHAR uni01D2
ENCODING 466
SWIDTH 568 0
DWIDTH 24 0
BBX 24 39 0 -6
BITMAP
000000
000000
000000
0381c0
0381c0
0381c0
007e00
007e00
007e00
000000
000000
000000
1fffc0
1fffc0
1fffc0
fc01f8
fc01f8
fc01f8
fc01f8
fc01f8
fc01f8
fc01f8
fc01f8
fc01f8
fc01f8
fc01f8
fc01f8
fc01f8
fc01f8
fc01f8
1fffc0
1fffc0
1fffc0
000000
000000
000000
000000
000000
000000
ENDCHAR
STARTCHAR uni01D3
ENCODING 467
SWIDTH 568 0
DWIDTH 24 0
BBX 24 39 0 -6
BITMAP
0381c0
0381c0
0381c0
007e00
007e00
007e00
000000
000000
000000
fc01f8
fc01f8
fc01f8
fc01f8
fc01f8
fc01f8
fc01f8
fc01f8
fc01f8
fc01f8
fc01f8
fc01f8
fc01f8
fc01f8
fc01f8
fc01f8
fc01f8
fc01f8
fc01f8
fc01f8
fc01f8
1fffc0
1fffc0
1fffc0
000000
000000
000000
000000
000000
000000
ENDCHAR
STARTCHAR uni01D4
ENCODING 468
SWIDTH 568 0
DWIDTH 24 0
BBX 24 39 0 -6
BITMAP
000000
000000
000000
0381c0
0381c0
0381c0
007e00
007e00
007e00
000000
000000
000000
fc01f8
fc01f8
fc01f8
fc01f8
fc01f8
fc01f8
fc01f8
fc01f8
fc01f8
fc01f8
fc01f8
fc01f8
fc01f8
fc01f8
fc01f8
fc0ff8
fc0ff8
fc0ff8
1ff1f8
1ff1f8
1ff1f8
000000
000000
000000
000000
000000
000000
ENDCHAR
STARTCHAR uni01D5
ENCODING 469
SWIDTH 568 0
DWIDTH 24 0
BBX 24 39 0 -6
BITMAP
1fffc0
1fffc0
1fffc0
000000
000000
000000
fc01f8
fc01f8
fc01f8
000000
000000
000000
fc01f8
fc01f8
fc01f8
fc01f8
fc01f8
fc01f8
fc01f8
fc01f8
fc01f8
fc01f8
fc01f8
fc01f8
fc01f8
fc01f8
fc01f8
fc01f8
fc01f8
fc01f8
1fffc0
1fffc0
1fffc0
000000
000000
000000
000000
000000
000000
ENDCHAR
STARTCHAR uni01D6
ENCODING 470
SWIDTH 568 0
DWIDTH 24 0
BBX 24 39 0 -6
BITMAP
1fffc0
1fffc0
1fffc0
000000
000000
000000
1c01c0
1c01c0
1c01c0
1c01c0
1c01c0
1c01c0
000000
000000
000000
fc01f8
fc01f8
fc01f8
fc01f8
fc01f8
fc01f8
fc01f8
fc01f8
fc01f8
fc01f8
fc01f8
fc01f8
fc0ff8
fc0ff8
fc0ff8
1ff1f8
1ff1f8
1ff1f8
000000
000000
000000
000000
000000
000000
ENDCHAR
STARTCHAR uni01D7
ENCODING 471
SWIDTH 568 0
DWIDTH 24 0
BBX 24 39 0 -6
BITMAP
000e00
000e00
000e00
007000
007000
007000
fc01f8
fc01f8
fc01f8
000000
000000
000000
fc01f8
fc01f8
fc01f8
fc01f8
fc01f8
fc01f8
fc01f8
fc01f8
fc01f8
fc01f8
fc01f8
fc01f8
fc01f8
fc01f8
fc01f8
fc01f8
fc01f8
fc01f8
1fffc0
1fffc0
1fffc0
000000
000000
000000
000000
000000
000000
ENDCHAR
STARTCHAR uni01D8
ENCODING 472
SWIDTH 568 0
DWIDTH 24 0
BBX 24 39 0 -6
BITMAP
000e00
000e00
000e00
007000
007000
007000
000000
000000
000000
fc01f8
fc01f8
fc01f8
000000
000000
000000
fc01f8
fc01f8
fc01f8
fc01f8
fc01f8
fc01f8
fc01f8
fc01f8
fc01f8
fc01f8
fc01f8
fc01f8
fc0ff8
fc0ff8
fc0ff8
1ff1f8
1ff1f8
1ff1f8
000000
000000
000000
000000
000000
000000
ENDCHAR
STARTCHAR uni01D9
ENCODING 473
SWIDTH 568 0
DWIDTH 24 0
BBX 24 39 0 -6
BITMAP
038e00
038e00
038e00
007000
007000
007000
fc01f8
fc01f8
fc01f8
000000
000000
000000
fc01f8
fc01f8
fc01f8
fc01f8
fc01f8
fc01f8
fc01f8
fc01f8
fc01f8
fc01f8
fc01f8
fc01f8
fc01f8
fc01f8
fc01f8
fc01f8
fc01f8
fc01f8
1fffc0
1fffc0
1fffc0
000000
000000
000000
000000
000000
000000
ENDCHAR
STARTCHAR uni01DA
ENCODING 474
SWIDTH 568 0
DWIDTH 24 0
BBX 24 39 0 -6
BITMAP
038e00
038e00
038e00
007000
007000
007000
000000
000000
000000
fc01f8
fc01f8
fc01f8
000000
000000
000000
fc01f8
fc01f8
fc01f8
fc01f8
fc01f8
fc01f8
fc01f8
fc01f8
fc01f8
fc01f8
fc01f8
fc01f8
fc0ff8
fc0ff8
fc0ff8
1ff1f8
1ff1f8
1ff1f8
000000
000000
000000
000000
000000
000000
ENDCHAR
STARTCHAR uni01DB
ENCODING 475
SWIDTH 568 0
DWIDTH 24 0
BBX 24 39 0 -6
BITMAP
038000
038000
038000
007000
007000
007000
fc01f8
fc01f8
fc01f8
000000
000000
000000
fc01f8
fc01f8
fc01f8
fc01f8
fc01f8
fc01f8
fc01f8
fc01f8
fc01f8
fc01f8
fc01f8
fc01f8
fc01f8
fc01f8
fc01f8
fc01f8
fc01f8
fc01f8
1fffc0
1fffc0
1fffc0
000000
000000
000000
000000
000000
000000
ENDCHAR
STARTCHAR uni01DC
ENCODING 476
SWIDTH 568 0
DWIDTH 24 0
BBX 24 39 0 -6
BITMAP
038000
038000
038000
007000
007000
007000
000000
000000
000000
fc01f8
fc01f8
fc01f8
000000
000000
000000
fc01f8
fc01f8
fc01f8
fc01f8
fc01f8
fc01f8
fc01f8
fc01f8
fc01f8
fc01f8
fc01f8
fc01f8
fc0ff8
fc0ff8
fc0ff8
1ff1f8
1ff1f8
1ff1f8
000000
000000
000000
000000
000000
000000
ENDCHAR
STARTCHAR uni01DD
ENCODING 477
SWIDTH 568 0
DWIDTH 24 0
BBX 24 39 0 -6
BITMAP
000000
000000
000000
000000
000000
000000
000000
000000
000000
000000
000000
000000
1fffc0
1fffc0
1fffc0
fc01f8
fc01f8
fc01f8
0001f8
0001f8
0001f8
fffff8
fffff8
fffff8
fc01f8
fc01f8
fc01f8
fc01f8
fc01f8
fc01f8
1fffc0
1fffc0
1fffc0
000000
000000
000000
000000
000000
000000
ENDCHAR
STARTCHAR uni01DE
ENCODING 478
SWIDTH 568 0
DWIDTH 24 0
BBX 24 39 0 -6
BITMAP
1fffc0
1fffc0
1fffc0
000000
000000
000000
1f8fc0
1f8fc0
1f8fc0
000000
000000
000000
03fe00
03fe00
03fe00
1fffc0
1fffc0
1fffc0
fc01f8
fc01f8
fc01f8
fc01f8
fc01f8
fc01f8
fffff8
fffff8
fffff8
fc01f8
fc01f8
fc01f8
fc01f8
fc01f8
fc01f8
000000
000000
000000
000000
000000
000000
ENDCHAR
STARTCHAR uni01DF
ENCODING 479
SWIDTH 568 0
DWIDTH 24 0
BBX 24 39 0 -6
BITMAP
1fffc0
1fffc0
1fffc0
000000
000000
000000
1f8fc0
1f8fc0
1f8fc0
000000
000000
000000
1fffc0
1fffc0
1fffc0
0001f8
0001f8
0001f8
1ffff8
1ffff8
1ffff8
fc01f8
fc01f8
fc01f8
fc01f8
fc01f8
fc01f8
fc0ff8
fc0ff8
fc0ff8
1ff1f8
1ff1f8
1ff1f8
000000
000000
000000
000000
000000
000000
ENDCHAR
STARTCHAR uni01E0
ENCODING 480
SWIDTH 568 0
DWIDTH 24 0
BBX 24 39 0 -6
BITMAP
1fffc0
1fffc0
1fffc0
000000
000000
000000
03f000
03f000
03f000
000000
000000
000000
03fe00
03fe00
03fe00
1fffc0
1fffc0
1fffc0
fc01f8
fc01f8
fc01f8
fc01f8
fc01f8
fc01f8
fffff8
fffff8
fffff8
fc01f8
fc01f8
fc01f8
fc01f8
fc01f8
fc01f8
000000
000000
000000
000000
000000
000000
ENDCHAR
STARTCHAR uni01E1
ENCODING 481
SWIDTH 568 0
DWIDTH 24 0
BBX 24 39 0 -6
BITMAP
1ffff8
1ffff8
1ffff8
000000
000000
000000
007e00
007e00
007e00
000000
000000
000000
1fffc0
1fffc0
1fffc0
0001f8
0001f8
0001f8
1ffff8
1ffff8
1ffff8
fc01f8
fc01f8
fc01f8
fc01f8
fc01f8
fc01f8
fc0ff8
fc0ff8
fc0ff8
1ff1f8
1ff1f8
1ff1f8
000000
000000
000000
000000
000000
000000
ENDCHAR
STARTCHAR uni01E2
ENCODING 482
SWIDTH 568 0
DWIDTH 24 0
BBX 24 39 0 -6
BITMAP
1ffff8
1ffff8
1ffff8
000000
000000
000000
1ffff8
1ffff8
1ffff8
fffe00
fffe00
fffe00
fc7e00
fc7e00
fc7e00
fc7e00
fc7e00
fc7e00
fc7e00
fc7e00
fc7e00
ffffc0
ffffc0
ffffc0
fc7e00
fc7e00
fc7e00
fc7e00
fc7e00
fc7e00
fc7ff8
fc7ff8
fc7ff8
000000
000000
000000
000000
000000
000000
ENDCHAR
STARTCHAR uni01E3
ENCODING 483
SWIDTH 568 0
DWIDTH 24 0
BBX 24 39 0 -6
BITMAP
000000
000000
000000
000000
000000
000000
1fffc0
1fffc0
1fffc0
000000
000000
000000
1f8fc0
1f8fc0
1f8fc0
fc7e38
fc7e38
fc7e38
007e38
007e38
007e38
1fffc0
1fffc0
1fffc0
fc7e00
fc7e00
fc7e00
fc7e38
fc7e38
fc7e38
1f8fc0
1f8fc0
1f8fc0
000000
000000
000000
000000
000000
000000
ENDCHAR
STARTCHAR uni01E4
ENCODING 484
SWIDTH 568 0
DWIDTH 24 0
BBX 24 39 0 -6
BITMAP
000000
000000
000000
1fffc0
1fffc0
1fffc0
fc01f8
fc01f8
fc01f8
fc01f8
fc01f8
fc01f8
fc0000
fc0000
fc0000
fc0000
fc0000
fc0000
fc0ff8
fc0ff8
fc0ff8
fc01f8
fc01f8
fc01f8
fc0fff
fc0fff
fc0fff
fc01f8
fc01f8
fc01f8
1fffc0
1fffc0
1fffc0
000000
000000
000000
000000
000000
000000
ENDCHAR
STARTCHAR uni01E5
ENCODING 485
SWIDTH 568 0
DWIDTH 24 0
BBX 24 39 0 -6
BITMAP
000000
000000
000000
000000
000000
000000
000000
000000
000000
03fff8
03fff8
03fff8
1f8fc0
1f8fc0
1f8fc0
1f8fc0
1f8fc0
1f8fc0
03fe00
03fe00
03fe00
1ff000
1ff000
1ff000
03ffc0
03ffc0
03ffc0
1f81f8
1f81f8
1f81f8
ffffff
ffffff
ffffff
1f81f8
1f81f8
1f81f8
03ffc0
03ffc0
03ffc0
ENDCHAR
STARTCHAR Gcaron
ENCODING 486
SWIDTH 568 0
DWIDTH 24 0
BBX 24 39 0 -6
BITMAP
0381c0
0381c0
0381c0
007e00
007e00
007e00
000000
000000
000000
1fffc0
1fffc0
1fffc0
fc01f8
fc01f8
fc01f8
fc01f8
fc01f8
fc01f8
fc0000
fc0000
fc0000
fc0ff8
fc0ff8
fc0ff8
fc01f8
fc01f8
fc01f8
fc01f8
fc01f8
fc01f8
1fffc0
1fffc0
1fffc0
000000
000000
000000
000000
000000
000000
ENDCHAR
STARTCHAR gcaron
ENCODING 487
SWIDTH 568 0
DWIDTH 24 0
BBX 24 39 0 -6
BITMAP
000000
000000
000000
0381c0
0381c0
0381c0
007e00
007e00
007e00
000000
000000
000000
1ffff8
1ffff8
1ffff8
fc0fc0
fc0fc0
fc0fc0
fc0fc0
fc0fc0
fc0fc0
fc0fc0
fc0fc0
fc0fc0
1ffe00
1ffe00
1ffe00
fff000
fff000
fff000
1fffc0
1fffc0
1fffc0
fc01f8
fc01f8
fc01f8
1fffc0
1fffc0
1fffc0
ENDCHAR
STARTCHAR uni01E8
ENCODING 488
SWIDTH 568 0
DWIDTH 24 0
BBX 24 39 0 -6
BITMAP
0381c0
0381c0
0381c0
007e00
007e00
007e00
000000
000000
000000
fc01f8
fc01f8
fc01f8
fc0fc0
fc0fc0
fc0fc0
fc7e00
fc7e00
fc7e00
fff000
fff000
fff000
fff000
fff000
fff000
fc7e00
fc7e00
fc7e00
fc0fc0
fc0fc0
fc0fc0
fc01f8
fc01f8
fc01f8
000000
000000
000000
000000
000000
000000
ENDCHAR
STARTCHAR uni01E9
ENCODING 489
SWIDTH 568 0
DWIDTH 24 0
BBX 24 39 0 -6
BITMAP
000000
000000
000000
fc0e38
fc0e38
fc0e38
fc01c0
fc01c0
fc01c0
fc0000
fc0000
fc0000
fc0fc0
fc0fc0
fc0fc0
fc7e00
fc7e00
fc7e00
fff000
fff000
fff000
fff000
fff000
fff000
fc7e00
fc7e00
fc7e00
fc0fc0
fc0fc0
fc0fc0
fc01f8
fc01f8
fc01f8
000000
000000
000000
000000
000000
000000
ENDCHAR
STARTCHAR uni01EA
ENCODING 490
SWIDTH 568 0
DWIDTH 24 0
BBX 24 39 0 -6
BITMAP
000000
000000
000000
1fffc0
1fffc0
1fffc0
fc01f8
fc01f8
fc01f8
fc01f8
fc01f8
fc01f8
fc01f8
fc01f8
fc01f8
fc01f8
fc01f8
fc01f8
fc01f8
fc01f8
fc01f8
fc01f8
fc01f8
fc01f8
fc01f8
fc01f8
fc01f8
fc01f8
fc01f8
fc01f8
1fffc0
1fffc0
1fffc0
03f000
03f000
03f000
03fe00
03fe00
03fe00
ENDCHAR
STARTCHAR uni01EB
ENCODING 491
SWIDTH 568 0
DWIDTH 24 0
BBX 24 39 0 -6
BITMAP
000000
000000
000000
000000
000000
000000
000000
000000
000000
000000
000000
000000
1fffc0
1fffc0
1fffc0
fc01f8
fc01f8
fc01f8
fc01f8
fc01f8
fc01f8
fc01f8
fc01f8
fc01f8
fc01f8
fc01f8
fc01f8
fc01f8
fc01f8
fc01f8
1fffc0
1fffc0
1fffc0
03f000
03f000
03f000
03fe00
03fe00
03fe00
ENDCHAR
STARTCHAR uni01EC
ENCODING 492
SWIDTH 568 0
DWIDTH 24 0
BBX 24 39 0 -6
BITMAP
1fffc0
1fffc0
1fffc0
000000
000000
000000
1fffc0
1fffc0
1fffc0
fc01f8
fc01f8
fc01f8
fc01f8
fc01f8
fc01f8
fc01f8
fc01f8
fc01f8
fc01f8
fc01f8
fc01f8
fc01f8
fc01f8
fc01f8
fc01f8
fc01f8
fc01f8
fc01f8
fc01f8
fc01f8
1fffc0
1fffc0
1fffc0
03f000
03f000
03f000
03fe00
03fe00
03fe00
ENDCHAR
STARTCHAR uni01ED
ENCODING 493
SWIDTH 568 0
DWIDTH 24 0
BBX 24 39 0 -6
BITMAP
000000
000000
000000
000000
000000
000000
1fffc0
1fffc0
1fffc0
000000
000000
000000
1fffc0
1fffc0
1fffc0
fc01f8
fc01f8
fc01f8
fc01f8
fc01f8
fc01f8
fc01f8
fc01f8
fc01f8
fc01f8
fc01f8
fc01f8
fc01f8
fc01f8
fc01f8
1fffc0
1fffc0
1fffc0
03f000
03f000
03f000
03fe00
03fe00
03fe00
ENDCHAR
STARTCHAR uni01EE
ENCODING 494
SWIDTH 568 0
DWIDTH 24 0
BBX 24 39 0 -6
BITMAP
0381c0
0381c0
0381c0
007e00
007e00
007e00
000000
000000
000000
fffff8
fffff8
fffff8
000fc0
000fc0
000fc0
007e00
007e00
007e00
03ffc0
03ffc0
03ffc0
0001f8
0001f8
0001f8
e001f8
e001f8
e001f8
fc0fc0
fc0fc0
fc0fc0
1ffe00
1ffe00
1ffe00
000000
000000
000000
000000
000000
000000
ENDCHAR
STARTCHAR uni01EF
ENCODING 495
SWIDTH 568 0
DWIDTH 24 0
BBX 24 39 0 -6
BITMAP
000000
000000
000000
0381c0
0381c0
0381c0
007e00
007e00
007e00
000000
000000
000000
fffff8
fffff8
fffff8
000fc0
000fc0
000fc0
007e00
007e00
007e00
03ffc0
03ffc0
03ffc0
0001f8
0001f8
0001f8
0001f8
0001f8
0001f8
e001f8
e001f8
e001f8
fc0fc0
fc0fc0
fc0fc0
1ffe00
1ffe00
1ffe00
ENDCHAR
STARTCHAR uni01F0
ENCODING 496
SWIDTH 568 0
DWIDTH 24 0
BBX 24 39 0 -6
BITMAP
000000
000000
000000
000000
000000
000000
007038
007038
007038
000fc0
000fc0
000fc0
000000
000000
000000
000ff8
000ff8
000ff8
0001f8
0001f8
0001f8
0001f8
0001f8
0001f8
0001f8
0001f8
0001f8
0001f8
0001f8
0001f8
fc01f8
fc01f8
fc01f8
fc01f8
fc01f8
fc01f8
1fffc0
1fffc0
1fffc0
ENDCHAR
STARTCHAR uni01F1
ENCODING 497
SWIDTH 568 0
DWIDTH 24 0
BBX 24 39 0 -6
BITMAP
000000
000000
000000
fff1ff
fff1ff
fff1ff
fc7e07
fc7e07
fc7e07
fc7e07
fc7e07
fc7e07
fc7e07
fc7e07
fc7e07
fc7e38
fc7e38
fc7e38
fc7e38
fc7e38
fc7e38
fc7e38
fc7e38
fc7e38
fc7fc0
fc7fc0
fc7fc0
fc7fc0
fc7fc0
fc7fc0
fff1ff
fff1ff
fff1ff
000000
000000
000000
000000
000000
000000
ENDCHAR
STARTCHAR uni01F2
ENCODING 498
SWIDTH 568 0
DWIDTH 24 0
BBX 24 39 0 -6
BITMAP
000000
000000
000000
fff000
fff000
fff000
fc7e00
fc7e00
fc7e00
fc7e00
fc7e00
fc7e00
fc7fff
fc7fff
fc7fff
fc7e07
fc7e07
fc7e07
fc7e07
fc7e07
fc7e07
fc7e38
fc7e38
fc7e38
fc7fc0
fc7fc0
fc7fc0
fc7fc0
fc7fc0
fc7fc0
fff1ff
fff1ff
fff1ff
000000
000000
000000
000000
000000
000000
ENDCHAR
STARTCHAR uni01F3
ENCODING 499
SWIDTH 568 0
DWIDTH 24 0
BBX 24 39 0 -6
BITMAP
000000
000000
000000
007e00
007e00
007e00
007e00
007e00
007e00
007e00
007e00
007e00
1fffff
1fffff
1fffff
fc7e07
fc7e07
fc7e07
fc7e07
fc7e07
fc7e07
fc7e38
fc7e38
fc7e38
fc7fc0
fc7fc0
fc7fc0
fc7fc0
fc7fc0
fc7fc0
1fffff
1fffff
1fffff
000000
000000
000000
000000
000000
000000
ENDCHAR
STARTCHAR uni01F4
ENCODING 500
SWIDTH 568 0
DWIDTH 24 0
BBX 24 39 0 -6
BITMAP
000fc0
000fc0
000fc0
007e00
007e00
007e00
000000
000000
000000
1fffc0
1fffc0
1fffc0
fc01f8
fc01f8
fc01f8
fc01f8
fc01f8
fc01f8
fc0000
fc0000
fc0000
fc0ff8
fc0ff8
fc0ff8
fc01f8
fc01f8
fc01f8
fc01f8
fc01f8
fc01f8
1fffc0
1fffc0
1fffc0
000000
000000
000000
000000
000000
000000
ENDCHAR
STARTCHAR uni01F5
ENCODING 501
SWIDTH 568 0
DWIDTH 24 0
BBX 24 39 0 -6
BITMAP
000000
000000
000000
000fc0
000fc0
000fc0
007e00
007e00
007e00
000000
000000
000000
1ffff8
1ffff8
1ffff8
fc0fc0
fc0fc0
fc0fc0
fc0fc0
fc0fc0
fc0fc0
fc0fc0
fc0fc0
fc0fc0
1ffe00
1ffe00
1ffe00
fff000
fff000
fff000
1fffc0
1fffc0
1fffc0
fc01f8
fc01f8
fc01f8
1fffc0
1fffc0
1fffc0
ENDCHAR
STARTCHAR Aringacute
ENCODING 506
SWIDTH 568 0
DWIDTH 24 0
BBX 24 39 0 -6
BITMAP
007e00
007e00
007e00
03f000
03f000
03f000
03fe00
03fe00
03fe00
1c01c0
1c01c0
1c01c0
03fe00
03fe00
03fe00
1fffc0
1fffc0
1fffc0
fc01f8
fc01f8
fc01f8
fc01f8
fc01f8
fc01f8
fffff8
fffff8
fffff8
fc01f8
fc01f8
fc01f8
fc01f8
fc01f8
fc01f8
000000
000000
000000
000000
000000
000000
ENDCHAR
STARTCHAR aringacute
ENCODING 507
SWIDTH 568 0
DWIDTH 24 0
BBX 24 39 0 -6
BITMAP
000fc0
000fc0
000fc0
007e00
007e00
007e00
007e00
007e00
007e00
0381c0
0381c0
0381c0
1fffc0
1fffc0
1fffc0
0001f8
0001f8
0001f8
1ffff8
1ffff8
1ffff8
fc01f8
fc01f8
fc01f8
fc01f8
fc01f8
fc01f8
fc0ff8
fc0ff8
fc0ff8
1ff1f8
1ff1f8
1ff1f8
000000
000000
000000
000000
000000
000000
ENDCHAR
STARTCHAR AEacute
ENCODING 508
SWIDTH 568 0
DWIDTH 24 0
BBX 24 39 0 -6
BITMAP
000fc0
000fc0
000fc0
007e00
007e00
007e00
000000
000000
000000
1ffff8
1ffff8
1ffff8
fffe00
fffe00
fffe00
fc7e00
fc7e00
fc7e00
fc7e00
fc7e00
fc7e00
ffffc0
ffffc0
ffffc0
fc7e00
fc7e00
fc7e00
fc7e00
fc7e00
fc7e00
fc7ff8
fc7ff8
fc7ff8
000000
000000
000000
000000
000000
000000
ENDCHAR
STARTCHAR aeacute
ENCODING 509
SWIDTH 568 0
DWIDTH 24 0
BBX 24 39 0 -6
BITMAP
000000
000000
000000
000fc0
000fc0
000fc0
007e00
007e00
007e00
000000
000000
000000
1f8fc0
1f8fc0
1f8fc0
fc7e38
fc7e38
fc7e38
007e38
007e38
007e38
1fffc0
1fffc0
1fffc0
fc7e00
fc7e00
fc7e00
fc7e38
fc7e38
fc7e38
1f8fc0
1f8fc0
1f8fc0
000000
000000
000000
000000
000000
000000
ENDCHAR
STARTCHAR Oslashacute
ENCODING 510
SWIDTH 568 0
DWIDTH 24 0
BBX 24 39 0 -6
BITMAP
000fc0
000fc0
000fc0
007e00
007e00
007e00
000038
000038
000038
1fffc0
1fffc0
1fffc0
fc0ff8
fc0ff8
fc0ff8
fc71f8
fc71f8
fc71f8
fc71f8
fc71f8
fc71f8
fc71f8
fc71f8
fc71f8
fc71f8
fc71f8
fc71f8
ff81f8
ff81f8
ff81f8
1fffc0
1fffc0
1fffc0
e00000
e00000
e00000
000000
000000
000000
ENDCHAR
STARTCHAR oslashacute
ENCODING 511
SWIDTH 568 0
DWIDTH 24 0
BBX 24 39 0 -6
BITMAP
000000
000000
000000
000fc0
000fc0
000fc0
007e00
007e00
007e00
000038
000038
000038
1fffc0
1fffc0
1fffc0
fc0ff8
fc0ff8
fc0ff8
fc71f8
fc71f8
fc71f8
fc71f8
fc71f8
fc71f8
fc71f8
fc71f8
fc71f8
ff81f8
ff81f8
ff81f8
1fffc0
1fffc0
1fffc0
e00000
e00000
e00000
000000
000000
000000
ENDCHAR
STARTCHAR Scommaaccent
ENCODING 536
SWIDTH 568 0
DWIDTH 24 0
BBX 24 39 0 -6
BITMAP
000000
000000
000000
1fffc0
1fffc0
1fffc0
fc01f8
fc01f8
fc01f8
fc01f8
fc01f8
fc01f8
fc0000
fc0000
fc0000
1fffc0
1fffc0
1fffc0
0001f8
0001f8
0001f8
0001f8
0001f8
0001f8
fc01f8
fc01f8
fc01f8
fc01f8
fc01f8
fc01f8
1fffc0
1fffc0
1fffc0
007e00
007e00
007e00
03f000
03f000
03f000
ENDCHAR
STARTCHAR scommaaccent
ENCODING 537
SWIDTH 568 0
DWIDTH 24 0
BBX 24 39 0 -6
BITMAP
000000
000000
000000
000000
000000
000000
000000
000000
000000
000000
000000
000000
1fffc0
1fffc0
1fffc0
fc01f8
fc01f8
fc01f8
1f8000
1f8000
1f8000
03fe00
03fe00
03fe00
000fc0
000fc0
000fc0
fc01f8
fc01f8
fc01f8
1fffc0
1fffc0
1fffc0
007e00
007e00
007e00
03f000
03f000
03f000
ENDCHAR
STARTCHAR Tcommaaccent
ENCODING 538
SWIDTH 568 0
DWIDTH 24 0
BBX 24 39 0 -6
BITMAP
000000
000000
000000
1ffff8
1ffff8
1ffff8
007e00
007e00
007e00
007e00
007e00
007e00
007e00
007e00
007e00
007e00
007e00
007e00
007e00
007e00
007e00
007e00
007e00
007e00
007e00
007e00
007e00
007e00
007e00
007e00
007e00
007e00
007e00
000fc0
000fc0
000fc0
007e00
007e00
007e00
ENDCHAR
STARTCHAR tcommaaccent
ENCODING 539
SWIDTH 568 0
DWIDTH 24 0
BBX 24 39 0 -6
BITMAP
000000
000000
000000
1f8000
1f8000
1f8000
1f8000
1f8000
1f8000
1f8000
1f8000
1f8000
1f8000
1f8000
1f8000
ffffc0
ffffc0
ffffc0
1f8000
1f8000
1f8000
1f8000
1f8000
1f8000
1f8000
1f8000
1f8000
1f81f8
1f81f8
1f81f8
03ffc0
03ffc0
03ffc0
007e00
007e00
007e00
03f000
03f000
03f000
ENDCHAR
STARTCHAR uni0259
ENCODING 601
SWIDTH 568 0
DWIDTH 24 0
BBX 24 39 0 -6
BITMAP
000000
000000
000000
000000
000000
000000
000000
000000
000000
000000
000000
000000
1fffc0
1fffc0
1fffc0
fc01f8
fc01f8
fc01f8
0001f8
0001f8
0001f8
fffff8
fffff8
fffff8
fc01f8
fc01f8
fc01f8
fc01f8
fc01f8
fc01f8
1fffc0
1fffc0
1fffc0
000000
000000
000000
000000
000000
000000
ENDCHAR
STARTCHAR afii57929
ENCODING 700
SWIDTH 568 0
DWIDTH 24 0
BBX 24 39 0 -6
BITMAP
000000
000000
000000
03fe00
03fe00
03fe00
007e00
007e00
007e00
03f000
03f000
03f000
000000
000000
000000
000000
000000
000000
000000
000000
000000
000000
000000
000000
000000
000000
000000
000000
000000
000000
000000
000000
000000
000000
000000
000000
000000
000000
000000
ENDCHAR
STARTCHAR afii64937
ENCODING 701
SWIDTH 568 0
DWIDTH 24 0
BBX 24 39 0 -6
BITMAP
000000
000000
000000
03fe00
03fe00
03fe00
03f000
03f000
03f000
007e00
007e00
007e00
000000
000000
000000
000000
000000
000000
000000
000000
000000
000000
000000
000000
000000
000000
000000
000000
000000
000000
000000
000000
000000
000000
000000
000000
000000
000000
000000
ENDCHAR
STARTCHAR circumflex
ENCODING 710
SWIDTH 568 0
DWIDTH 24 0
BBX 24 39 0 -6
BITMAP
000000
000000
000000
03fe00
03fe00
03fe00
1f8fc0
1f8fc0
1f8fc0
000000
000000
000000
000000
000000
000000
000000
000000
000000
000000
000000
000000
000000
000000
000000
000000
000000
000000
000000
000000
000000
000000
000000
000000
000000
000000
000000
000000
000000
000000
ENDCHAR
STARTCHAR caron
ENCODING 711
SWIDTH 568 0
DWIDTH 24 0
BBX 24 39 0 -6
BITMAP
000000
000000
000000
1f8fc0
1f8fc0
1f8fc0
03fe00
03fe00
03fe00
000000
000000
000000
000000
000000
000000
000000
000000
000000
000000
000000
000000
000000
000000
000000
000000
000000
000000
000000
000000
000000
000000
000000
000000
000000
000000
000000
000000
000000
000000
ENDCHAR
STARTCHAR breve
ENCODING 728
SWIDTH 568 0
DWIDTH 24 0
BBX 24 39 0 -6
BITMAP
000000
000000
000000
1f81f8
1f81f8
1f81f8
03ffc0
03ffc0
03ffc0
000000
000000
000000
000000
000000
000000
000000
000000
000000
000000
000000
000000
000000
000000
000000
000000
000000
000000
000000
000000
000000
000000
000000
000000
000000
000000
000000
000000
000000
000000
ENDCHAR
STARTCHAR dotaccent
ENCODING 729
SWIDTH 568 0
DWIDTH 24 0
BBX 24 39 0 -6
BITMAP
000000
000000
000000
007e00
007e00
007e00
000000
000000
000000
000000
000000
000000
000000
000000
000000
000000
000000
000000
000000
000000
000000
000000
000000
000000
000000
000000
000000
000000
000000
000000
000000
000000
000000
000000
000000
000000
000000
000000
000000
ENDCHAR
STARTCHAR ring
ENCODING 730
SWIDTH 568 0
DWIDTH 24 0
BBX 24 39 0 -6
BITMAP
03ffc0
03ffc0
03ffc0
1f81f8
1f81f8
1f81f8
03ffc0
03ffc0
03ffc0
000000
000000
000000
000000
000000
000000
000000
000000
000000
000000
000000
000000
000000
000000
000000
000000
000000
000000
000000
000000
000000
000000
000000
000000
000000
000000
000000
000000
000000
000000
ENDCHAR
STARTCHAR ogonek
ENCODING 731
SWIDTH 568 0
DWIDTH 24 0
BBX 24 39 0 -6
BITMAP
000000
000000
000000
000000
000000
000000
000000
000000
000000
000000
000000
000000
000000
000000
000000
000000
000000
000000
000000
000000
000000
000000
000000
000000
000000
000000
000000
000000
000000
000000
000000
000000
000000
007e00
007e00
007e00
007ff8
007ff8
007ff8
ENDCHAR
STARTCHAR tilde
ENCODING 732
SWIDTH 568 0
DWIDTH 24 0
BBX 24 39 0 -6
BITMAP
000000
000000
000000
03f1f8
03f1f8
03f1f8
1f8fc0
1f8fc0
1f8fc0
000000
000000
000000
000000
000000
000000
000000
000000
000000
000000
000000
000000
000000
000000
000000
000000
000000
000000
000000
000000
000000
000000
000000
000000
000000
000000
000000
000000
000000
000000
ENDCHAR
STARTCHAR hungarumlaut
ENCODING 733
SWIDTH 568 0
DWIDTH 24 0
BBX 24 39 0 -6
BITMAP
000000
000000
000000
1f81f8
1f81f8
1f81f8
fc0fc0
fc0fc0
fc0fc0
000000
000000
000000
000000
000000
000000
000000
000000
000000
000000
000000
000000
000000
000000
000000
000000
000000
000000
000000
000000
000000
000000
000000
000000
000000
000000
000000
000000
000000
000000
ENDCHAR
STARTCHAR gravecomb
ENCODING 768
SWIDTH 568 0
DWIDTH 24 0
BBX 24 39 0 -6
BITMAP
000000
000000
000000
03f000
03f000
03f000
007e00
007e00
007e00
000000
000000
000000
000000
000000
000000
000000
000000
000000
000000
000000
000000
000000
000000
000000
000000
000000
000000
000000
000000
000000
000000
000000
000000
000000
000000
000000
000000
000000
000000
ENDCHAR
STARTCHAR acutecomb
ENCODING 769
SWIDTH 568 0
DWIDTH 24 0
BBX 24 39 0 -6
BITMAP
000000
000000
000000
007e00
007e00
007e00
03f000
03f000
03f000
000000
000000
000000
000000
000000
000000
000000
000000
000000
000000
000000
000000
000000
000000
000000
000000
000000
000000
000000
000000
000000
000000
000000
000000
000000
000000
000000
000000
000000
000000
ENDCHAR
STARTCHAR uni0302
ENCODING 770
SWIDTH 568 0
DWIDTH 24 0
BBX 24 39 0 -6
BITMAP
000000
000000
000000
03fe00
03fe00
03fe00
1f8fc0
1f8fc0
1f8fc0
000000
000000
000000
000000
000000
000000
000000
000000
000000
000000
000000
000000
000000
000000
000000
000000
000000
000000
000000
000000
000000
000000
000000
000000
000000
000000
000000
000000
000000
000000
ENDCHAR
STARTCHAR tildecomb
ENCODING 771
SWIDTH 568 0
DWIDTH 24 0
BBX 24 39 0 -6
BITMAP
000000
000000
000000
03f1c0
03f1c0
03f1c0
1c7e00
1c7e00
1c7e00
000000
000000
000000
000000
000000
000000
000000
000000
000000
000000
000000
000000
000000
000000
000000
000000
000000
000000
000000
000000
000000
000000
000000
000000
000000
000000
000000
000000
000000
000000
ENDCHAR
STARTCHAR uni0304
ENCODING 772
SWIDTH 568 0
DWIDTH 24 0
BBX 24 39 0 -6
BITMAP
03ffc0
03ffc0
03ffc0
000000
000000
000000
000000
000000
000000
000000
000000
000000
000000
000000
000000
000000
000000
000000
000000
000000
000000
000000
000000
000000
000000
000000
000000
000000
000000
000000
000000
000000
000000
000000
000000
000000
000000
000000
000000
ENDCHAR
STARTCHAR uni0305
ENCODING 773
SWIDTH 568 0
DWIDTH 24 0
BBX 24 39 0 -6
BITMAP
ffffff
ffffff
ffffff
000000
000000
000000
000000
000000
000000
000000
000000
000000
000000
000000
000000
000000
000000
000000
000000
000000
000000
000000
000000
000000
000000
000000
000000
000000
000000
000000
000000
000000
000000
000000
000000
000000
000000
000000
000000
ENDCHAR
STARTCHAR uni0306
ENCODING 774
SWIDTH 568 0
DWIDTH 24 0
BBX 24 39 0 -6
BITMAP
000000
000000
000000
1f81f8
1f81f8
1f81f8
03ffc0
03ffc0
03ffc0
000000
000000
000000
000000
000000
000000
000000
000000
000000
000000
000000
000000
000000
000000
000000
000000
000000
000000
000000
000000
000000
000000
000000
000000
000000
000000
000000
000000
000000
000000
ENDCHAR
STARTCHAR uni0307
ENCODING 775
SWIDTH 568 0
DWIDTH 24 0
BBX 24 39 0 -6
BITMAP
000000
000000
000000
007e00
007e00
007e00
007e00
007e00
007e00
000000
000000
000000
000000
000000
000000
000000
000000
000000
000000
000000
000000
000000
000000
000000
000000
000000
000000
000000
000000
000000
000000
000000
000000
000000
000000
000000
000000
000000
000000
ENDCHAR
STARTCHAR uni0308
ENCODING 776
SWIDTH 568 0
DWIDTH 24 0
BBX 24 39 0 -6
BITMAP
000000
000000
000000
1f8fc0
1f8fc0
1f8fc0
1f8fc0
1f8fc0
1f8fc0
000000
000000
000000
000000
000000
000000
000000
000000
000000
000000
000000
000000
000000
000000
000000
000000
000000
000000
000000
000000
000000
000000
000000
000000
000000
000000
000000
000000
000000
000000
ENDCHAR
STARTCHAR hookabovecomb
ENCODING 777
SWIDTH 568 0
DWIDTH 24 0
BBX 24 39 0 -6
BITMAP
03fe00
03fe00
03fe00
1f8fc0
1f8fc0
1f8fc0
000fc0
000fc0
000fc0
007e00
007e00
007e00
000000
000000
000000
000000
000000
000000
000000
000000
000000
000000
000000
000000
000000
000000
000000
000000
000000
000000
000000
000000
000000
000000
000000
000000
000000
000000
000000
ENDCHAR
STARTCHAR uni030A
ENCODING 778
SWIDTH 568 0
DWIDTH 24 0
BBX 24 39 0 -6
BITMAP
007e00
007e00
007e00
0381c0
0381c0
0381c0
007e00
007e00
007e00
000000
000000
000000
000000
000000
000000
000000
000000
000000
000000
000000
000000
000000
000000
000000
000000
000000
000000
000000
000000
000000
000000
000000
000000
000000
000000
000000
000000
000000
000000
ENDCHAR
STARTCHAR uni030B
ENCODING 779
SWIDTH 568 0
DWIDTH 24 0
BBX 24 39 0 -6
BITMAP
000000
000000
000000
1f81f8
1f81f8
1f81f8
fc0fc0
fc0fc0
fc0fc0
000000
000000
000000
000000
000000
000000
000000
000000
000000
000000
000000
000000
000000
000000
000000
000000
000000
000000
000000
000000
000000
000000
000000
000000
000000
000000
000000
000000
000000
000000
ENDCHAR
STARTCHAR uni030C
ENCODING 780
SWIDTH 568 0
DWIDTH 24 0
BBX 24 39 0 -6
BITMAP
000000
000000
000000
1f8fc0
1f8fc0
1f8fc0
03fe00
03fe00
03fe00
000000
000000
000000
000000
000000
000000
000000
000000
000000
000000
000000
000000
000000
000000
000000
000000
000000
000000
000000
000000
000000
000000
000000
000000
000000
000000
000000
000000
000000
000000
ENDCHAR
STARTCHAR uni030D
ENCODING 781
SWIDTH 568 0
DWIDTH 24 0
BBX 24 39 0 -6
BITMAP
007e00
007e00
007e00
007e00
007e00
007e00
007e00
007e00
007e00
000000
000000
000000
000000
000000
000000
000000
000000
000000
000000
000000
000000
000000
000000
000000
000000
000000
000000
000000
000000
000000
000000
000000
000000
000000
000000
000000
000000
000000
000000
ENDCHAR
STARTCHAR uni030E
ENCODING 782
SWIDTH 568 0
DWIDTH 24 0
BBX 24 39 0 -6
BITMAP
1f81f8
1f81f8
1f81f8
1f81f8
1f81f8
1f81f8
1f81f8
1f81f8
1f81f8
000000
000000
000000
000000
000000
000000
000000
000000
000000
000000
000000
000000
000000
000000
000000
000000
000000
000000
000000
000000
000000
000000
000000
000000
000000
000000
000000
000000
000000
000000
ENDCHAR
STARTCHAR uni030F
ENCODING 783
SWIDTH 568 0
DWIDTH 24 0
BBX 24 39 0 -6
BITMAP
000000
000000
000000
fc0fc0
fc0fc0
fc0fc0
1f81f8
1f81f8
1f81f8
000000
000000
000000
000000
000000
000000
000000
000000
000000
000000
000000
000000
000000
000000
000000
000000
000000
000000
000000
000000
000000
000000
000000
000000
000000
000000
000000
000000
000000
000000
ENDCHAR
STARTCHAR uni0311
ENCODING 785
SWIDTH 568 0
DWIDTH 24 0
BBX 24 39 0 -6
BITMAP
000000
000000
000000
03ffc0
03ffc0
03ffc0
1f81f8
1f81f8
1f81f8
000000
000000
000000
000000
000000
000000
000000
000000
000000
000000
000000
000000
000000
000000
000000
000000
000000
000000
000000
000000
000000
000000
000000
000000
000000
000000
000000
000000
000000
000000
ENDCHAR
STARTCHAR dotbelowcomb
ENCODING 803
SWIDTH 568 0
DWIDTH 24 0
BBX 24 39 0 -6
BITMAP
000000
000000
000000
000000
000000
000000
000000
000000
000000
000000
000000
000000
000000
000000
000000
000000
000000
000000
000000
000000
000000
000000
000000
000000
000000
000000
000000
000000
000000
000000
000000
000000
000000
007e00
007e00
007e00
007e00
007e00
007e00
ENDCHAR
STARTCHAR uni0324
ENCODING 804
SWIDTH 568 0
DWIDTH 24 0
BBX 24 39 0 -6
BITMAP
000000
000000
000000
000000
000000
000000
000000
000000
000000
000000
000000
000000
000000
000000
000000
000000
000000
000000
000000
000000
000000
000000
000000
000000
000000
000000
000000
000000
000000
000000
000000
000000
000000
1f8fc0
1f8fc0
1f8fc0
1f8fc0
1f8fc0
1f8fc0
ENDCHAR
STARTCHAR uni0374
ENCODING 884
SWIDTH 568 0
DWIDTH 24 0
BBX 24 39 0 -6
BITMAP
000000
000000
000000
007e00
007e00
007e00
03f000
03f000
03f000
000000
000000
000000
000000
000000
000000
000000
000000
000000
000000
000000
000000
000000
000000
000000
000000
000000
000000
000000
000000
000000
000000
000000
000000
000000
000000
000000
000000
000000
000000
ENDCHAR
STARTCHAR uni0375
ENCODING 885
SWIDTH 568 0
DWIDTH 24 0
BBX 24 39 0 -6
BITMAP
000000
000000
000000
000000
000000
000000
000000
000000
000000
000000
000000
000000
000000
000000
000000
000000
000000
000000
000000
000000
000000
000000
000000
000000
000000
000000
000000
000000
000000
000000
000000
000000
000000
007e00
007e00
007e00
03f000
03f000
03f000
ENDCHAR
STARTCHAR uni037A
ENCODING 890
SWIDTH 568 0
DWIDTH 24 0
BBX 24 39 0 -6
BITMAP
000000
000000
000000
000000
000000
000000
000000
000000
000000
000000
000000
000000
000000
000000
000000
000000
000000
000000
000000
000000
000000
000000
000000
000000
000000
000000
000000
000000
000000
000000
000000
000000
000000
03f000
03f000
03f000
03fe00
03fe00
03fe00
ENDCHAR
STARTCHAR uni037E
ENCODING 894
SWIDTH 568 0
DWIDTH 24 0
BBX 24 39 0 -6
BITMAP
000000
000000
000000
000000
000000
000000
000000
000000
000000
007e00
007e00
007e00
03ffc0
03ffc0
03ffc0
007e00
007e00
007e00
000000
000000
000000
03ffc0
03ffc0
03ffc0
007fc0
007fc0
007fc0
007fc0
007fc0
007fc0
007e00
007e00
007e00
03f000
03f000
03f000
000000
000000
000000
ENDCHAR
STARTCHAR tonos
ENCODING 900
SWIDTH 568 0
DWIDTH 24 0
BBX 24 39 0 -6
BITMAP
000000
000000
000000
007e00
007e00
007e00
03f000
03f000
03f000
000000
000000
000000
000000
000000
000000
000000
000000
000000
000000
000000
000000
000000
000000
000000
000000
000000
000000
000000
000000
000000
000000
000000
000000
000000
000000
000000
000000
000000
000000
ENDCHAR
STARTCHAR dieresistonos
ENCODING 901
SWIDTH 568 0
DWIDTH 24 0
BBX 24 39 0 -6
BITMAP
000000
000000
000000
fc7ff8
fc7ff8
fc7ff8
fff1f8
fff1f8
fff1f8
000000
000000
000000
000000
000000
000000
000000
000000
000000
000000
000000
000000
000000
000000
000000
000000
000000
000000
000000
000000
000000
000000
000000
000000
000000
000000
000000
000000
000000
000000
ENDCHAR
STARTCHAR Alphatonos
ENCODING 902
SWIDTH 568 0
DWIDTH 24 0
BBX 24 39 0 -6
BITMAP
000000
000000
000000
fc0e00
fc0e00
fc0e00
e07fc0
e07fc0
e07fc0
03f1f8
03f1f8
03f1f8
03f1f8
03f1f8
03f1f8
03f1f8
03f1f8
03f1f8
03fff8
03fff8
03fff8
03f1f8
03f1f8
03f1f8
03f1f8
03f1f8
03f1f8
03f1f8
03f1f8
03f1f8
03f1f8
03f1f8
03f1f8
000000
000000
000000
000000
000000
000000
ENDCHAR
STARTCHAR anoteleia
ENCODING 903
SWIDTH 568 0
DWIDTH 24 0
BBX 24 39 0 -6
BITMAP
000000
000000
000000
000000
000000
000000
000000
000000
000000
000000
000000
000000
007e00
007e00
007e00
007e00
007e00
007e00
000000
000000
000000
000000
000000
000000
000000
000000
000000
000000
000000
000000
000000
000000
000000
000000
000000
000000
000000
000000
000000
ENDCHAR
STARTCHAR Epsilontonos
ENCODING 904
SWIDTH 568 0
DWIDTH 24 0
BBX 24 39 0 -6
BITMAP
000000
000000
000000
fffff8
fffff8
fffff8
e3f000
e3f000
e3f000
03f000
03f000
03f000
03f000
03f000
03f000
03ffc0
03ffc0
03ffc0
03f000
03f000
03f000
03f000
03f000
03f000
03f000
03f000
03f000
03f000
03f000
03f000
03fff8
03fff8
03fff8
000000
000000
000000
000000
000000
000000
ENDCHAR
STARTCHAR Etatonos
ENCODING 905
SWIDTH 568 0
DWIDTH 24 0
BBX 24 39 0 -6
BITMAP
000000
000000
000000
fff1f8
fff1f8
fff1f8
e3f1f8
e3f1f8
e3f1f8
03f1f8
03f1f8
03f1f8
03f1f8
03f1f8
03f1f8
03fff8
03fff8
03fff8
03f1f8
03f1f8
03f1f8
03f1f8
03f1f8
03f1f8
03f1f8
03f1f8
03f1f8
03f1f8
03f1f8
03f1f8
03f1f8
03f1f8
03f1f8
000000
000000
000000
000000
000000
000000
ENDCHAR
STARTCHAR Iotatonos
ENCODING 906
SWIDTH 568 0
DWIDTH 24 0
BBX 24 39 0 -6
BITMAP
000000
000000
000000
fc7ff8
fc7ff8
fc7ff8
e00fc0
e00fc0
e00fc0
000fc0
000fc0
000fc0
000fc0
000fc0
000fc0
000fc0
000fc0
000fc0
000fc0
000fc0
000fc0
000fc0
000fc0
000fc0
000fc0
000fc0
000fc0
000fc0
000fc0
000fc0
007ff8
007ff8
007ff8
000000
000000
000000
000000
000000
000000
ENDCHAR
STARTCHAR Omicrontonos
ENCODING 908
SWIDTH 568 0
DWIDTH 24 0
BBX 24 39 0 -6
BITMAP
000000
000000
000000
fc7fc0
fc7fc0
fc7fc0
e3f1f8
e3f1f8
e3f1f8
03f1f8
03f1f8
03f1f8
03f1f8
03f1f8
03f1f8
03f1f8
03f1f8
03f1f8
03f1f8
03f1f8
03f1f8
03f1f8
03f1f8
03f1f8
03f1f8
03f1f8
03f1f8
03f1f8
03f1f8
03f1f8
007fc0
007fc0
007fc0
000000
000000
000000
000000
000000
000000
ENDCHAR
STARTCHAR Upsilontonos
ENCODING 910
SWIDTH 568 0
DWIDTH 24 0
BBX 24 39 0 -6
BITMAP
000000
000000
000000
fff03f
fff03f
fff03f
e3f03f
e3f03f
e3f03f
03f03f
03f03f
03f03f
007ff8
007ff8
007ff8
007ff8
007ff8
007ff8
000fc0
000fc0
000fc0
000fc0
000fc0
000fc0
000fc0
000fc0
000fc0
000fc0
000fc0
000fc0
000fc0
000fc0
000fc0
000000
000000
000000
000000
000000
000000
ENDCHAR
STARTCHAR Omegatonos
ENCODING 911
SWIDTH 568 0
DWIDTH 24 0
BBX 24 39 0 -6
BITMAP
000000
000000
000000
fc7fc0
fc7fc0
fc7fc0
e3f1f8
e3f1f8
e3f1f8
03f1f8
03f1f8
03f1f8
03f1f8
03f1f8
03f1f8
03f1f8
03f1f8
03f1f8
03f1f8
03f1f8
03f1f8
03f1f8
03f1f8
03f1f8
007fc0
007fc0
007fc0
007fc0
007fc0
007fc0
03f1f8
03f1f8
03f1f8
000000
000000
000000
000000
000000
000000
ENDCHAR
STARTCHAR iotadieresistonos
ENCODING 912
SWIDTH 568 0
DWIDTH 24 0
BBX 24 39 0 -6
BITMAP
000000
000000
000000
fc7ff8
fc7ff8
fc7ff8
fff1f8
fff1f8
fff1f8
000000
000000
000000
03f000
03f000
03f000
03f000
03f000
03f000
03f000
03f000
03f000
03f000
03f000
03f000
03f000
03f000
03f000
03f1f8
03f1f8
03f1f8
007fc0
007fc0
007fc0
000000
000000
000000
000000
000000
000000
ENDCHAR
STARTCHAR Alpha
ENCODING 913
SWIDTH 568 0
DWIDTH 24 0
BBX 24 39 0 -6
BITMAP
000000
000000
000000
03fe00
03fe00
03fe00
1fffc0
1fffc0
1fffc0
fc01f8
fc01f8
fc01f8
fc01f8
fc01f8
fc01f8
fc01f8
fc01f8
fc01f8
fffff8
fffff8
fffff8
fc01f8
fc01f8
fc01f8
fc01f8
fc01f8
fc01f8
fc01f8
fc01f8
fc01f8
fc01f8
fc01f8
fc01f8
000000
000000
000000
000000
000000
000000
ENDCHAR
STARTCHAR Beta
ENCODING 914
SWIDTH 568 0
DWIDTH 24 0
BBX 24 39 0 -6
BITMAP
000000
000000
000000
ffffc0
ffffc0
ffffc0
fc01f8
fc01f8
fc01f8
fc01f8
fc01f8
fc01f8
fc01f8
fc01f8
fc01f8
ffffc0
ffffc0
ffffc0
fc01f8
fc01f8
fc01f8
fc01f8
fc01f8
fc01f8
fc01f8
fc01f8
fc01f8
fc01f8
fc01f8
fc01f8
ffffc0
ffffc0
ffffc0
000000
000000
000000
000000
000000
000000
ENDCHAR
STARTCHAR Gamma
ENCODING 915
SWIDTH 568 0
DWIDTH 24 0
BBX 24 39 0 -6
BITMAP
000000
000000
000000
fffff8
fffff8
fffff8
fc0000
fc0000
fc0000
fc0000
fc0000
fc0000
fc0000
fc0000
fc0000
fc0000
fc0000
fc0000
fc0000
fc0000
fc0000
fc0000
fc0000
fc0000
fc0000
fc0000
fc0000
fc0000
fc0000
fc0000
fc0000
fc0000
fc0000
000000
000000
000000
000000
000000
000000
ENDCHAR
STARTCHAR Delta
ENCODING 916
SWIDTH 568 0
DWIDTH 24 0
BBX 24 39 0 -6
BITMAP
000000
000000
000000
007000
007000
007000
03fe00
03fe00
03fe00
03fe00
03fe00
03fe00
1f8fc0
1f8fc0
1f8fc0
1f8fc0
1f8fc0
1f8fc0
1c01c0
1c01c0
1c01c0
fc01f8
fc01f8
fc01f8
fc01f8
fc01f8
fc01f8
fc01f8
fc01f8
fc01f8
fffff8
fffff8
fffff8
000000
000000
000000
000000
000000
000000
ENDCHAR
STARTCHAR Epsilon
ENCODING 917
SWIDTH 568 0
DWIDTH 24 0
BBX 24 39 0 -6
BITMAP
000000
000000
000000
fffff8
fffff8
fffff8
fc0000
fc0000
fc0000
fc0000
fc0000
fc0000
fc0000
fc0000
fc0000
fffe00
fffe00
fffe00
fc0000
fc0000
fc0000
fc0000
fc0000
fc0000
fc0000
fc0000
fc0000
fc0000
fc0000
fc0000
fffff8
fffff8
fffff8
000000
000000
000000
000000
000000
000000
ENDCHAR
STARTCHAR Zeta
ENCODING 918
SWIDTH 568 0
DWIDTH 24 0
BBX 24 39 0 -6
BITMAP
000000
000000
000000
fffff8
fffff8
fffff8
0001f8
0001f8
0001f8
0001f8
0001f8
0001f8
000fc0
000fc0
000fc0
007e00
007e00
007e00
03f000
03f000
03f000
1f8000
1f8000
1f8000
fc0000
fc0000
fc0000
fc0000
fc0000
fc0000
fffff8
fffff8
fffff8
000000
000000
000000
000000
000000
000000
ENDCHAR
STARTCHAR Eta
ENCODING 919
SWIDTH 568 0
DWIDTH 24 0
BBX 24 39 0 -6
BITMAP
000000
000000
000000
fc01f8
fc01f8
fc01f8
fc01f8
fc01f8
fc01f8
fc01f8
fc01f8
fc01f8
fc01f8
fc01f8
fc01f8
fffff8
fffff8
fffff8
fc01f8
fc01f8
fc01f8
fc01f8
fc01f8
fc01f8
fc01f8
fc01f8
fc01f8
fc01f8
fc01f8
fc01f8
fc01f8
fc01f8
fc01f8
000000
000000
000000
000000
000000
000000
ENDCHAR
STARTCHAR Theta
ENCODING 920
SWIDTH 568 0
DWIDTH 24 0
BBX 24 39 0 -6
BITMAP
000000
000000
000000
1fffc0
1fffc0
1fffc0
fc01f8
fc01f8
fc01f8
fc01f8
fc01f8
fc01f8
fc01f8
fc01f8
fc01f8
fffff8
fffff8
fffff8
fc01f8
fc01f8
fc01f8
fc01f8
fc01f8
fc01f8
fc01f8
fc01f8
fc01f8
fc01f8
fc01f8
fc01f8
1fffc0
1fffc0
1fffc0
000000
000000
000000
000000
000000
000000
ENDCHAR
STARTCHAR Iota
ENCODING 921
SWIDTH 568 0
DWIDTH 24 0
BBX 24 39 0 -6
BITMAP
000000
000000
000000
03ffc0
03ffc0
03ffc0
007e00
007e00
007e00
007e00
007e00
007e00
007e00
007e00
007e00
007e00
007e00
007e00
007e00
007e00
007e00
007e00
007e00
007e00
007e00
007e00
007e00
007e00
007e00
007e00
03ffc0
03ffc0
03ffc0
000000
000000
000000
000000
000000
000000
ENDCHAR
STARTCHAR Kappa
ENCODING 922
SWIDTH 568 0
DWIDTH 24 0
BBX 24 39 0 -6
BITMAP
000000
000000
000000
fc01f8
fc01f8
fc01f8
fc01f8
fc01f8
fc01f8
fc0fc0
fc0fc0
fc0fc0
fc7e00
fc7e00
fc7e00
fff000
fff000
fff000
fff000
fff000
fff000
fc7e00
fc7e00
fc7e00
fc0fc0
fc0fc0
fc0fc0
fc01f8
fc01f8
fc01f8
fc01f8
fc01f8
fc01f8
000000
000000
000000
000000
000000
000000
ENDCHAR
STARTCHAR Lambda
ENCODING 923
SWIDTH 568 0
DWIDTH 24 0
BBX 24 39 0 -6
BITMAP
000000
000000
000000
007000
007000
007000
03fe00
03fe00
03fe00
03fe00
03fe00
03fe00
1f8fc0
1f8fc0
1f8fc0
1f8fc0
1f8fc0
1f8fc0
1c01c0
1c01c0
1c01c0
fc01f8
fc01f8
fc01f8
fc01f8
fc01f8
fc01f8
fc01f8
fc01f8
fc01f8
fc01f8
fc01f8
fc01f8
000000
000000
000000
000000
000000
000000
ENDCHAR
STARTCHAR Mu
ENCODING 924
SWIDTH 568 0
DWIDTH 24 0
BBX 24 39 0 -6
BITMAP
000000
000000
000000
fc01f8
fc01f8
fc01f8
fc01f8
fc01f8
fc01f8
ff8ff8
ff8ff8
ff8ff8
fffff8
fffff8
fffff8
fc71f8
fc71f8
fc71f8
fc01f8
fc01f8
fc01f8
fc01f8
fc01f8
fc01f8
fc01f8
fc01f8
fc01f8
fc01f8
fc01f8
fc01f8
fc01f8
fc01f8
fc01f8
000000
000000
000000
000000
000000
000000
ENDCHAR
STARTCHAR Nu
ENCODING 925
SWIDTH 568 0
DWIDTH 24 0
BBX 24 39 0 -6
BITMAP
000000
000000
000000
fc01f8
fc01f8
fc01f8
fc01f8
fc01f8
fc01f8
ff81f8
ff81f8
ff81f8
ff81f8
ff81f8
ff81f8
fff1f8
fff1f8
fff1f8
fc7ff8
fc7ff8
fc7ff8
fc0ff8
fc0ff8
fc0ff8
fc0ff8
fc0ff8
fc0ff8
fc01f8
fc01f8
fc01f8
fc01f8
fc01f8
fc01f8
000000
000000
000000
000000
000000
000000
ENDCHAR
STARTCHAR Xi
ENCODING 926
SWIDTH 568 0
DWIDTH 24 0
BBX 24 39 0 -6
BITMAP
000000
000000
000000
fffff8
fffff8
fffff8
000000
000000
000000
000000
000000
000000
000000
000000
000000
1fffc0
1fffc0
1fffc0
000000
000000
000000
000000
000000
000000
000000
000000
000000
000000
000000
000000
fffff8
fffff8
fffff8
000000
000000
000000
000000
000000
000000
ENDCHAR
STARTCHAR Omicron
ENCODING 927
SWIDTH 568 0
DWIDTH 24 0
BBX 24 39 0 -6
BITMAP
000000
000000
000000
1fffc0
1fffc0
1fffc0
fc01f8
fc01f8
fc01f8
fc01f8
fc01f8
fc01f8
fc01f8
fc01f8
fc01f8
fc01f8
fc01f8
fc01f8
fc01f8
fc01f8
fc01f8
fc01f8
fc01f8
fc01f8
fc01f8
fc01f8
fc01f8
fc01f8
fc01f8
fc01f8
1fffc0
1fffc0
1fffc0
000000
000000
000000
000000
000000
000000
ENDCHAR
STARTCHAR Pi
ENCODING 928
SWIDTH 568 0
DWIDTH 24 0
BBX 24 39 0 -6
BITMAP
000000
000000
000000
fffff8
fffff8
fffff8
1f8fc0
1f8fc0
1f8fc0
1f8fc0
1f8fc0
1f8fc0
1f8fc0
1f8fc0
1f8fc0
1f8fc0
1f8fc0
1f8fc0
1f8fc0
1f8fc0
1f8fc0
1f8fc0
1f8fc0
1f8fc0
1f8fc0
1f8fc0
1f8fc0
1f8fc0
1f8fc0
1f8fc0
1f8fc0
1f8fc0
1f8fc0
000000
000000
000000
000000
000000
000000
ENDCHAR
STARTCHAR Rho
ENCODING 929
SWIDTH 568 0
DWIDTH 24 0
BBX 24 39 0 -6
BITMAP
000000
000000
000000
ffffc0
ffffc0
ffffc0
fc01f8
fc01f8
fc01f8
fc01f8
fc01f8
fc01f8
fc01f8
fc01f8
fc01f8
fc01f8
fc01f8
fc01f8
ffffc0
ffffc0
ffffc0
fc0000
fc0000
fc0000
fc0000
fc0000
fc0000
fc0000
fc0000
fc0000
fc0000
fc0000
fc0000
000000
000000
000000
000000
000000
000000
ENDCHAR
STARTCHAR Sigma
ENCODING 931
SWIDTH 568 0
DWIDTH 24 0
BBX 24 39 0 -6
BITMAP
000000
000000
000000
fffff8
fffff8
fffff8
fc0000
fc0000
fc0000
1f8000
1f8000
1f8000
03f000
03f000
03f000
007e00
007e00
007e00
007e00
007e00
007e00
03f000
03f000
03f000
1f8000
1f8000
1f8000
fc0000
fc0000
fc0000
fffff8
fffff8
fffff8
000000
000000
000000
000000
000000
000000
ENDCHAR
STARTCHAR Tau
ENCODING 932
SWIDTH 568 0
DWIDTH 24 0
BBX 24 39 0 -6
BITMAP
000000
000000
000000
1ffff8
1ffff8
1ffff8
007e00
007e00
007e00
007e00
007e00
007e00
007e00
007e00
007e00
007e00
007e00
007e00
007e00
007e00
007e00
007e00
007e00
007e00
007e00
007e00
007e00
007e00
007e00
007e00
007e00
007e00
007e00
000000
000000
000000
000000
000000
000000
ENDCHAR
STARTCHAR Upsilon
ENCODING 933
SWIDTH 568 0
DWIDTH 24 0
BBX 24 39 0 -6
BITMAP
000000
000000
000000
1f81f8
1f81f8
1f81f8
1f81f8
1f81f8
1f81f8
1f81f8
1f81f8
1f81f8
03ffc0
03ffc0
03ffc0
03ffc0
03ffc0
03ffc0
007e00
007e00
007e00
007e00
007e00
007e00
007e00
007e00
007e00
007e00
007e00
007e00
007e00
007e00
007e00
000000
000000
000000
000000
000000
000000
ENDCHAR
STARTCHAR Phi
ENCODING 934
SWIDTH 568 0
DWIDTH 24 0
BBX 24 39 0 -6
BITMAP
000000
000000
000000
007000
007000
007000
1fffc0
1fffc0
1fffc0
fc71f8
fc71f8
fc71f8
fc71f8
fc71f8
fc71f8
fc71f8
fc71f8
fc71f8
fc71f8
fc71f8
fc71f8
fc71f8
fc71f8
fc71f8
fc71f8
fc71f8
fc71f8
1fffc0
1fffc0
1fffc0
007000
007000
007000
000000
000000
000000
000000
000000
000000
ENDCHAR
STARTCHAR Chi
ENCODING 935
SWIDTH 568 0
DWIDTH 24 0
BBX 24 39 0 -6
BITMAP
000000
000000
000000
fc01f8
fc01f8
fc01f8
fc01f8
fc01f8
fc01f8
1f8fc0
1f8fc0
1f8fc0
1f8fc0
1f8fc0
1f8fc0
03fe00
03fe00
03fe00
03fe00
03fe00
03fe00
1f8fc0
1f8fc0
1f8fc0
1f8fc0
1f8fc0
1f8fc0
fc01f8
fc01f8
fc01f8
fc01f8
fc01f8
fc01f8
000000
000000
000000
000000
000000
000000
ENDCHAR
STARTCHAR Psi
ENCODING 936
SWIDTH 568 0
DWIDTH 24 0
BBX 24 39 0 -6
BITMAP
000000
000000
000000
fc71f8
fc71f8
fc71f8
fc71f8
fc71f8
fc71f8
fc71f8
fc71f8
fc71f8
fc71f8
fc71f8
fc71f8
fc71f8
fc71f8
fc71f8
fc71f8
fc71f8
fc71f8
1fffc0
1fffc0
1fffc0
007000
007000
007000
007000
007000
007000
007000
007000
007000
000000
000000
000000
000000
000000
000000
ENDCHAR
STARTCHAR Omega
ENCODING 937
SWIDTH 568 0
DWIDTH 24 0
BBX 24 39 0 -6
BITMAP
000000
000000
000000
1fffc0
1fffc0
1fffc0
fc01f8
fc01f8
fc01f8
fc01f8
fc01f8
fc01f8
fc01f8
fc01f8
fc01f8
fc01f8
fc01f8
fc01f8
fc01f8
fc01f8
fc01f8
fc01f8
fc01f8
fc01f8
1f8fc0
1f8fc0
1f8fc0
1f8fc0
1f8fc0
1f8fc0
ff8ff8
ff8ff8
ff8ff8
000000
000000
000000
000000
000000
000000
ENDCHAR
STARTCHAR Iotadieresis
ENCODING 938
SWIDTH 568 0
DWIDTH 24 0
BBX 24 39 0 -6
BITMAP
1f81f8
1f81f8
1f81f8
1f81f8
1f81f8
1f81f8
000000
000000
000000
03ffc0
03ffc0
03ffc0
007e00
007e00
007e00
007e00
007e00
007e00
007e00
007e00
007e00
007e00
007e00
007e00
007e00
007e00
007e00
007e00
007e00
007e00
03ffc0
03ffc0
03ffc0
000000
000000
000000
000000
000000
000000
ENDCHAR
STARTCHAR Upsilondieresis
ENCODING 939
SWIDTH 568 0
DWIDTH 24 0
BBX 24 39 0 -6
BITMAP
1f81f8
1f81f8
1f81f8
1f81f8
1f81f8
1f81f8
000000
000000
000000
1f81f8
1f81f8
1f81f8
0381c0
0381c0
0381c0
03ffc0
03ffc0
03ffc0
007e00
007e00
007e00
007e00
007e00
007e00
007e00
007e00
007e00
007e00
007e00
007e00
007e00
007e00
007e00
000000
000000
000000
000000
000000
000000
ENDCHAR
STARTCHAR alphatonos
ENCODING 940
SWIDTH 568 0
DWIDTH 24 0
BBX 24 39 0 -6
BITMAP
000000
000000
000000
000fc0
000fc0
000fc0
007e00
007e00
007e00
000000
000000
000000
1ff1f8
1ff1f8
1ff1f8
fc0ff8
fc0ff8
fc0ff8
fc01f8
fc01f8
fc01f8
fc01f8
fc01f8
fc01f8
fc0ff8
fc0ff8
fc0ff8
fc71f8
fc71f8
fc71f8
1f81f8
1f81f8
1f81f8
000000
000000
000000
000000
000000
000000
ENDCHAR
STARTCHAR epsilontonos
ENCODING 941
SWIDTH 568 0
DWIDTH 24 0
BBX 24 39 0 -6
BITMAP
000000
000000
000000
000fc0
000fc0
000fc0
007e00
007e00
007e00
000000
000000
000000
1fffc0
1fffc0
1fffc0
fc01f8
fc01f8
fc01f8
fc0000
fc0000
fc0000
1ffe00
1ffe00
1ffe00
fc0000
fc0000
fc0000
fc01f8
fc01f8
fc01f8
1fffc0
1fffc0
1fffc0
000000
000000
000000
000000
000000
000000
ENDCHAR
STARTCHAR etatonos
ENCODING 942
SWIDTH 568 0
DWIDTH 24 0
BBX 24 39 0 -6
BITMAP
000000
000000
000000
000fc0
000fc0
000fc0
007e00
007e00
007e00
000000
000000
000000
ffffc0
ffffc0
ffffc0
ff81f8
ff81f8
ff81f8
fc01f8
fc01f8
fc01f8
fc01f8
fc01f8
fc01f8
fc01f8
fc01f8
fc01f8
fc01f8
fc01f8
fc01f8
fc01f8
fc01f8
fc01f8
0001f8
0001f8
0001f8
0001f8
0001f8
0001f8
ENDCHAR
STARTCHAR iotatonos
ENCODING 943
SWIDTH 568 0
DWIDTH 24 0
BBX 24 39 0 -6
BITMAP
000000
000000
000000
03f000
03f000
03f000
1f8000
1f8000
1f8000
000000
000000
000000
1f8000
1f8000
1f8000
1f8000
1f8000
1f8000
1f8000
1f8000
1f8000
1f8000
1f8000
1f8000
1f8000
1f8000
1f8000
1f8fc0
1f8fc0
1f8fc0
03fe00
03fe00
03fe00
000000
000000
000000
000000
000000
000000
ENDCHAR
STARTCHAR upsilondieresistonos
ENCODING 944
SWIDTH 568 0
DWIDTH 24 0
BBX 24 39 0 -6
BITMAP
000000
000000
000000
fc7ff8
fc7ff8
fc7ff8
fff1f8
fff1f8
fff1f8
000000
000000
000000
fc01f8
fc01f8
fc01f8
fc01f8
fc01f8
fc01f8
fc01f8
fc01f8
fc01f8
fc01f8
fc01f8
fc01f8
fc01f8
fc01f8
fc01f8
fc01f8
fc01f8
fc01f8
1fffc0
1fffc0
1fffc0
000000
000000
000000
000000
000000
000000
ENDCHAR
STARTCHAR alpha
ENCODING 945
SWIDTH 568 0
DWIDTH 24 0
BBX 24 39 0 -6
BITMAP
000000
000000
000000
000000
000000
000000
000000
000000
000000
000000
000000
000000
1ff1f8
1ff1f8
1ff1f8
fc0ff8
fc0ff8
fc0ff8
fc01f8
fc01f8
fc01f8
fc01f8
fc01f8
fc01f8
fc0ff8
fc0ff8
fc0ff8
fc71f8
fc71f8
fc71f8
1f81f8
1f81f8
1f81f8
000000
000000
000000
000000
000000
000000
ENDCHAR
STARTCHAR beta
ENCODING 946
SWIDTH 568 0
DWIDTH 24 0
BBX 24 39 0 -6
BITMAP
000000
000000
000000
1ffe00
1ffe00
1ffe00
fc0fc0
fc0fc0
fc0fc0
fc0fc0
fc0fc0
fc0fc0
fc0fc0
fc0fc0
fc0fc0
fffff8
fffff8
fffff8
fc01f8
fc01f8
fc01f8
fc01f8
fc01f8
fc01f8
fc01f8
fc01f8
fc01f8
ff81f8
ff81f8
ff81f8
ffffc0
ffffc0
ffffc0
fc0000
fc0000
fc0000
fc0000
fc0000
fc0000
ENDCHAR
STARTCHAR gamma
ENCODING 947
SWIDTH 568 0
DWIDTH 24 0
BBX 24 39 0 -6
BITMAP
000000
000000
000000
000000
000000
000000
000000
000000
000000
000000
000000
000000
fc0fc0
fc0fc0
fc0fc0
fc0fc0
fc0fc0
fc0fc0
fc0fc0
fc0fc0
fc0fc0
1ffe00
1ffe00
1ffe00
1ffe00
1ffe00
1ffe00
03f000
03f000
03f000
03f000
03f000
03f000
03f000
03f000
03f000
03f000
03f000
03f000
ENDCHAR
STARTCHAR delta
ENCODING 948
SWIDTH 568 0
DWIDTH 24 0
BBX 24 39 0 -6
BITMAP
000000
000000
000000
1fffc0
1fffc0
1fffc0
fc01f8
fc01f8
fc01f8
1f8000
1f8000
1f8000
1fffc0
1fffc0
1fffc0
fc01f8
fc01f8
fc01f8
fc01f8
fc01f8
fc01f8
fc01f8
fc01f8
fc01f8
fc01f8
fc01f8
fc01f8
fc01f8
fc01f8
fc01f8
1fffc0
1fffc0
1fffc0
000000
000000
000000
000000
000000
000000
ENDCHAR
STARTCHAR epsilon
ENCODING 949
SWIDTH 568 0
DWIDTH 24 0
BBX 24 39 0 -6
BITMAP
000000
000000
000000
000000
000000
000000
000000
000000
000000
000000
000000
000000
1fffc0
1fffc0
1fffc0
fc01f8
fc01f8
fc01f8
fc0000
fc0000
fc0000
1ffe00
1ffe00
1ffe00
fc0000
fc0000
fc0000
fc01f8
fc01f8
fc01f8
1fffc0
1fffc0
1fffc0
000000
000000
000000
000000
000000
000000
ENDCHAR
STARTCHAR zeta
ENCODING 950
SWIDTH 568 0
DWIDTH 24 0
BBX 24 39 0 -6
BITMAP
000000
000000
000000
fffff8
fffff8
fffff8
03f000
03f000
03f000
1f8000
1f8000
1f8000
1f8000
1f8000
1f8000
fc0000
fc0000
fc0000
fc0000
fc0000
fc0000
fc0000
fc0000
fc0000
fc0000
fc0000
fc0000
fc0000
fc0000
fc0000
1fffc0
1fffc0
1fffc0
0001f8
0001f8
0001f8
007fc0
007fc0
007fc0
ENDCHAR
STARTCHAR eta
ENCODING 951
SWIDTH 568 0
DWIDTH 24 0
BBX 24 39 0 -6
BITMAP
000000
000000
000000
000000
000000
000000
000000
000000
000000
000000
000000
000000
ffffc0
ffffc0
ffffc0
ff81f8
ff81f8
ff81f8
fc01f8
fc01f8
fc01f8
fc01f8
fc01f8
fc01f8
fc01f8
fc01f8
fc01f8
fc01f8
fc01f8
fc01f8
fc01f8
fc01f8
fc01f8
0001f8
0001f8
0001f8
0001f8
0001f8
0001f8
ENDCHAR
STARTCHAR theta
ENCODING 952
SWIDTH 568 0
DWIDTH 24 0
BBX 24 39 0 -6
BITMAP
000000
000000
000000
03ffc0
03ffc0
03ffc0
1f81f8
1f81f8
1f81f8
1f81f8
1f81f8
1f81f8
1f81f8
1f81f8
1f81f8
1ffff8
1ffff8
1ffff8
1f81f8
1f81f8
1f81f8
1f81f8
1f81f8
1f81f8
1f81f8
1f81f8
1f81f8
1f81f8
1f81f8
1f81f8
03ffc0
03ffc0
03ffc0
000000
000000
000000
000000
000000
000000
ENDCHAR
STARTCHAR iota
ENCODING 953
SWIDTH 568 0
DWIDTH 24 0
BBX 24 39 0 -6
BITMAP
000000
000000
000000
000000
000000
000000
000000
000000
000000
000000
000000
000000
1f8000
1f8000
1f8000
1f8000
1f8000
1f8000
1f8000
1f8000
1f8000
1f8000
1f8000
1f8000
1f8000
1f8000
1f8000
1f8fc0
1f8fc0
1f8fc0
03fe00
03fe00
03fe00
000000
000000
000000
000000
000000
000000
ENDCHAR
STARTCHAR kappa
ENCODING 954
SWIDTH 568 0
DWIDTH 24 0
BBX 24 39 0 -6
BITMAP
000000
000000
000000
000000
000000
000000
000000
000000
000000
000000
000000
000000
fc01f8
fc01f8
fc01f8
fc0fc0
fc0fc0
fc0fc0
fc7e00
fc7e00
fc7e00
fff000
fff000
fff000
fffe00
fffe00
fffe00
fc0fc0
fc0fc0
fc0fc0
fc01f8
fc01f8
fc01f8
000000
000000
000000
000000
000000
000000
ENDCHAR
STARTCHAR lambda
ENCODING 955
SWIDTH 568 0
DWIDTH 24 0
BBX 24 39 0 -6
BITMAP
000000
000000
000000
1fffc0
1fffc0
1fffc0
fc01f8
fc01f8
fc01f8
0001f8
0001f8
0001f8
1ffff8
1ffff8
1ffff8
fc0ff8
fc0ff8
fc0ff8
fc01f8
fc01f8
fc01f8
fc01f8
fc01f8
fc01f8
fc01f8
fc01f8
fc01f8
fc01f8
fc01f8
fc01f8
fc01f8
fc01f8
fc01f8
000000
000000
000000
000000
000000
000000
ENDCHAR
STARTCHAR mu
ENCODING 956
SWIDTH 568 0
DWIDTH 24 0
BBX 24 39 0 -6
BITMAP
000000
000000
000000
000000
000000
000000
000000
000000
000000
000000
000000
000000
fc01f8
fc01f8
fc01f8
fc01f8
fc01f8
fc01f8
fc01f8
fc01f8
fc01f8
fc01f8
fc01f8
fc01f8
fc01f8
fc01f8
fc01f8
ff8ff8
ff8ff8
ff8ff8
fffff8
fffff8
fffff8
fc0000
fc0000
fc0000
fc0000
fc0000
fc0000
ENDCHAR
STARTCHAR nu
ENCODING 957
SWIDTH 568 0
DWIDTH 24 0
BBX 24 39 0 -6
BITMAP
000000
000000
000000
000000
000000
000000
000000
000000
000000
000000
000000
000000
fc01f8
fc01f8
fc01f8
fc01f8
fc01f8
fc01f8
fc01f8
fc01f8
fc01f8
fc01f8
fc01f8
fc01f8
1f8fc0
1f8fc0
1f8fc0
1f8fc0
1f8fc0
1f8fc0
03fe00
03fe00
03fe00
000000
000000
000000
000000
000000
000000
ENDCHAR
STARTCHAR xi
ENCODING 958
SWIDTH 568 0
DWIDTH 24 0
BBX 24 39 0 -6
BITMAP
000000
000000
000000
fffff8
fffff8
fffff8
03f000
03f000
03f000
1f8000
1f8000
1f8000
1f8000
1f8000
1f8000
03ffc0
03ffc0
03ffc0
1f8000
1f8000
1f8000
fc0000
fc0000
fc0000
fc0000
fc0000
fc0000
fc0000
fc0000
fc0000
1fffc0
1fffc0
1fffc0
0001f8
0001f8
0001f8
007fc0
007fc0
007fc0
ENDCHAR
STARTCHAR omicron
ENCODING 959
SWIDTH 568 0
DWIDTH 24 0
BBX 24 39 0 -6
BITMAP
000000
000000
000000
000000
000000
000000
000000
000000
000000
000000
000000
000000
1fffc0
1fffc0
1fffc0
fc01f8
fc01f8
fc01f8
fc01f8
fc01f8
fc01f8
fc01f8
fc01f8
fc01f8
fc01f8
fc01f8
fc01f8
fc01f8
fc01f8
fc01f8
1fffc0
1fffc0
1fffc0
000000
000000
000000
000000
000000
000000
ENDCHAR
STARTCHAR pi
ENCODING 960
SWIDTH 568 0
DWIDTH 24 0
BBX 24 39 0 -6
BITMAP
000000
000000
000000
000000
000000
000000
000000
000000
000000
000000
000000
000000
fffff8
fffff8
fffff8
1f8fc0
1f8fc0
1f8fc0
1f8fc0
1f8fc0
1f8fc0
1f8fc0
1f8fc0
1f8fc0
1f8fc0
1f8fc0
1f8fc0
1f8fc0
1f8fc0
1f8fc0
1f8fc0
1f8fc0
1f8fc0
000000
000000
000000
000000
000000
000000
ENDCHAR
STARTCHAR rho
ENCODING 961
SWIDTH 568 0
DWIDTH 24 0
BBX 24 39 0 -6
BITMAP
000000
000000
000000
000000
000000
000000
000000
000000
000000
000000
000000
000000
1fffc0
1fffc0
1fffc0
fc01f8
fc01f8
fc01f8
fc01f8
fc01f8
fc01f8
fc01f8
fc01f8
fc01f8
fc01f8
fc01f8
fc01f8
ff81f8
ff81f8
ff81f8
ffffc0
ffffc0
ffffc0
fc0000
fc0000
fc0000
fc0000
fc0000
fc0000
ENDCHAR
STARTCHAR sigma1
ENCODING 962
SWIDTH 568 0
DWIDTH 24 0
BBX 24 39 0 -6
BITMAP
000000
000000
000000
000000
000000
000000
000000
000000
000000
000000
000000
000000
1fffc0
1fffc0
1fffc0
fc01f8
fc01f8
fc01f8
fc0000
fc0000
fc0000
fc0000
fc0000
fc0000
fc0000
fc0000
fc0000
fc0000
fc0000
fc0000
1fffc0
1fffc0
1fffc0
0001f8
0001f8
0001f8
007fc0
007fc0
007fc0
ENDCHAR
STARTCHAR sigma
ENCODING 963
SWIDTH 568 0
DWIDTH 24 0
BBX 24 39 0 -6
BITMAP
000000
000000
000000
000000
000000
000000
000000
000000
000000
000000
000000
000000
1ffff8
1ffff8
1ffff8
fc7e00
fc7e00
fc7e00
fc0fc0
fc0fc0
fc0fc0
fc01f8
fc01f8
fc01f8
fc01f8
fc01f8
fc01f8
fc01f8
fc01f8
fc01f8
1fffc0
1fffc0
1fffc0
000000
000000
000000
000000
000000
000000
ENDCHAR
STARTCHAR tau
ENCODING 964
SWIDTH 568 0
DWIDTH 24 0
BBX 24 39 0 -6
BITMAP
000000
000000
000000
000000
000000
000000
000000
000000
000000
000000
000000
000000
fffff8
fffff8
fffff8
03f000
03f000
03f000
03f000
03f000
03f000
03f000
03f000
03f000
03f000
03f000
03f000
03f1f8
03f1f8
03f1f8
007fc0
007fc0
007fc0
000000
000000
000000
000000
000000
000000
ENDCHAR
STARTCHAR upsilon
ENCODING 965
SWIDTH 568 0
DWIDTH 24 0
BBX 24 39 0 -6
BITMAP
000000
000000
000000
000000
000000
000000
000000
000000
000000
000000
000000
000000
fc01f8
fc01f8
fc01f8
fc01f8
fc01f8
fc01f8
fc01f8
fc01f8
fc01f8
fc01f8
fc01f8
fc01f8
fc01f8
fc01f8
fc01f8
fc01f8
fc01f8
fc01f8
1fffc0
1fffc0
1fffc0
000000
000000
000000
000000
000000
000000
ENDCHAR
STARTCHAR phi
ENCODING 966
SWIDTH 568 0
DWIDTH 24 0
BBX 24 39 0 -6
BITMAP
000000
000000
000000
000000
000000
000000
000000
000000
000000
000000
000000
000000
1f8fc0
1f8fc0
1f8fc0
fc71f8
fc71f8
fc71f8
fc71f8
fc71f8
fc71f8
fc71f8
fc71f8
fc71f8
fc71f8
fc71f8
fc71f8
fc71f8
fc71f8
fc71f8
1fffc0
1fffc0
1fffc0
007000
007000
007000
007000
007000
007000
ENDCHAR
STARTCHAR chi
ENCODING 967
SWIDTH 568 0
DWIDTH 24 0
BBX 24 39 0 -6
BITMAP
000000
000000
000000
000000
000000
000000
000000
000000
000000
000000
000000
000000
fc01f8
fc01f8
fc01f8
fc01f8
fc01f8
fc01f8
1f8fc0
1f8fc0
1f8fc0
1f8fc0
1f8fc0
1f8fc0
03fe00
03fe00
03fe00
1f8fc0
1f8fc0
1f8fc0
1f8fc0
1f8fc0
1f8fc0
fc01f8
fc01f8
fc01f8
fc01f8
fc01f8
fc01f8
ENDCHAR
STARTCHAR psi
ENCODING 968
SWIDTH 568 0
DWIDTH 24 0
BBX 24 39 0 -6
BITMAP
000000
000000
000000
000000
000000
000000
000000
000000
000000
000000
000000
000000
fc71f8
fc71f8
fc71f8
fc71f8
fc71f8
fc71f8
fc71f8
fc71f8
fc71f8
fc71f8
fc71f8
fc71f8
fc71f8
fc71f8
fc71f8
fc71f8
fc71f8
fc71f8
1fffc0
1fffc0
1fffc0
007000
007000
007000
007000
007000
007000
ENDCHAR
STARTCHAR omega
ENCODING 969
SWIDTH 568 0
DWIDTH 24 0
BBX 24 39 0 -6
BITMAP
000000
000000
000000
000000
000000
000000
000000
000000
000000
000000
000000
000000
fc01f8
fc01f8
fc01f8
fc01f8
fc01f8
fc01f8
fc71f8
fc71f8
fc71f8
fc71f8
fc71f8
fc71f8
fc71f8
fc71f8
fc71f8
fffff8
fffff8
fffff8
1f8fc0
1f8fc0
1f8fc0
000000
000000
000000
000000
000000
000000
ENDCHAR
STARTCHAR iotadieresis
ENCODING 970
SWIDTH 568 0
DWIDTH 24 0
BBX 24 39 0 -6
BITMAP
000000
000000
000000
fc01f8
fc01f8
fc01f8
fc01f8
fc01f8
fc01f8
000000
000000
000000
03f000
03f000
03f000
03f000
03f000
03f000
03f000
03f000
03f000
03f000
03f000
03f000
03f000
03f000
03f000
03f1f8
03f1f8
03f1f8
007fc0
007fc0
007fc0
000000
000000
000000
000000
000000
000000
ENDCHAR
STARTCHAR upsilondieresis
ENCODING 971
SWIDTH 568 0
DWIDTH 24 0
BBX 24 39 0 -6
BITMAP
000000
000000
000000
fc01f8
fc01f8
fc01f8
fc01f8
fc01f8
fc01f8
000000
000000
000000
fc01f8
fc01f8
fc01f8
fc01f8
fc01f8
fc01f8
fc01f8
fc01f8
fc01f8
fc01f8
fc01f8
fc01f8
fc01f8
fc01f8
fc01f8
fc01f8
fc01f8
fc01f8
1fffc0
1fffc0
1fffc0
000000
000000
000000
000000
000000
000000
ENDCHAR
STARTCHAR omicrontonos
ENCODING 972
SWIDTH 568 0
DWIDTH 24 0
BBX 24 39 0 -6
BITMAP
000000
000000
000000
000fc0
000fc0
000fc0
007e00
007e00
007e00
000000
000000
000000
1fffc0
1fffc0
1fffc0
fc01f8
fc01f8
fc01f8
fc01f8
fc01f8
fc01f8
fc01f8
fc01f8
fc01f8
fc01f8
fc01f8
fc01f8
fc01f8
fc01f8
fc01f8
1fffc0
1fffc0
1fffc0
000000
000000
000000
000000
000000
000000
ENDCHAR
STARTCHAR upsilontonos
ENCODING 973
SWIDTH 568 0
DWIDTH 24 0
BBX 24 39 0 -6
BITMAP
000000
000000
000000
000fc0
000fc0
000fc0
007e00
007e00
007e00
000000
000000
000000
fc01f8
fc01f8
fc01f8
fc01f8
fc01f8
fc01f8
fc01f8
fc01f8
fc01f8
fc01f8
fc01f8
fc01f8
fc01f8
fc01f8
fc01f8
fc01f8
fc01f8
fc01f8
1fffc0
1fffc0
1fffc0
000000
000000
000000
000000
000000
000000
ENDCHAR
STARTCHAR omegatonos
ENCODING 974
SWIDTH 568 0
DWIDTH 24 0
BBX 24 39 0 -6
BITMAP
000000
000000
000000
000fc0
000fc0
000fc0
007e00
007e00
007e00
000000
000000
000000
fc01f8
fc01f8
fc01f8
fc01f8
fc01f8
fc01f8
fc71f8
fc71f8
fc71f8
fc71f8
fc71f8
fc71f8
fc71f8
fc71f8
fc71f8
fffff8
fffff8
fffff8
1f8fc0
1f8fc0
1f8fc0
000000
000000
000000
000000
000000
000000
ENDCHAR
STARTCHAR uni03D0
ENCODING 976
SWIDTH 568 0
DWIDTH 24 0
BBX 24 39 0 -6
BITMAP
000000
000000
000000
03fe00
03fe00
03fe00
1f8fc0
1f8fc0
1f8fc0
fc0fc0
fc0fc0
fc0fc0
fc7e00
fc7e00
fc7e00
ffffc0
ffffc0
ffffc0
fc01f8
fc01f8
fc01f8
fc01f8
fc01f8
fc01f8
fc01f8
fc01f8
fc01f8
1f8fc0
1f8fc0
1f8fc0
03fe00
03fe00
03fe00
000000
000000
000000
000000
000000
000000
ENDCHAR
ENDFONT
